<?xml version="1.0" encoding="UTF-8"?><svg xmlns="http://www.w3.org/2000/svg" viewBox="0 0 26.1 26.05"><g id="a"/><g id="b"><g id="c"><path d="M26.1,13.02C26.1,6.11,20.67,.45,13.84,.04,13.7,.02,13.55,0,13.4,0c-.04,0-.08,.01-.13,.01-.08,0-.15-.01-.23-.01C5.85,0,0,5.84,0,13.02s5.85,13.02,13.05,13.02c.08,0,.15-.01,.23-.01,.04,0,.08,.01,.13,.01,.15,0,.29-.02,.44-.04,6.83-.41,12.26-6.07,12.26-12.98Zm-2.43,4.19c-.45-.13-1.58-.41-3.56-.64,.17-1.13,.26-2.31,.26-3.55,0-.97-.06-1.92-.16-2.82,2.51-.3,3.62-.68,3.7-.7l-.26-.75c.54,1.32,.84,2.76,.84,4.28s-.29,2.89-.81,4.19ZM7.29,13.02c0-.91,.07-1.8,.18-2.66,1.32,.1,2.9,.18,4.75,.2v5.65c-1.8,.02-3.35,.09-4.65,.19-.18-1.07-.28-2.21-.28-3.38ZM13.84,1.75c1.99,.58,3.7,3.34,4.47,7.01-1.23,.1-2.71,.17-4.47,.19V1.75Zm-1.62,.02v7.17c-1.74-.02-3.23-.09-4.48-.18,.78-3.62,2.5-6.36,4.48-6.99Zm0,16.07v6.44c-1.84-.58-3.46-3-4.3-6.27,1.21-.09,2.64-.15,4.3-.17Zm1.62,6.46v-6.46c1.67,.02,3.1,.08,4.3,.17-.83,3.31-2.44,5.75-4.3,6.29Zm0-8.08v-5.65c1.86-.02,3.43-.1,4.73-.2,.11,.86,.17,1.75,.17,2.66,0,1.17-.1,2.31-.27,3.39-1.28-.1-2.82-.18-4.63-.19ZM23.28,7.99c-.25,.08-1.29,.37-3.33,.61-.46-2.45-1.29-4.53-2.38-6.04,2.49,1.08,4.51,3.01,5.71,5.43ZM9.14,2.32c-1.32,1.52-2.39,3.71-2.98,6.29-1.83-.2-2.94-.43-3.39-.54,1.29-2.65,3.57-4.73,6.37-5.75ZM2.15,9.59c.31,.08,1.5,.38,3.7,.62-.13,.9-.2,1.84-.2,2.81,0,1.23,.12,2.41,.32,3.53-1.89,.2-3.05,.45-3.58,.57-.49-1.27-.78-2.65-.78-4.1,0-1.19,.19-2.35,.53-3.43Zm.96,9.03c.59-.13,1.65-.32,3.21-.48,.62,2.27,1.62,4.19,2.82,5.58-2.56-.94-4.7-2.76-6.03-5.1Zm14.46,4.86c.98-1.36,1.76-3.18,2.24-5.31,1.61,.18,2.62,.4,3.13,.53-1.22,2.12-3.1,3.81-5.37,4.79Z"/></g></g></svg>