<?xml version="1.0" encoding="UTF-8"?><svg xmlns="http://www.w3.org/2000/svg" viewBox="0 0 551.81 36.34"><g id="a"/><g id="b"><g id="c"><g><path d="M6.77,34.9c-.8,.96-1.78,1.44-2.95,1.44-1.06,0-1.97-.37-2.71-1.12-.74-.74-1.12-1.65-1.12-2.71,0-.96,.26-1.73,.8-2.31L20.16,4.14c.9-1.22,2.1-2.22,3.59-2.99,1.49-.77,3.08-1.15,4.78-1.15,1.59,0,3.11,.35,4.54,1.04,1.44,.69,2.6,1.65,3.51,2.87l19.36,25.9c.32,.37,.58,.78,.8,1.24s.32,.94,.32,1.47c0,1.06-.37,1.97-1.12,2.71s-1.65,1.12-2.71,1.12c-1.27,0-2.28-.51-3.03-1.51L31.63,10.04c-.37-.42-.84-.89-1.39-1.39-.56-.5-1.13-.76-1.71-.76s-1.15,.25-1.71,.76c-.56,.51-1,.97-1.32,1.39L6.77,34.9Zm16.81-7.17c0-1.38,.48-2.55,1.43-3.51s2.12-1.43,3.51-1.43,2.55,.48,3.51,1.43c.96,.96,1.43,2.13,1.43,3.51s-.48,2.55-1.43,3.51-2.12,1.43-3.51,1.43-2.55-.48-3.51-1.43c-.96-.96-1.43-2.12-1.43-3.51Z"/><path d="M119.29,18.96c0-.96-.12-2-.36-3.15-.24-1.14-.69-2.19-1.35-3.15-.66-.96-1.58-1.77-2.75-2.43-1.17-.66-2.66-1-4.46-1h-28.77c-1.86,0-3.36,.33-4.5,1-1.14,.66-2.05,1.47-2.71,2.43-.66,.96-1.12,2.01-1.35,3.15-.24,1.14-.36,2.19-.36,3.15v13.55c0,1.06-.37,1.97-1.12,2.71s-1.65,1.12-2.71,1.12-1.97-.37-2.71-1.12c-.74-.74-1.12-1.65-1.12-2.71v-13.55c0-2.02,.33-4.05,1-6.1,.66-2.05,1.63-3.91,2.91-5.58,1.27-1.67,2.81-3.04,4.62-4.1,1.81-1.06,3.85-1.59,6.14-1.59h33.39c2.18,.11,4.12,.71,5.82,1.79,1.7,1.09,3.15,2.46,4.34,4.1,1.19,1.65,2.11,3.48,2.75,5.5,.64,2.02,.96,4.01,.96,5.98v13.55c0,1.06-.37,1.97-1.12,2.71-.74,.74-1.65,1.12-2.71,1.12s-1.97-.37-2.71-1.12c-.74-.74-1.12-1.65-1.12-2.71v-13.55Z"/><path d="M193.55,1.59c1.06,0,1.96,.37,2.71,1.12,.74,.74,1.12,1.65,1.12,2.71s-.35,1.87-1.04,2.59c-.69,.72-1.51,1.13-2.47,1.24h-16.02c-1.59,.11-2.91,.49-3.94,1.15-1.04,.67-1.85,1.47-2.43,2.43-.59,.96-.98,1.99-1.2,3.11-.21,1.12-.32,2.12-.32,3.03v13.55c0,1.06-.37,1.97-1.12,2.71s-1.65,1.12-2.71,1.12-1.97-.37-2.71-1.12c-.74-.74-1.12-1.65-1.12-2.71v-13.55c0-1.65,.21-3.31,.64-4.98,.42-1.67,1.06-3.25,1.91-4.74h-26.14c-1.06,0-1.97-.37-2.71-1.12-.74-.74-1.12-1.65-1.12-2.71s.37-1.96,1.12-2.71c.74-.74,1.65-1.12,2.71-1.12h54.82Z"/><path d="M212.12,34.9c-.8,.96-1.78,1.44-2.95,1.44-1.06,0-1.97-.37-2.71-1.12-.74-.74-1.12-1.65-1.12-2.71,0-.96,.26-1.73,.8-2.31l19.36-26.06c.9-1.22,2.1-2.22,3.59-2.99,1.49-.77,3.08-1.15,4.78-1.15,1.59,0,3.11,.35,4.54,1.04,1.44,.69,2.6,1.65,3.51,2.87l19.36,25.9c.32,.37,.58,.78,.8,1.24s.32,.94,.32,1.47c0,1.06-.37,1.97-1.12,2.71s-1.65,1.12-2.71,1.12c-1.27,0-2.28-.51-3.03-1.51l-18.57-24.78c-.37-.42-.84-.89-1.39-1.39-.56-.5-1.13-.76-1.71-.76s-1.15,.25-1.71,.76c-.56,.51-1,.97-1.32,1.39l-18.73,24.86Zm16.81-7.17c0-1.38,.48-2.55,1.43-3.51,.96-.96,2.12-1.43,3.51-1.43s2.55,.48,3.51,1.43c.96,.96,1.43,2.13,1.43,3.51s-.48,2.55-1.43,3.51-2.12,1.43-3.51,1.43-2.55-.48-3.51-1.43c-.96-.96-1.43-2.12-1.43-3.51Z"/><path d="M332.68,32.51c0,1.06-.37,1.97-1.12,2.71-.74,.74-1.65,1.12-2.71,1.12-.53,0-1.01-.11-1.43-.32-.43-.21-.82-.48-1.2-.8-.32-.32-.56-.58-.72-.8-2.18-2.71-4.42-4.83-6.73-6.37-2.31-1.54-4.74-2.71-7.29-3.51-2.55-.8-5.25-1.29-8.09-1.47-2.84-.19-5.88-.28-9.12-.28h-16.26v9.72c0,1.06-.39,1.97-1.16,2.71-.77,.74-1.66,1.12-2.67,1.12-1.06,0-1.97-.37-2.71-1.12-.74-.74-1.12-1.65-1.12-2.71V12.03c0-1.59,.29-3.03,.88-4.3,.58-1.27,1.33-2.36,2.23-3.27s1.94-1.61,3.11-2.11c1.17-.5,2.34-.76,3.51-.76h41.6c1.49,0,2.9,.28,4.22,.84,1.33,.56,2.5,1.32,3.51,2.27,1.01,.96,1.81,2.07,2.39,3.35,.58,1.27,.88,2.66,.88,4.14,0,1.06-.37,1.97-1.12,2.71-.74,.74-1.65,1.12-2.71,1.12s-1.97-.37-2.71-1.12c-.74-.74-1.12-1.65-1.12-2.71,0-.8-.28-1.46-.84-1.99-.56-.53-1.21-.85-1.95-.96h-41.75c-.69,0-1.25,.17-1.67,.52-.43,.35-.69,.76-.8,1.24v4.14h16.26c4.67,0,8.9,.27,12.67,.8,3.77,.53,7.18,1.39,10.24,2.59,3.05,1.2,5.79,2.76,8.21,4.7,2.42,1.94,4.58,4.32,6.49,7.13,.53,.69,.8,1.41,.8,2.15Z"/><path d="M405.51,18.96c0,2.02-.33,4.05-1,6.1-.66,2.05-1.63,3.9-2.91,5.58-1.27,1.67-2.82,3.04-4.62,4.1-1.81,1.06-3.85,1.59-6.14,1.59h-36.34c-2.18-.11-4.12-.7-5.82-1.79-1.7-1.09-3.15-2.46-4.34-4.1-1.2-1.65-2.11-3.48-2.75-5.5-.64-2.02-.96-4.01-.96-5.98s.33-4.05,1-6.1c.66-2.05,1.63-3.91,2.91-5.58,1.27-1.67,2.81-3.04,4.62-4.1,1.81-1.06,3.85-1.59,6.14-1.59h36.34c2.18,.11,4.12,.71,5.82,1.79,1.7,1.09,3.15,2.46,4.34,4.1,1.2,1.65,2.11,3.48,2.75,5.5,.64,2.02,.96,4.01,.96,5.98Zm-16.34,9.72c1.81,0,3.29-.33,4.46-1,1.17-.66,2.08-1.47,2.75-2.43,.66-.96,1.12-2,1.35-3.15,.24-1.14,.36-2.19,.36-3.15s-.12-2-.36-3.15c-.24-1.14-.69-2.19-1.35-3.15-.67-.96-1.58-1.77-2.75-2.43-1.17-.66-2.66-1-4.46-1h-32.19c-1.86,0-3.36,.33-4.5,1-1.14,.66-2.05,1.47-2.71,2.43-.66,.96-1.12,2.01-1.35,3.15-.24,1.14-.36,2.19-.36,3.15s.12,2.01,.36,3.15c.24,1.14,.69,2.19,1.35,3.15,.66,.96,1.57,1.77,2.71,2.43,1.14,.66,2.64,1,4.5,1h32.19Z"/><path d="M424.07,22.79c-1.49,0-2.87-.28-4.14-.84s-2.39-1.31-3.35-2.27c-.96-.96-1.71-2.07-2.27-3.35-.56-1.28-.84-2.66-.84-4.14s.28-2.87,.84-4.14c.56-1.27,1.31-2.39,2.27-3.35,.96-.96,2.07-1.71,3.35-2.27,1.27-.56,2.66-.84,4.14-.84h48.37c1.06,0,1.96,.37,2.71,1.12,.74,.74,1.12,1.65,1.12,2.71s-.37,1.97-1.12,2.71-1.65,1.12-2.71,1.12h-48.53c-.8,0-1.5,.28-2.11,.84-.61,.56-.92,1.26-.92,2.11,0,.8,.3,1.49,.92,2.07,.61,.59,1.32,.88,2.11,.88h44.06c1.49,0,2.88,.28,4.18,.84,1.3,.56,2.43,1.31,3.39,2.27,.96,.96,1.71,2.09,2.27,3.39,.56,1.3,.84,2.7,.84,4.18s-.28,2.87-.84,4.14c-.56,1.28-1.32,2.39-2.27,3.35-.96,.96-2.09,1.7-3.39,2.23-1.3,.53-2.7,.8-4.18,.8h-48.29c-1.06,0-1.97-.37-2.71-1.12-.74-.74-1.12-1.65-1.12-2.71s.37-1.96,1.12-2.71c.74-.74,1.65-1.12,2.71-1.12h48.61c.8,0,1.49-.28,2.07-.84,.58-.56,.88-1.24,.88-2.03,0-.85-.29-1.57-.88-2.15-.59-.58-1.27-.88-2.07-.88h-44.22Z"/><path d="M497.22,22.79c-1.49,0-2.87-.28-4.14-.84s-2.39-1.31-3.35-2.27c-.96-.96-1.71-2.07-2.27-3.35-.56-1.28-.84-2.66-.84-4.14s.28-2.87,.84-4.14c.56-1.27,1.31-2.39,2.27-3.35,.96-.96,2.07-1.71,3.35-2.27,1.27-.56,2.66-.84,4.14-.84h48.37c1.06,0,1.96,.37,2.71,1.12,.74,.74,1.12,1.65,1.12,2.71s-.37,1.97-1.12,2.71-1.65,1.12-2.71,1.12h-48.53c-.8,0-1.5,.28-2.11,.84-.61,.56-.92,1.26-.92,2.11,0,.8,.3,1.49,.92,2.07,.61,.59,1.32,.88,2.11,.88h44.06c1.49,0,2.88,.28,4.18,.84,1.3,.56,2.43,1.31,3.39,2.27,.96,.96,1.71,2.09,2.27,3.39,.56,1.3,.84,2.7,.84,4.18s-.28,2.87-.84,4.14c-.56,1.28-1.32,2.39-2.27,3.35-.96,.96-2.09,1.7-3.39,2.23-1.3,.53-2.7,.8-4.18,.8h-48.29c-1.06,0-1.97-.37-2.71-1.12-.74-.74-1.12-1.65-1.12-2.71s.37-1.96,1.12-2.71c.74-.74,1.65-1.12,2.71-1.12h48.61c.8,0,1.49-.28,2.07-.84,.58-.56,.88-1.24,.88-2.03,0-.85-.29-1.57-.88-2.15-.59-.58-1.27-.88-2.07-.88h-44.22Z"/></g></g></g></svg>