<svg width="80" height="51" viewBox="0 0 80 51" fill="none" xmlns="http://www.w3.org/2000/svg">
<path d="M1 49.66V30.97C1 30.97 28.43 31.08 31.08 1H49.22V24.12C49.22 24.12 59.06 18.81 60.5 1.12H79.3V49.23H60.61V39.72C60.61 39.72 49.44 49.78 30.64 49.67L30.75 39.61C30.75 39.61 17.81 50.78 1 49.67V49.66Z" stroke="black" stroke-miterlimit="10"/>
<path d="M40.71 28.76C40.71 28.76 49.78 18.14 49.23 1V24.12C49.23 24.12 47.9 26.55 40.71 28.77V28.76Z" stroke="black" stroke-miterlimit="10"/>
<path d="M60.34 39.93C60.34 39.93 78.75 25.33 79.31 1.10999" stroke="black" stroke-miterlimit="10"/>
</svg>
