<svg width="29" height="26" viewBox="0 0 29 26" fill="none" xmlns="http://www.w3.org/2000/svg">
<path d="M28.09 23.24L24.5 19.7C25.7 17.74 26.39 15.45 26.39 13C26.39 5.83 20.47 0 13.2 0C5.93 0 0 5.83 0 13C0 20.17 5.92 26 13.2 26C17.12 26 20.64 24.31 23.06 21.62L26.39 24.9C26.62 25.13 26.93 25.25 27.24 25.25C27.55 25.25 27.85 25.13 28.09 24.9C28.56 24.44 28.56 23.69 28.09 23.23V23.24ZM13.2 23.64C7.25 23.64 2.4 18.87 2.4 13C2.4 7.13 7.24 2.36 13.2 2.36C19.16 2.36 24 7.13 24 13C24 18.87 19.16 23.64 13.2 23.64V23.64Z" fill="black"/>
</svg>
