<?xml version="1.0" encoding="UTF-8"?><svg xmlns="http://www.w3.org/2000/svg" viewBox="0 0 544.67 185.44"><defs><style>.d{fill:none;stroke:#ff2747;stroke-miterlimit:10;}.e{fill:#ff2747;}</style></defs><g id="a"/><g id="b"><g id="c"><g><path class="d" d="M.45,.23C38.48,74.82,110.96,130.94,192.7,149.08c20.03,4.45,41.11,6.69,60.95,1.43,19.84-5.25,38.28-19.15,44.56-38.69,4.32-13.43,2.26-29.1-6.61-40.07-8.87-10.97-24.71-16.26-37.98-11.47-20.01,7.23-27.17,34.06-19.29,53.83s26.35,33.25,45.17,43.17c80.68,42.54,185,35.37,259.41-17.2"/><path class="e" d="M538.25,140.54c-2.92-.47-6.15-3.23-7.9-5.5,4.58,1.44,9.56,1.97,14.32,.85-2.59,4.1-3.38,9.07-3.65,13.87-1.6-2.63-3.18-6.09-2.77-9.22Z"/></g></g></g></svg>