<svg width="25" height="26" viewBox="0 0 25 26" fill="none" xmlns="http://www.w3.org/2000/svg">
<g clip-path="url(#clip0_33_451)">
<path fill-rule="evenodd" clip-rule="evenodd" d="M24.66 19.34L20.85 25.06C20.85 25.06 20.8 25.47 20.77 25.19C20.46 25.5 19.97 25.5 19.66 25.19L16.89 22.42C16.63 22.11 16.63 21.86 16.89 21.31C17.2 21 17.69 21 18 21.31L20.08 23.39L23.43 18.28C23.7 17.94 24.19 17.88 24.53 18.15C24.87 18.42 24.93 18.91 24.66 19.34ZM19.86 20.1L15.75 18.21C15.25 17.98 14.91 17.51 14.85 16.97C14.79 16.43 15.05 15.89 15.77 15.55C17.12 14.23 17.74 11.34 17.74 9.91V6.19C17.74 4.25 14.92 2.06 12.26 2.06C9.6 2.06 6.77 4.29 6.77 6.2V9.92C6.77 11.37 7.53 14.24 9.41 15.55C9.58 15.89 9.79 16.42 9.73 16.96C9.66 17.5 9.32 17.97 8.83 18.19L1.95 21.44C1.76 21.53 1.57 21.72 1.57 22.34V23.93H15.68L16.95 25.5H1.45C0.43 25.5 0 24.8 0 23.93V21.58C0 20.71 1.45 20.01 1.45 20.01L8.18 16.76C5.99 15 5.21 11.54 5.21 9.91V6.19C5.2 3.33 8.8 0.5 12.26 0.5C15.72 0.5 19.31 3.33 19.31 6.2V9.92C19.31 11.72 18.58 15.08 16.41 16.79L20.66 18.78L19.87 20.1H19.86Z" fill="black"/>
</g>
<defs>
<clipPath id="clip0_33_451">
<rect width="24.82" height="25" fill="white" transform="translate(0 0.5)"/>
</clipPath>
</defs>
</svg>
