<svg width="26" height="26" viewBox="0 0 26 26" fill="none" xmlns="http://www.w3.org/2000/svg">
<g clip-path="url(#clip0_33_457)">
<path fill-rule="evenodd" clip-rule="evenodd" d="M24.42 19.3295C24.04 19.0595 19.86 16.2795 19.35 15.9695C19.13 15.8295 18.85 15.7695 18.56 15.7695C18.18 15.7695 17.76 15.8795 17.34 16.0995C16.94 16.3095 15.72 16.9995 15.12 17.3495C14.59 16.9795 13.36 16.0395 11.42 14.0895C9.49002 12.1595 8.54002 10.9195 8.16002 10.3895C8.50002 9.78953 9.19002 8.57953 9.40002 8.17953C9.80002 7.41953 9.84002 6.66953 9.52002 6.15953C9.22002 5.67953 6.45002 1.47953 6.16002 1.08953C5.89002 0.719531 5.41002 0.519531 4.89002 0.519531C4.48002 0.519531 4.04002 0.639531 3.66002 0.909531C3.62002 0.919531 -0.049982 3.57953 1.80044e-05 5.08953C0.140018 9.33953 4.27002 14.3395 7.71002 17.7795C11.15 21.2195 16.15 25.3595 20.42 25.4895H20.46C21.96 25.4895 24.58 21.8695 24.61 21.8295C25.3 20.8395 25.05 19.7595 24.42 19.3195V19.3295ZM23.34 20.9295C22.35 22.2995 20.95 23.7295 20.4 23.9395C17.47 23.7995 13.37 21.2295 8.82002 16.6895C4.27002 12.1395 1.70002 8.02953 1.56002 5.11953C1.76002 4.56953 3.19002 3.14953 4.55002 2.16953C4.65002 2.09953 4.77002 2.05953 4.89002 2.05953C4.92002 2.05953 4.94002 2.05953 4.95002 2.05953C5.39002 2.69953 7.74002 6.25953 8.17002 6.92953C8.17002 6.99953 8.15002 7.17953 8.01002 7.42953C7.87002 7.69953 7.42002 8.48953 6.79002 9.59953L6.30002 10.4595L6.87002 11.2695C7.29002 11.8695 8.30002 13.1795 10.3 15.1795C12.3 17.1795 13.61 18.1895 14.21 18.6095L15.02 19.1795L15.88 18.6895C16.71 18.2095 17.72 17.6395 18.05 17.4695C18.31 17.3295 18.49 17.3195 18.54 17.3195H18.56C19.16 17.6995 22.8 20.1095 23.44 20.5595C23.45 20.6195 23.44 20.7595 23.32 20.9295H23.34ZM15.73 9.69953C15.83 9.79953 15.97 9.85953 16.13 9.85953H16.43L22.03 9.87953C22.35 9.87953 22.61 9.60953 22.61 9.29953V8.89953C22.56 8.52953 22.27 8.30953 21.96 8.31953H18.27L24.64 1.91953C24.94 1.61953 24.94 1.11953 24.64 0.819531C24.34 0.519531 23.84 0.519531 23.54 0.819531L17.14 7.21953L17.16 3.44953C17.16 3.12953 16.92 2.85953 16.6 2.86953H16.2C15.88 2.86953 15.62 3.06953 15.62 3.37953L15.6 9.00953C15.6 9.00953 15.62 9.00953 15.62 9.02953L15.59 9.31953C15.59 9.47953 15.62 9.61953 15.73 9.71953V9.69953Z" fill="black"/>
</g>
<defs>
<clipPath id="clip0_33_457">
<rect width="25.02" height="25" fill="white" transform="translate(0 0.5)"/>
</clipPath>
</defs>
</svg>
