<?xml version="1.0" encoding="UTF-8"?>
<svg xmlns="http://www.w3.org/2000/svg" viewBox="0 0 63.1 63.1">
  <g>
    <path class="cls-1" d="m31.1,63.1C14.33,63.1,0,49.67,0,31.1,0,14.33,14.33,0,31.1,0c18.57,0,32,14.33,32,31.1,0,18.57-13.43,32-32,32Zm0-60C16.56,3.1,3.1,16.56,3.1,31.1c0,16.34,13.46,28.96,28,28.96,16.34,0,28-12.62,28-28.96,0-14.54-11.66-28-28-28Zm3.59,41.65c-.51,0-1.02-.19-1.41-.59-.78-.78-.78-2.05,0-2.83l7.36-7.36h-22.65c-1.1,0-2-.9-2-2s.9-2,2-2h22.53l-7.24-7.24c-.78-.78-.78-2.05,0-2.83.78-.78,2.05-.78,2.83,0l11.81,12.13-11.81,12.12c-.39.39-.9.59-1.41.59Z"/>
  </g>
</svg>