<?xml version="1.0" encoding="UTF-8"?>
<svg id="arrow-left" data-name="arrow-left" xmlns="http://www.w3.org/2000/svg" viewBox="0 0 64 63.1">
  <g id="_Слой_1-2" data-name="Слой 1" fill="#ff2747">
    <path class="cls-1" d="m31.1,63.1C14.33,63.1,0,49.67,0,31.1,0,14.33,14.33,0,31.1,0c18.57,0,32.9,14.33,32.9,31.1,0,18.57-14.33,32-32.9,32Zm0-60c-14.54,0-27.1,13.46-27.1,28,0,16.34,12.56,28.96,27.1,28.96,16.34,0,28.9-12.62,28.9-28.96,0-14.54-12.56-28-28.9-28Zm14.92,30.88h-22.65l7.36,7.36c.78.78.78,2.05,0,2.83-.39.39-.9.59-1.41.59s-1.02-.19-1.41-.59l-11.81-12.12,11.81-12.13c.78-.78,2.05-.78,2.83,0,.78.78.78,2.05,0,2.83l-7.24,7.24h22.53c1.1,0,2,.9,2,2s-.9,2-2,2Z"/>
  </g>
</svg>