<?xml version="1.0" encoding="UTF-8"?><svg xmlns="http://www.w3.org/2000/svg" viewBox="0 0 13 13"><defs><style>.d{fill:#444;fill-rule:evenodd;}</style></defs><g id="a"/><g id="b"><g id="c"><path class="d" d="M6.5,13C2.91,13,0,10.09,0,6.5S2.91,0,6.5,0s6.5,2.91,6.5,6.5-2.91,6.5-6.5,6.5ZM6.5,.81C3.36,.81,.81,3.36,.81,6.5s2.55,5.81,5.69,5.81,5.69-2.68,5.69-5.81S9.64,.81,6.5,.81Zm.81,9.34h-1.63c-.22,0-.41-.18-.41-.41s.18-.41,.41-.41h.41v-3.25h-.41c-.22,0-.41-.18-.41-.41s.18-.41,.41-.41h.81c.22,0,.41,.18,.41,.41,0,.04,0,.08,0,.13,0,.04,0-.11,0-.1v3.63h.41c.22,0,.41,.18,.41,.41s-.18,.41-.41,.41Zm-.81-5.69c-.45,0-.81-.36-.81-.81s.36-.81,.81-.81,.81,.36,.81,.81-.36,.81-.81,.81Z"/></g></g></svg>