<?xml version="1.0" encoding="UTF-8"?><svg xmlns="http://www.w3.org/2000/svg" viewBox="0 0 12.99 13"><defs><style>.d{fill:#444;fill-rule:evenodd;}</style></defs><g id="a"/><g id="b"><g id="c"><path class="d" d="M12.3,10.97h-1.35c-.1-.36-.17-.63-.42-.81h1.64v-.72c-.05-.04-.13-.03-.05-.1-.16-.01-.19-.02-.21-.04l-2.59-1.42c-.24-.13-.4-.37-.42-.64-.02-.27,.09-.54,.31-.53,.7-.72,.94-1.94,.94-2.57v-1.71c0-.6-1.08-1.6-2.25-1.6-.41,0-1.13,.2-1.56,.53-.32,0-.69,0-1.02-.12,.76-.69,1.69-1.22,2.58-1.22,1.51,0,3.06,1.28,3.06,2.41v1.71c0,.82-.3,2.29-1.25,3.04l2.59,1.42s.69,.28,.69,.69v1.02c0,.38-.31,.69-.69,.69Zm-4.19-6.53v1.71c0,.82-.26,2.29-1.15,3.04l2.5,1.42s.71,.28,.71,.69v1.03c0,.38-.33,.69-.71,.69H.68c-.38,0-.68-.31-.68-.69v-1.03c0-.38,.68-.69,.68-.69l2.62-1.42c-.96-.77-1.22-2.28-1.22-3.03v-1.71c0-1.13,1.49-2.4,3.17-2.4,1.35,0,2.86,1.26,2.86,2.4Zm-.81,0c0-.6-1.04-1.59-2.04-1.59-1.32,0-2.36,1-2.36,1.59v1.71c0,.64,.23,1.85,.91,2.48,.21,.09,.33,.35,.3,.62s-.18,.59-.42,.64l-2.62,1.42s.14,.02,0,.03c-.12,.03-.21,.08-.26,.12v.73H9.35v-.73c-.07-.04-.15-.08-.06-.1-.17-.01-.19-.02-.22-.04l-2.56-1.42c-.24-.01-.4-.37-.34-.64-.11-.27,0-.54,.22-.61,.72-.65,.9-1.86,.9-2.5v-1.71Z"/></g></g></svg>