<?xml version="1.0" encoding="UTF-8"?><svg xmlns="http://www.w3.org/2000/svg" viewBox="0 0 13.12 13"><defs><style>.d{fill:#444;fill-rule:evenodd;}</style></defs><g id="a"/><g id="b"><g id="c"><path class="d" d="M13.12,6.09s0,.07,0,.1v5.98c0,.45-.37,.82-.82,.82H.76c-.45,0-.76-.37-.76-.82V6.05c0-.33,.19-.63,.31-.73L5.68,.17c.47-.22,1.46-.22,1.75,0l5.37,5.19c.05,.04,.1,.09,.15,.15h0c.1,.15,.16,.32,.16,.55v.04Zm-.82,.82l-2.61,2.31,2.61,2.4V6.91Zm-.55,5.27L6.8,7.74c-.08-.06-.2-.1-.32-.1s-.23,.04-.32,.11l-1.82,1.68h0s-.05,.06-.08,.14l-2.9,2.62H11.74ZM.76,11.61l2.65-2.44L.76,6.89v4.72ZM6.84,.75c-.08-.08-.18-.12-.29-.12s-.06,.04-.29,.12L1.27,5.52h-.02l-.35,.34,3.11,2.75,1.62-1.49c.51-.41,1.21-.4,1.69-.02l1.74,1.57,3.12-2.77-.6-.67h-.1L6.84,.75Z"/></g></g></svg>