<?xml version="1.0" encoding="UTF-8"?><svg xmlns="http://www.w3.org/2000/svg" viewBox="0 0 24.82 25"><defs><style>.d{fill:#444;fill-rule:evenodd;}</style></defs><g id="a"/><g id="b"><g id="c"><path class="d" d="M24.66,18.84l-3.81,5.72h0s-.05,.41-.08,.13c-.31,.31-.8,.31-1.11,0l-2.77-2.77c-.26-.31-.26-.56,0-1.11,.31-.31,.8-.31,1.11,0l2.08,2.08,3.35-5.11c.27-.34,.76-.4,1.1-.13s.4,.76,.13,1.19Zm-4.8,.76l-4.11-1.89c-.5-.23-.84-.7-.9-1.24-.06-.54,.2-1.08,.92-1.42,1.35-1.32,1.97-4.21,1.97-5.64v-3.72c0-1.94-2.82-4.13-5.48-4.13S6.77,3.79,6.77,5.7v3.72c0,1.45,.76,4.32,2.64,5.63,.17,.34,.38,.87,.32,1.41-.07,.54-.41,1.01-.9,1.23l-6.88,3.25c-.19,.09-.38,.28-.38,.9v1.59H15.68l1.27,1.57H1.45c-1.02,0-1.45-.7-1.45-1.57v-2.35c0-.87,1.45-1.57,1.45-1.57l6.73-3.25c-2.19-1.76-2.97-5.22-2.97-6.85v-3.72C5.2,2.83,8.8,0,12.26,0s7.05,2.83,7.05,5.7v3.72c0,1.8-.73,5.16-2.9,6.87l4.25,1.99-.79,1.32Z"/></g></g></svg>