<?xml version="1.0" encoding="UTF-8"?><svg xmlns="http://www.w3.org/2000/svg" viewBox="0 0 25.46 25.46"><defs><style>.d{fill:#ff2747;fill-rule:evenodd;}</style></defs><g id="a"/><g id="b"><g id="c"><path class="d" d="M12.73,0C5.7,0,0,5.7,0,12.73s5.7,12.73,12.73,12.73,12.73-5.7,12.73-12.73S19.76,0,12.73,0Zm0,23.89c-6.14,0-11.14-5.02-11.14-11.16S6.59,1.59,12.73,1.59s11.14,5,11.14,11.14-5,11.16-11.14,11.16Zm4.5-15.66c-.31-.31-.81-.31-1.12,0l-3.38,3.38-3.38-3.38c-.31-.31-.81-.31-1.12,0-.31,.31-.31,.81,0,1.12l3.38,3.38-3.38,3.38c-.31,.31-.31,.81,0,1.12,.31,.31,.81,.31,1.12,0l3.38-3.38,3.38,3.38c.31,.31,.81,.31,1.12,0,.31-.31,.31-.81,0-1.12l-3.38-3.38,3.38-3.38c.31-.31,.31-.81,0-1.12Z"/></g></g></svg>