<?xml version="1.0" encoding="UTF-8"?><svg xmlns="http://www.w3.org/2000/svg" viewBox="0 0 15.57 15"><defs><style>.d{fill:#1b1b1b;fill-rule:evenodd;}</style></defs><g id="a"/><g id="b"><g id="c"><path class="d" d="M2.56,15c-.48,0-1.29-.27-1.79-.78-1.02-1.12-1.02-2.94,0-3.99L9.46,.93c1.36-1.36,3.44-1.24,4.95,.46,.68,.51,1.06,1.49,1.15,2.52-.12,1.02-.52,2-1.2,2.68l-6.58,7c-.18,.2-.49,.21-.69,.02-.19-.18-.2-.49-.02-.69l6.59-7.01c.52-.52,.91-1.25,.93-2.02,.11-.77-.37-1.5-.87-1.99-.8-.79-2.45-1.31-3.57-.29L1.46,10.84c-.75,.75-.75,1.95,0,2.69,.35,.35,.76,.66,1.19,.49,.43-.03,.88-.25,1.25-.62l6.92-7.37c.25-.25,.76-.87,.24-1.38-.29-.11-.49-.27-.56-.27-.19,.02-.42,.15-.65,.38l-5.21,5.54c-.18,.2-.49,.2-.69,.02-.2-.18-.2-.49-.02-.69l5.26-5.55c.37-.41,.79-.64,1.21-.67,.33,.11,.83,.04,1.33,.55,.75,.75,.66,1.85-.23,2.75l-6.92,7.37c-.55,.55-1.22,.88-1.89,.92-.05,0-.1,0-.15,0Z"/></g></g></svg>