<?xml version="1.0" encoding="UTF-8"?><svg xmlns="http://www.w3.org/2000/svg" viewBox="0 0 25.02 25"><defs><style>.d{fill:#444;fill-rule:evenodd;}</style></defs><g id="a"/><g id="b"><g id="c"><path class="d" d="M24.42,18.83c-.38-.27-4.56-3.05-5.07-3.36-.22-.14-.5-.2-.79-.2-.38,0-.8,.11-1.22,.33-.4,.21-1.62,.9-2.22,1.25-.53-.37-1.76-1.31-3.7-3.26-1.93-1.93-2.88-3.17-3.26-3.7,.34-.6,1.03-1.81,1.24-2.21,.4-.76,.44-1.51,.12-2.02-.3-.48-3.07-4.68-3.36-5.07-.27-.37-.75-.57-1.27-.57-.41,0-.85,.12-1.23,.39C3.62,.42-.05,3.08,0,4.59c.14,4.25,4.27,9.25,7.71,12.69s8.44,7.58,12.71,7.71h.04c1.5,0,4.12-3.62,4.15-3.66,.69-.99,.44-2.07-.19-2.51Zm-1.08,1.6c-.99,1.37-2.39,2.8-2.94,3.01-2.93-.14-7.03-2.71-11.58-7.25C4.27,11.64,1.7,7.53,1.56,4.62c.2-.55,1.63-1.97,2.99-2.95,.1-.07,.22-.11,.34-.11,.03,0,.05,0,.06,0,.44,.64,2.79,4.2,3.22,4.87,0,.07-.02,.25-.16,.5-.14,.27-.59,1.06-1.22,2.17l-.49,.86,.57,.81c.42,.6,1.43,1.91,3.43,3.91,2,2,3.31,3.01,3.91,3.43l.81,.57,.86-.49c.83-.48,1.84-1.05,2.17-1.22,.26-.14,.44-.15,.49-.15h.02c.6,.38,4.24,2.79,4.88,3.24,.01,.06,0,.2-.12,.37Zm-7.61-11.23c.1,.1,.24,.16,.4,.16h.3l5.6,.02c.32,0,.58-.27,.58-.58v-.4c-.05-.37-.34-.59-.65-.58h-3.69L24.64,1.42c.3-.3,.3-.8,0-1.1s-.8-.3-1.1,0l-6.4,6.4,.02-3.77c0-.32-.24-.59-.56-.58h-.4c-.32,0-.58,.2-.58,.51l-.02,5.63s.02,0,.02,.02l-.03,.29c0,.16,.03,.3,.14,.4Z"/></g></g></svg>