<?xml version="1.0" encoding="UTF-8"?>
<svg id="_Слой_2" data-name="Слой 2" xmlns="http://www.w3.org/2000/svg" viewBox="0 0 49.26 49.26">
  <defs>
    <style>
      .cls-1 {
        fill: #ff2747;
        fill-rule: evenodd;
      }
    </style>
  </defs>
  <g id="_Слой_1-2" data-name="Слой 1">
    <path class="cls-1" d="m41.46,14.91c-1.89,0-4.18-.57-5.6-2.51l-20.68,10.03c.28.8-.27,1.65-.27,1.84,0,1.42.6,2.1.42,2.76l20.56,10.48c1.42-1.92,3.7-3.87,5.56-3.87,5.01,0,7.81,4.2,7.81,7.81,0,5.01-2.79,7.81-7.81,7.81-3.61,0-7.81-2.79-7.81-7.81,0,.08.78-.53.92-1.11l-20.64-10.52c-1.43,1.81-3.64,2.27-6.82,2.27-3.61,0-7.1-2.79-7.1-7.81,0-3.61,3.5-7.81,7.1-7.81,3,0,5.05,1.7,6.48,3.27l20.97-10.18c-.13-.57-.91-1.15-.91-2.46,0-3.61,4.2-7.1,7.81-7.1,5.01,0,7.81,3.5,7.81,7.1,0,5.01-2.79,7.81-7.81,7.81Zm0,31.23c3.29,0,4.68-1.39,4.68-4.68,0-1.88-1.39-4.68-4.68-4.68-1.88,0-4.68,2.8-4.68,4.68,0,3.29,2.8,4.68,4.68,4.68ZM7.1,19.6c-1.88,0-4.68,2.8-4.68,4.68,0,3.29,2.8,4.68,4.68,4.68,3.29,0,4.68-1.39,4.68-4.68,0-1.88-1.39-4.68-4.68-4.68ZM41.46,2.42c-1.88,0-4.68,2.8-4.68,4.68,0,3.29,2.8,4.68,4.68,4.68,3.29,0,4.68-1.39,4.68-4.68,0-1.88-1.39-4.68-4.68-4.68Z"/>
  </g>
</svg>