<?xml version="1.0" encoding="UTF-8"?>
<svg id="_Слой_2" data-name="Слой 2" xmlns="http://www.w3.org/2000/svg" viewBox="0 0 50 49.92">
  <defs>
    <style>
      .cls-1 {
        fill: #ff2747;
        fill-rule: evenodd;
      }
    </style>
  </defs>
  <g id="_Слой_1-2" data-name="Слой 1">
    <path class="cls-1" d="m49.18,14.71l-23.43,12.62c-.23.12-.49.19-.74.19s-.51-.06-.75-.19L1.08,14.7c-.51-.28-.82-.82-.81-1.4,0-.58.34-1.11.86-1.37L24.55.17c.45-.22.97-.22,1.41,0l23.18,11.77c.52.26.85.79.85,1.37,0,.58-.31,1.12-.82,1.39ZM25.25,3.31L5.2,13.39l19.82,10.79,20.05-10.81L25.25,3.31ZM.86,23.41l4.89-2.46,3.34,1.82-4.16,2.09,19.82,10.79,20.05-10.81-3.9-1.98,3.35-1.8,4.63,2.35c.52.26.85.79.85,1.37,0,.58-.31,1.12-.82,1.39l-23.43,12.62c-.23.12-.49.19-.74.19s-.51-.06-.75-.19L.81,26.18C.31,25.9,0,25.36,0,24.78c0-.58.34-1.11.86-1.37Zm0,10.93l4.6-2.12,3.34,1.82-3.87,1.75,19.82,10.79,20.05-10.81-3.66-1.79,3.35-1.8,4.39,2.16c.52.26.85.79.85,1.37,0,.58-.31,1.12-.82,1.39l-23.43,12.62c-.23.12-.49.19-.74.19s-.51-.06-.75-.19L.81,37.11C.31,36.83,0,36.29,0,35.71c0-.58.34-1.11.86-1.37Z"/>
  </g>
</svg>