<?xml version="1.0" encoding="UTF-8"?>
<svg id="_Слой_2" data-name="Слой 2" xmlns="http://www.w3.org/2000/svg" viewBox="0 0 49.97 46.7">
  <defs>
    <style>
      .cls-1 {
        fill: #ff2747;
        fill-rule: evenodd;
      }
    </style>
  </defs>
  <g id="_Слой_1-2" data-name="Слой 1">
    <path class="cls-1" d="m46.84,46.7H3.12C1.41,46.7,0,45.29,0,43.58v-18.68h0v-3.12h0v-10.94C0,9.11,1.41,7.71,3.12,7.71h12.49v-3.03c0-2.58,2.1-4.68,4.68-4.68h9.39c2.58,0,4.68,2.1,4.68,4.68v3.03h12.47c1.72,0,3.12,1.41,3.12,3.12v32.74c0,1.72-1.41,3.12-3.12,3.12ZM31.25,4.68c0-.86-.7-1.56-1.56-1.56h-9.39c-.86,0-1.56.7-1.56,1.56v3.03h12.51v-3.03Zm15.59,6.15H3.12v10.94h17.17v-1.6c0-1.72,1.4-3.12,3.12-3.12h3.11c1.72,0,3.12,1.4,3.12,3.12v1.6h17.19v-10.94Zm-23.43,9.34v7.86h3.11v-7.86h-3.11Zm23.43,4.72h-17.19v3.14c0,1.72-1.4,3.12-3.12,3.12h-3.11c-1.72,0-3.12-1.4-3.12-3.12v-3.14H3.12v18.68h43.72v-18.68Z"/>
  </g>
</svg>