<?xml version="1.0" encoding="UTF-8"?><svg xmlns="http://www.w3.org/2000/svg" xmlns:xlink="http://www.w3.org/1999/xlink" viewBox="0 0 26 24.3"><defs><style>.e{fill:url(#d);}</style><linearGradient id="d" x1="0" y1="12.15" x2="26" y2="12.15" gradientTransform="matrix(1, 0, 0, 1, 0, 0)" gradientUnits="userSpaceOnUse"><stop offset="0" stop-color="#ff2747"/><stop offset="1" stop-color="#1e1f19"/></linearGradient></defs><g id="a"/><g id="b"><g id="c"><path class="e" d="M24.38,4.01h-6.49v-1.57c0-1.34-1.09-2.44-2.44-2.44h-4.89c-1.34,0-2.44,1.09-2.44,2.44v1.57H1.63C.73,4.01,0,4.74,0,5.64v5.69h0v1.62H0v9.72c0,.89,.73,1.62,1.62,1.62H24.38c.89,0,1.62-.73,1.62-1.62V5.64c0-.89-.73-1.62-1.62-1.62Zm-14.62-1.57c0-.45,.36-.81,.81-.81h4.89c.45,0,.81,.36,.81,.81v1.57h-6.51v-1.57ZM1.63,5.64H24.38v5.69H15.43v-.83c0-.9-.73-1.62-1.62-1.62h-1.62c-.9,0-1.62,.73-1.62,1.62v.83H1.63V5.64ZM13.81,14.59h-1.62v-4.09h1.62v4.09ZM1.63,22.67V12.96H10.56v1.64c0,.9,.73,1.62,1.62,1.62h1.62c.9,0,1.62-.73,1.62-1.62v-1.64h8.95v9.72H1.63Z"/></g></g></svg>