<?xml version="1.0" encoding="UTF-8"?><svg xmlns="http://www.w3.org/2000/svg" xmlns:xlink="http://www.w3.org/1999/xlink" viewBox="0 0 26 26"><defs><style>.e{fill:url(#d);fill-rule:evenodd;}</style><linearGradient id="d" x1="0" y1="13" x2="26" y2="13" gradientTransform="matrix(1, 0, 0, 1, 0, 0)" gradientUnits="userSpaceOnUse"><stop offset="0" stop-color="#ff2747"/><stop offset="1" stop-color="#1e1f19"/></linearGradient></defs><g id="a"/><g id="b"><g id="c"><path class="e" d="M21.94,17.88c-1.34,0-2.51,.65-3.25,1.65L7.97,14.06c.09-.34,.16-.69,.16-1.06,0-.46-.09-.9-.24-1.32l10.78-5.23c.74,1.01,1.92,1.67,3.27,1.67,2.24,0,4.06-1.82,4.06-4.06S24.18,0,21.94,0s-4.06,1.82-4.06,4.06c0,.32,.04,.62,.11,.91L7.06,10.28c-.74-.82-1.81-1.34-3-1.34-2.24,0-4.06,1.82-4.06,4.06s1.82,4.06,4.06,4.06c1.29,0,2.43-.61,3.17-1.55l10.76,5.48c-.07,.3-.12,.62-.12,.94,0,2.24,1.82,4.06,4.06,4.06s4.06-1.82,4.06-4.06-1.82-4.06-4.06-4.06Zm0-16.25c1.35,0,2.44,1.09,2.44,2.44s-1.09,2.44-2.44,2.44-2.44-1.09-2.44-2.44,1.09-2.44,2.44-2.44ZM4.06,15.44c-1.35,0-2.44-1.09-2.44-2.44s1.09-2.44,2.44-2.44,2.44,1.09,2.44,2.44-1.09,2.44-2.44,2.44Zm17.88,8.94c-1.35,0-2.44-1.09-2.44-2.44s1.09-2.44,2.44-2.44,2.44,1.09,2.44,2.44-1.09,2.44-2.44,2.44Z"/></g></g></svg>