<?xml version="1.0" encoding="UTF-8"?><svg xmlns="http://www.w3.org/2000/svg" xmlns:xlink="http://www.w3.org/1999/xlink" viewBox="0 0 26 26"><defs><style>.e{fill:url(#d);}</style><linearGradient id="d" x1="0" y1="13" x2="26" y2="13" gradientTransform="matrix(1, 0, 0, 1, 0, 0)" gradientUnits="userSpaceOnUse"><stop offset="0" stop-color="#ff2747"/><stop offset="1" stop-color="#1e1f19"/></linearGradient></defs><g id="a"/><g id="b"><g id="c"><path class="e" d="M24.39,10.54l-2.08-.46c-.16-.52-.38-1.02-.62-1.5l1.13-1.88c.42-.67,.63-1.66,0-2.3l-1.15-1.15c-.63-.63-1.71-.52-2.35-.07l-1.83,1.17c-.47-.25-.97-.46-1.49-.62l-.47-2.11c-.14-.77-.82-1.61-1.71-1.61h-1.62c-.9,0-1.45,.85-1.62,1.62l-.52,2.09c-.55,.18-1.08,.4-1.58,.67l-1.87-1.19c-.65-.45-1.72-.56-2.35,.07l-1.15,1.15c-.63,.63-.42,1.62,0,2.3l1.19,1.98c-.22,.45-.42,.91-.57,1.4l-2.08,.46c-.77,.14-1.61,.82-1.61,1.71v1.62c0,.9,.85,1.45,1.62,1.63l2.11,.53c.15,.45,.33,.88,.53,1.29l-1.19,1.98c-.42,.67-.63,1.66,0,2.3l1.15,1.15c.63,.63,1.71,.52,2.35,.07l1.88-1.2c.51,.27,1.04,.49,1.59,.67l.52,2.08c.18,.77,.73,1.62,1.62,1.62h1.62c.9,0,1.57-.84,1.71-1.61l.47-2.12c.51-.16,1-.37,1.47-.62l1.83,1.17c.65,.45,1.72,.56,2.35-.07l1.15-1.15c.63-.63,.42-1.62,0-2.3l-1.13-1.88c.23-.45,.42-.91,.58-1.39l2.11-.53c.77-.18,1.62-.73,1.62-1.63v-1.62c0-.9-.84-1.57-1.61-1.71Zm-.01,3.22c-.07,.05-.2,.12-.36,.16l-3.01,.75-.28,.85c-.13,.38-.29,.78-.49,1.16l-.41,.8,1.59,2.65c.1,.16,.15,.31,.16,.39l-1.07,1.07c-.1-.03-.22-.07-.28-.11l-2.67-1.71-.83,.43c-.4,.21-.81,.38-1.22,.51l-.89,.29-.67,3.02c-.03,.16-.12,.29-.18,.34h-1.46c-.05-.07-.12-.2-.15-.36l-.75-2.99-.87-.27c-.45-.14-.89-.33-1.32-.56l-.84-.44-2.68,1.71c-.11,.07-.23,.12-.33,.12l-1.07-1.04c.01-.08,.06-.22,.15-.37l1.66-2.77-.4-.8c-.19-.37-.33-.73-.45-1.08l-.28-.85-2.98-.75c-.19-.04-.32-.11-.39-.16v-1.51h0s.16-.09,.27-.11l3.06-.68,.28-.9c.11-.36,.27-.75,.48-1.16l.4-.8-1.64-2.74c-.1-.16-.15-.31-.16-.39l1.07-1.07c.1,.03,.22,.08,.28,.11l2.72,1.74,.83-.44c.43-.23,.87-.41,1.32-.55l.86-.27,.74-2.96c.04-.19,.11-.32,.16-.39h1.51s.09,.16,.12,.28l.68,3.08,.88,.29c.42,.13,.83,.31,1.24,.52l.83,.43,2.62-1.67c.11-.07,.23-.12,.33-.12l1.07,1.04c-.01,.08-.06,.22-.15,.37l-1.61,2.68,.41,.8c.22,.43,.39,.84,.52,1.24l.28,.9,3,.67c.18,.03,.32,.14,.35,.2v1.44Zm-11.38-5.65c-2.7,0-4.89,2.19-4.89,4.88s2.2,4.88,4.89,4.88,4.89-2.19,4.89-4.88-2.2-4.88-4.89-4.88Zm-.01,8.13c-1.79,0-3.25-1.46-3.25-3.25s1.46-3.25,3.25-3.25,3.25,1.46,3.25,3.25-1.46,3.25-3.25,3.25Z"/></g></g></svg>