<?xml version="1.0" encoding="UTF-8"?><svg xmlns="http://www.w3.org/2000/svg" xmlns:xlink="http://www.w3.org/1999/xlink" viewBox="0 0 26 8.59"><defs><style>.e{fill:url(#d);}</style><linearGradient id="d" x1="-561.61" y1="-1378.24" x2="-540.74" y2="-1378.24" gradientTransform="translate(-571.83 1368.6) rotate(45)" gradientUnits="userSpaceOnUse"><stop offset="0" stop-color="#ff2747"/><stop offset="1" stop-color="#1e1f19"/></linearGradient></defs><g id="a"/><g id="b"><g id="c"><path class="e" d="M6.71,4.36c0,.18,.07,.34,.19,.46,.12,.12,.28,.19,.46,.19l11.21-.04c.36,0,.65-.29,.65-.65s-.29-.65-.65-.65l-11.21,.04c-.36,0-.65,.29-.65,.65Zm1.2,2.93l-3.67-.06c-.78,0-1.52-.31-2.07-.86s-.86-1.29-.86-2.07c0-1.62,1.32-2.93,2.92-2.93l3.7-.06c.78,0,1.52,.31,2.07,.86,.19,.19,.34,.41,.47,.63h1.44c-.21-.59-.55-1.12-.98-1.55C10.15,.48,9.09,0,7.92,0l-3.69,.06C1.9,.06,0,1.96,0,4.3c0,1.17,.47,2.23,1.24,3,.77,.77,1.83,1.24,3,1.24l3.66,.06c1.79,0,3.23-1.05,3.85-2.62h-1.46c-.52,.82-1.34,1.32-2.38,1.32ZM24.76,1.3c-.77-.77-1.83-1.24-3-1.24l-3.66-.06c-1.86,0-3.43,1.19-4,2.86h1.43c.5-.92,1.45-1.55,2.56-1.55l3.67,.06c.78,0,1.52,.3,2.07,.86,.55,.55,.86,1.29,.86,2.07,0,1.62-1.32,2.93-2.92,2.93h-3.72c-.78,0-1.52-.31-2.07-.86-.14-.14-.28-.25-.39-.41h-1.47c.21,.52,.54,.95,.93,1.34,.77,.77,1.83,1.24,3,1.24h3.71c2.34,0,4.24-1.9,4.24-4.24,0-1.17-.47-2.23-1.24-3Z"/></g></g></svg>