<svg width="50" height="32" viewBox="0 0 50 32" fill="none" xmlns="http://www.w3.org/2000/svg">
<path d="M0 31.54V19.72C0 19.72 17.34 19.79 19.02 0.77002H30.49V15.39C30.49 15.39 36.71 12.03 37.62 0.84002H49.51V31.26H37.69V25.25C37.69 25.25 30.63 31.61 18.74 31.54L18.81 25.18C18.81 25.18 10.63 32.24 0 31.54Z" fill="black"/>
<path d="M25.1001 18.32C25.1001 18.32 30.8301 11.61 30.4801 0.77002V15.39C30.4801 15.39 29.6401 16.93 25.1001 18.33V18.32Z" fill="#4D4D4D"/>
<path d="M37.6899 25.2401C37.6899 25.2401 49.1599 16.1501 49.5099 0.840088C49.5099 10.7001 49.5199 31.2701 49.5199 31.2701H37.6899V25.2401Z" fill="#4D4D4D"/>
</svg>
