<?xml version="1.0" encoding="UTF-8"?><svg xmlns="http://www.w3.org/2000/svg" viewBox="0 0 10.5 15.27"><defs><style>.d{fill:#1e1f19;}</style></defs><g id="a"/><g id="b"><g id="c"><path class="d" d="M3.82,0H.48c-.26,0-.48,.21-.48,.48V14.79c0,.26,.21,.48,.48,.48H3.82c.26,0,.48-.21,.48-.48V.48c0-.26-.21-.48-.48-.48Zm-.48,14.32H.95V.95H3.34V14.32ZM10.02,0h-3.33c-.26,0-.48,.21-.48,.48V14.79c0,.26,.21,.48,.48,.48h3.33c.26,0,.48-.21,.48-.48V.48c0-.26-.21-.48-.48-.48Zm-.48,14.32h-2.37V.95h2.37V14.32Z"/></g></g></svg>