<?xml version="1.0" encoding="UTF-8"?><svg id="a" xmlns="http://www.w3.org/2000/svg" viewBox="0 0 200 218.68"><defs><style>.b{fill-rule:evenodd;}</style></defs><path class="b" d="M114.01,122.68s.43,3.28,.72,4.2c.1,1.93-.34,1.83-.43,3.04,4.25-.68,3.33-2.85,5.79-2.65,.05,.68,.24,3.47-1.01,4.15-.29,.14,.24,.63,.14,.72-.48,.48-1.26,.34-1.59,.77-.72,1.11-.77,2.27-.43,2.36,.58,.24,2.22-.68,2.94-3.04,.58-1.45,2.03-5.11,1.93-6.85,0-.48-.77-.48-.87-.58-1.78,.29-2.94,.53-5.02,1.11-.39,.87-.77,2.27-1.06,2.17-.34-.1,.92-3.33,.53-4.01-.39-.68-.92-1.4-1.64-1.4h0Zm-4.39-18.91s1.3,1.54-.19,1.4c-4.1,.43-5.21,3.76-5.74,6.71-.05,.39-1.16-.34-1.5-.68-.05,0,.05-1.06,.05-2.22,0,0-1.5-.63,1.45-2.41-.58-1.88,.72-1.54,1.5-1.88,.14-1.78,2.27-1.59,2.46-1.98,.53-.92-.29-1.35-.29-1.35-2.89-2.51,5.55,1.54,8.06,3.96,4.24,.48,1.88,1.01,.72,1.06-.24,0-1.06-.63-2.32-.68-.48-1.45-2.65-1.93-4.2-1.93h0Zm-8.1,11.19h-1.88s-2.12-1.98-2.51-4.82c-.1-.92-.34-1.88-.39-1.88-.39,0-3.23-.1-3.52-.24-.67-.29-1.59-1.93-1.59-2.51l-.43-2.12c.72,.05,1.4,.1,1.83,.1,1.01,1.16,4.53,2.89,5.88,2.27,.24,.14,1.69,1.11,1.69,1.21,.43,1.21-.19,3.18,.1,3.18l.82,.77v4.05h0Zm-10.03-5.74c-1.06,1.16-2.75,3.57-3.04,3.52-1.88-.39-2.6,.58-3.28,.39,.53-1.21,2.27-3.38,1.88-3.67l-4.34,4.87c.97,.53,1.59,1.78,2.8,.29,.77,.29,1.35,1.49,2.36-.24h.14c.72,.34,1.35,1.01,2.32-.1,.1-.1,.96-2.07,1.69-3.62l-.53-1.45h0Zm-6.42,1.59c-.29-.19-1.16-.09-1.4-.63-.24-.58,1.5-2.17,.97-1.98-1.11,.19-2.07,1.21-2.22,.19,1.01-1.45,4.58-3.71,3.76-4.58l-5.35,4.78c0,.1-.87,.87,1.74,1.16,.14,.48-.97,.82-.72,1.35,.1,.19,1.59,.34,1.25,.77-.92,1.21-.43,1.74-.19,1.45,.92-.87,.43-.34,2.17-2.51h0Zm11-7.09c-.63,.34-2.07,.19-2.51-1.3-.63-.67-1.06-.24-.96-1.25,.63-1.16,2.22-1.25,3.18-1.78,1.3-.72,.14-1.06,2.22-1.16,.43,0,.92,.1,1.4,.34,2.31,0,2.22,1.45,2.51,2.32,1.3,1.21,.48,2.56,.48,2.61l.05,.63-.63-.05s-1.3-.1-1.3-.14c-.39,.58-1.5,1.3-2.32,1.11l.19-1.3c.24-.24,.58-.1,1.06,0,.34,.19,.14-.63,.24-1.3,.24-.1,.34-.34,.43-.39-.96,0-2.07-1.74-2.99-.19-.1,.34-.34-.68-.63-.68,.58-.82,1.98-1.35,2.85,0h1.98c-.24-.72-1.3-2.03-1.98-2.12-.39-.19-1.35-.39-2.07-.14-.34,.24-.63,.68-1.06,.87-1.74,.05-1.78,1.06-2.22,1.4,.58,1.74,2.51,1.25,2.8,1.74,.43,.72,.43,0-.72,.82h0Zm-12.3,27.06c-1.35,.87-.1,.14-.63,.29-.05,0-2.03,1.45-1.83,2.94-1.06,.19-1.45,1.69-1.59,1.74-.67-1.64-.24-2.85,.1-3.72,0-.39,.39,.87,.77,.58,.29-.1,.24-3.14,.24-3.47,.1-.67-.1-3.18-.1-4.24,0-1.5-.87-6.42,3.04-5.98,2.56,.29,3.14,1.79,4.53,3.14,.05,.43-.19,.87-.68,.87-.58-.48-1.69-.58-1.78,.05-.34,1.93-.24,7.24-1.11,7.24-.19,0-.05-3.57-.43-4.15-.24-.53-.63,.14-.63-.1l.1,4.82h0Zm13.27,5.88c0,.82,7.48,5.16,7.48,7.82,0,.68-2.65-.24-2.94-.96-.05-.24,.68-.77,.43-1.01-.14-.19-.43-.53-.67-.72-.19-.19-1.54,.43-1.54,0,.14-1.88-3.81-4.29-5.16-5.21l-.05-.67c.87-1.26,.97-2.75,.58-4.15,.58-.63,.63-2.22,.63-2.89,1.25-.24,2.94-.05,4.73-.05l.82,1.4c.19,.43-3.76,.14-3.76,.39,0,.34,1.93,.29,1.93,1.06,0,.87-2.46,3.09-2.56,4.01-.14,.82,.1,.87,.1,1.01h0Zm2.99-8.92c-.77,.53-4.15,.19-4.25,.19,0-.58-.34-2.65-.34-3.28,2.36,1.3,3.28,.14,3.47,.58l1.11,2.51h0Zm.29-4.97s-.53-1.26-.29-.82c0,.1-1.01-.34-1.88-.82l-5.84-12.3c1.5,.96,3.14,1.21,4,1.3,.34,0-.24,3.42,.87,4.49,.39,.34,1.69,.34,1.88,.34,0,.58-.68,1.45-.68,2.07h1.4c0,1.11,2.17,3.52,2.17,4.15l-.24,.77h1.11c-1.3,2.22,.82,7.04,1.3,8.88,0,.24-.53,.39-.53,.58,.1,.48,.39,.39,.58,.39,1.88,.19,3.47,2.61,2.8,2.56l-2.75-.14-4.44-9.45c-.19-.53-.05-1.4,.53-1.98h0Zm-5.64-2.75c.68,.29,1.4,1.06,2.32,1.16l1.45,3.18c-.43,.19-1.3,.29-2.89-.34-.53-1.59-.39-2.03-.87-4h0Zm.39-2.7l1.59,3.14c-.87-.05-2.65-1.4-1.59-3.14h0Zm6.32,13.12l1.74,3.81-1.54,.05c-.43,0-.72-1.3-.29-2.17,.05,0-.24-.68-.24-1.01s.34-.58,.34-.68h0Zm-8.78-22.1c-1.59,1.25-2.94,1.4-3.43,.48-.34-.87-1.83-4.2-1.88-6.13-.72-.48-.68-2.46-.39-3.52,.05-.15,.77-.53,.82-.63,.63,0,1.3,1.4,1.3,1.88-1.25,.43-.92,1.59-1.3,2.27,0,1.25,1.3,2.51,1.59,2.94,.68,0,3.28,2.22,3.28,2.7h0Zm6.9,1.45c.14,.39,.53-.19,.63,.29,.1,.58-.72,3.18,.39,3.09,.58-.05,.68,.77,.53,1.3l-1.25-.05c-.72-1.88-.77-3.14-.77-4.39l-1.25-.24c-.34-.05-.63-.82-.43-1.45,.48,0,.58-.24,.53-.63-.05-.29-.19-.68-.19-1.3l1.3,.14c.63,1.11,.53,2.41,.53,3.23h0Zm8.25,31.89l-3.28-7.09h-1.06l3.52,7.77c.29,.77-1.3,1.21-1.16,1.21,1.88,0,2.61,1.59,1.88,1.59-4.44,0-6.9,1.06-8.92-1.01-6.37-6.37-8.97,.82-9.89,2.99l-.96,.39c0-1.16-1.5-4.44-1.45-5.02,.43-4.87,1.5-6.99,6.32-9.41,4.68-2.36,1.06-11.72,1.25-14.23-2.94,0-5.16,2.75-5.55,4.1-1.01,2.85,.53,6.95,.19,8.83-.14,.58-2.07,.1-1.98,1.16,.92,6.42-3.96,9.02-.82,10.9,.1,.05,0,1.45,0,1.45-1.45,.34-1.3,2.17-1.35,2.17-.72,0-4.29-1.54-2.8-5.35,0-1.16-1.45-1.35-1.74-1.54-.58,.39,1.5,1.2-.05,4.05,.05,.92,.68,2.51,2.22,3.86,1.54,1.4,8.2,1.59,9.5-.82,1.21-2.32,3.09-3.33,5.35,.29,1.25,1.25-2.8,1.3-2.41,2.17,2.17,1.01,.14,2.03,2.27,2.7,.39-.92,1.64-.92,1.64-.92l-2.61-1.69c1.45,.29,3.47-.29,4.15-1.49,1.93,.67,4.63,1.49,7.53,.53-1.25,.68-1.98,1.35-1.21,1.83,1.69-.39,1.83,.39,3.23,.77,.05-.72,.92-.53,1.25-.87,.77,.1-3.67-.77-2.94-.77,.14,0,3.04-.53,3.57-1.45,7.24,1.45,7.14,.05,8.88-.82,.53-.24,2.36-2.65,2.32-3.43,.14,.1-.82-.72-.92-.14-.14,.77-1.79,2.36-1.98,2.27l-.53-.29c-.63-.48,.19-1.88,1.64-3.33,.39-.34,.82-.34,.82-.34,.05-.53-.39-.72-.96-.53,0,0-3.52,1.54-2.56,3.23,.34,.63-.43,.97-.43,.97-.1-.53,0-.82-1.5-2.22-.82-2.8-2.22-6.37-2.99-8.63-.43-2.32-.72-2.89-.72-4.92,.53,0,.77-.72,1.01-1.11,.77-.92,.63-1.78,.63-2.41-1.06-3.04-.19-3.23-1.06-4.58-.19-.53,.19-.34,.29-.77,.1-.43,2.12,.68-.24-2.27-4.05-.68-6.7-3.09-9.55-5.26-.67,1.78-2.07,4.29-.34,6.13l9.21,1.06c.05,1.01-.39,1.01-.43,1.26-2.7-.14-5.36,0-8.59-.58,.24,3.14,.92,4.78,1.59,8.54l3.62,.82c1.06,3.09,2.51,3.33,2.36,5.21,.53,.77,.58-.1,1.21,.87,2.65,5.93,1.45,7.48,2.75,6.85l.58,.82c-.34,.68-.63,.87-.14,1.83-.58-.24-2.51-1.45-5.16-1.59,.53-1.54,2.89-1.06,2.65-1.83-.05-.48-.1-2.46-4.34-4.2-.1-.1,.58,1.11,.67,1.54l-1.25-.24c.53,.53,.53,1.11-.24,1.01h0Zm-16.84-35.94l-1.45-.72-1.16-2.46,.53-1.35,2.07,4.53h0Zm-3.57-7.77l-.77,.87-1.06-2.27,1.01-.39,.82,1.78h0Zm22.87,14.28l.29,3.14c-2.36-1.3-3.86-1.98-6.13-3.18,.68-3.96,1.69-6.51,7-6.32-.34-.92-.58-.34-.34-1.25,1.3,.34,2.65,.87,2.46,1.4,2.08-.14,5.31,1.88,4.73,3.47-.05,.29-4.49-.82-4.34,0,.39,.1,2.7,.29,2.99,.29,.92,0,2.75,6.08,2.46,6.37-.53,.53-.19,.87-.72,1.26-.87,.63-2.46,.77-2.7-.87-.14-.43-.48-.96-.96-1.54-.67-.58-2.99-1.16-3.42-2.12-.58-1.3-.14-2.56-.14-3.81-1.11-.1-1.16,2.65-1.16,3.18h0Zm2.7,5.64l.19,.87c-3.52-.14-7.86-4.05-9.16-5.31,0,0,.1-1.01,.24-.72,1.21,1.01,7.67,4.63,8.73,5.16h0Zm1.45-1.21c-.48,.48-2.36,.14-2.99-1.11,0,0-.14-1.16-.14-1.83,1.3,.63,2.65,1.74,3.14,2.94h0Zm-20.36-1.64l-.43,.34c-1.74-1.06-1.06,.72-2.36-.48l1.16-3.52,1.64,3.67h0Zm20.6-5.11c.14,.19,.14,.53-.05,.53-.34,.14-.72,.1-1.06-.1-.1-.1-.1-.48,.1-.58,.29-.1,.72,0,1.01,.14h0Zm-16.35-8.1c.14-.1,.48-.1,.63-.1,.1,.1,.05,.48,0,.53-.14,.14-.43,.05-.53-.05-.14-.14-.19-.24-.1-.39h0Zm34.59-57.7c2.46,0,4.78,.29,6.95,.72,.29,.1,.43-.39,0-.63v-1.21c.48,.05,.53-.58,0-.63,.87-2.32,2.36-5.5,2.46-7.09,.1-2.36-1.59-4.25-5.02-4.78-.63-.53-1.74-.43-2.03,.29-.05,.43-.72,.29-.72-.05,0-.29-.48-.82-.48-.82,.63-.48,.96-1.35,.96-2.12,0-.53-.29-1.69-1.59-1.98l-.1-1.21,1.59,.14v-1.21l-1.59,.19,.1-1.59h-1.16l.19,1.59-1.64-.19v1.21l1.64-.14-.1,1.21c-1.25,.29-1.54,1.45-1.54,1.98,0,.77,.39,1.64,.96,2.12,0,0-.53,.53-.53,.82,0,.34-.67,.48-.77,.05-.14-.72-1.35-.82-1.98-.29-3.33,.53-5.16,2.36-4.97,4.78,.19,1.69,1.64,4.78,2.41,7.09-.67,.1-.39,.72,.05,.63,0,.43,0,.82,0,1.21-.58,.1-.43,.72,0,.63,2.08-.39,4.44-.72,6.9-.72h0Zm-32.85,174.54c-.92-.14-4.34-2.99-5.21-4.97,0,0,2.17-4.58,2.17-5.21,0,0-1.4,.77-3.33,.53-.92-3.14-1.06-6.66,2.07-18.53l3.43-12.74c-.1,4.34,0,29.86,0,35.36h1.74c0-5.45,.19-30.97,.05-35.36l3.42,12.78c3.18,11.91,2.94,15.39,2.08,18.53-1.93,.19-3.33-.53-3.33-.53,0,.63,2.12,5.21,2.12,5.21-.87,1.98-4.2,4.82-5.21,4.92h0Zm0-49.83c-1.88-1.3-4.97-8.39-5.4-9.17-.39-.77-1.16-1.69-1.21-3.52,3.04,.63,4.68,3.42,6.61,7.19,1.93-3.67,3.62-6.51,6.61-7.14,0,1.83-.82,2.7-1.16,3.47-.43,.82-3.57,7.96-5.45,9.17h0Zm0,7.53c-2.85-1.54-6.8-12.35-6.22-16.26,.72,.14,2.07,6.42,5.07,8.44,.24,1.45,.43,3.33,1.16,4.63,.77-1.3,.97-3.18,1.16-4.63,2.99-1.98,4.44-8.25,5.11-8.35,.58,3.91-3.33,14.71-6.27,16.16h0ZM161.24,39.56c.19-.34-.1-.63-.53-.34-.77,.63-1.45,1.83-1.54,3.42,0,.48,.77,.39,.77-.19,0-1.69,1.06-2.51,1.3-2.89h0Zm-3.81-13.02c6.56,1.64,10.81,.96,11.24,5.16,.43,4-6.71,8.39-3.09,9.89,1.26,.48,4.2-.1,4.2,.43,0,.24-.24,.39-.72,.48-2.56,.39-3.67,.05-3.96-.05-2.85-.87-1.35-3.71-.24-5.4,.53-.77,2.46-3.23,2.65-4.63,.63-4.63-9.21-3.81-13.22-5.74-4.1-1.88-7.24-3.09-8.15-.58-1.06,2.36,3.14,9.79,3.14,12.45,0,1.98-.87,3.96-2.85,5.16-.63,.34-5.5,1.4-5.5,.87,0-.58,3.52-.87,4.39-1.25,1.16-.53,2.8-1.54,2.85-4.78-.19-2.22-1.45-4.29-2.27-6.18-1.01-2.36-1.88-5.02-1.06-6.95,.68-1.5,2.17-2.22,4.58-1.78,2.46,.43,1.4,1.16,8.01,2.89h0Zm-8.59,6.08c1.3,2.46,2.32,5.07,.72,9.26,.14,.34,.58,.19,.87-.19,4.78-6.27-2.89-12.35,.92-15.15-.39-.14-.72-.43-1.78,.67-.19,.19,0-2.12-.19-1.59-.1,.19-.77,1.16-.82,1.74,0,.53-.43-.14-.58-1.74-1.25,.87-.48,4.53,.87,6.99h0Zm-40.67,2.89c4.34,5.02,12.45,8.73,15.1,8.93l.63,.05c.29-.05,.29-.34,0-.48-6.9-2.51-11.38-5.84-13.27-7.77-.77-.53-2.27-1.11-2.46-.72h0Zm.77,3.14c1.69,1.21,3.18,1.74,4.58,2.27,.1-.1,.67,0,.39-.1-2.8-1.59-5.31-2.89-6.9-5.35-.67-.48-1.78-.87-1.83-.53,0,.72,2.17,2.41,3.76,3.71h0Zm-2.7,.77c3.33,2.17,9.6,4.34,12.45,5.21l.92,.05c.34-.24,.05-.43-.19-.48-5.02-1.74-13.17-5.35-15.39-9.17-.63-.39-2.7-.48-2.61,0,.05,.68,1.4,2.07,4.82,4.39h0Zm1.3,169.66c2.75-.53,2.89-5.4,2.22-9.6-.96-5.98-5.55-14.52-7.14-23.69-1.74,6.13,6.99,20.94,4.92,33.29h0Zm8.73-3.76c.82-.92,3.04-1.64,5.69-1.78,2.8-.1,2.22-3.47,1.88-4.82-.92,.82-1.11,1.98-3.47,2.12-1.88,.05-4.92-1.98-5.11-5.79l1.4-.09c-2.85-7.53-10.37-10.76-12.93-19.97-.34,3.14,3.04,12.21,4,14.86,2.75,6.8,3.09,8.93,3.23,13.32,.29,4.44-.82,7.91-6.03,7.04,1.98,6.08,12.16,5.64,13.99-1.4-.68,0-2.27,.19-3.38,.72-.87-1.4-.14-3.23,.72-4.2h0Zm1.64-9.94c.82-.19,2.03-.53,2.22-2.07,.24-2.17-3.57-5.69-6.9-8.39-3.04-2.56-5.69-4.78-6.95-6.27,.48,3.33,10.56,10.9,11.63,16.74h0Zm-2.85-10.28l-7.53-6.17c-1.5-1.74-4.34-4.49-2.85-7.43,.72,3.09,3.18,6.9,9.12,9.79,0,.48-1.01,.63-1.64,.63,2.07,1.69,8.49,4.44,10.28,6.22,2.99,2.65,5.55,5.98,5.74,10.18,.19,4.63-.92,7.43-5.26,8.93,4.97,0,6.17-4.15,6.27-8.88,0-4.63-3.71-8.88-5.69-10.47-3.91-3.09-6.66-3.71-9.55-5.69,.77-1.2,7.62,1.5,12.54,5.93,1.4,1.35,4.05,2.46,5.02,2.36,2.65-.39,3.23-2.27,2.8-4.49,1.78,.14,2.65,1.88,2.85,3.38,.24,1.4-.14,4.39-3.28,5.79,5.36,.63,7.19,7.91,2.61,10.71-.43,.29,0,1.59-.39,1.98-1.35-.82-1.35-6.9-4.53-6.9,.58,3.43-.87,7.43-3.04,9.07-2.32,1.69-6.46,.87-8.92-2.36-1.06,.24-2.99,.67-3.52,.53,.39-3.81,4.53-3.62,7.04-4.1,2.7-1.16,1.79-4.92,.97-7.04-.97,1.64-1.74,2.89-3.86,2.94-2.17,.05-3.81-2.61-3.96-3.67,2.7,.24,4.44-.1,4.78-3.18,.29-2.99-4.78-6.8-5.98-8.06h0Zm-.19-5.5c-1.35-.19-2.7-.82-3.38-.82,1.3,1.25,4.78,2.65,6.56,2.65-.58-1.69-1.78-1.69-3.18-1.83h0Zm-6.9-4c1.78,2.32,4.97,1.98,7.52,3.23-.24-2.41-7.77-3.28-7.86-10.08-1.06,1.83-2.12,3.91,.34,6.85h0Zm-1.3-10.81c-.48,1.54-1.4,2.89-1.16,6.18,1.3-5.31,4.63-3.91,3.67-8.88-1.2,1.26-2.03,1.26-2.51,2.7h0Zm11.05,7.24c.72,1.16,2.32,1.78,3.38,1.78l-.29,1.11c6.17-.1,8.15-7.96,5.11-12.78-1.35-2.41-6.85-4.24-9.94-1.64,4.2,.34,8.92,3.18,8.92,5.45-.05,3.57-2.94,6.03-7.19,6.08h0Zm-10.32-13.17c0,.58-.48,3.13-.48,3.76,.68-.63,4-3.71,4.05-6.66h-1.01c-.53,1.64-.77,3.38-1.3,3.47-.29,0,.29-3.23,.19-3.52-.29,0-1.11-.19-1.35,0,0,.72,0,1.49-.1,2.94h0Zm2.94,5.26c3.18-3.28,6.08-5.55,6.7-8.15h-1.54c-.82,1.74-3.14,3.62-3.33,3.76-.82,.39,1.25-1.74,2.12-3.76h-1.74c-1.74,2.22-2.8,5.26-2.22,8.15h0Zm14.04-25.09c-.19,2.17,2.85,4.87,5.26,5.59-2.17-4.15-3.33-10.18-.43-14.09-1.21,.63-1.98,.77-2.65,.77-.24,1.74-.63,5.26-.72,6.61-.14,0-.58-4.49-.48-6.61-1.16-.77-1.06-.48-1.06-.14l.1,7.87h0Zm-.39,10.51c3.76,1.06,7.04,4.01,10.81,.48-5.11-.43-7.72-2.85-7.57-5.35-1.11-.87-2.51-2.03-3.04-3.28l.1,2.17c0,1.45,1.59,3.62,2.27,4.34-1.06-.05-2.27-.72-2.36-2.03,.1,1.93,.1,2.61-.19,3.67h0Zm-7.77,9.89c4.39-1.93,6.56-1.25,11.67,1.93,.29-2.27-2.85-5.07-6.08-6.9l-1.25,.72c1.3,.29,3.96,2.8,3.72,2.99-1.54-.24-3.18-2.07-4.63-2.65-.39,.05-1.4,.39-1.78,.29-.19,1.01-1.45,3.28-1.64,3.62h0Zm11.87,9.26c-.43,2.7-1.11,4.49-.48,5.74,2.56-1.25,3.14-12.64-1.4-13.07,1.35,1.69,2.32,4.68,1.88,7.33h0Zm6.17,.53c-.24,2.17,1.06,3.04,2.17,3.28-.1-1.45-.77-3.71-.58-5.26,.34-1.59,1.06-2.7,.14-3.91-.34,.68-.67,3.18-.96,3.18-.1,0-.63-.87-.72-.63-.24,.24,.19,1.3-.05,3.33h0Zm-3.76,2.41c-.1,1.2,.72,2.51,2.56,3.71,.82-2.07,.19-6.42,.39-8.54,.24-2.22-1.35-2.8-1.69-2.8,.53,1.64,.53,3.28,.24,3.42-.24,.05-.43-3.71-2.32-4.29,1.16,2.56,.82,7.28,.82,8.49h0Zm-1.4-9.94c.92,.97,4.1,1.16,5.64,3.62,.97-3.57-.77-5.21-2.17-6.56-.48-.24-1.78-.48-2.03-.24,1.4,.96,1.98,3.18,1.74,2.99-.87-.68-1.93-2.51-2.89-2.99-.58-.14-1.16-.34-1.83-.34,.97,.92,1.11,2.22,1.54,3.52h0Zm-1.3-6.61c-.29,.39-2.99-.68-4.54-2.36l-.53,.87c.1,.58,1.98,2.12,2.7,2.51,2.6,1.35,4.63,2.32,9.65,1.25-4.92-1.11-7.96-6.37-11.1-6.95l-.34,1.16c0,1.3,4.25,3.43,4.15,3.52h0Zm8.2,2.8c1.59,1.01,1.69,3.33,1.45,3.43-.29,.05-1.06-2.41-2.27-3.18-.53,0-1.21,.24-1.5,.43,.82,1.01,4.05,4.05,4.05,7.38,1.83-1.59,1.74-5.5,1.4-7.28-.87-.48-1.93-.68-3.14-.77h0Zm3.62-.29c-.1-2.36-3.23-6.95-7.53-5.35,.68,1.21,4.29,2.17,3.96,2.61-.29,.24-3.28-1.06-5.21-2.46-.63,.14-1.74-.34-2.7-.53,.05,.39,3.95,5.26,11.48,5.74h0Zm.14,5.89c-.53,1.69-.82,2.46-1.98,3.23-.34,.29-.43-1.21-.82-.82-.97,3.91,.48,7.28,2.89,8.1,.48-1.16-1.06-4.39,0-6.13,1.11-1.83,1.74-3.86,2.03-6.61,.24-1.83,.14-3.96-1.83-4.63,0,1.59,.29,4.2-.29,6.85h0Zm2.22,1.59c.29,2.27,2.51,3.47,2.61,3.52,.05,.43-1.88,.19-3.14-2.27-.19,.82-1.11,1.69-.82,2.22,1.16,1.83,5.79,2.94,7.14,.58-2.12-.34-3.33-2.61-3.33-4.44,.05-1.78,.43-2.94,.48-5.93,.05-3.04-3.96-7.62-9.16-7.19,2.65,.82,3.76,3.96,4.29,4.05,1.59,.58,2.41,2.12,2.65,3.04,.53,2.51-.29,5.02-.72,6.42h0Zm-10.85-71.49c-1.83,2.65-4.44,2.36-6.75,2.32v5.84h3.76c2.89-.19,4.15-5.84,2.99-8.15h0Zm-.72,1.93c1.3,.34,.63,4.05-1.98,4.24-.67-.34,.53-.96,1.06-2.12,.77-1.25,.48-2.07,.92-2.12h0Zm16.6,8.49c.48-.82,3.62,.96,3.14,1.74-.43,.58-3.67-.92-3.14-1.74h0Zm-11.82,21.37c-.43-.19-.39-4.34-.14-8.01-.43-.39-.58-.43-1.06-1.26-.48,.63-.96,1.16-1.54,1.45,.05,2.8-.67,7.62-.63,10.37,.05,1.54,2.56,3.57,3.76,3.47,1.21-.05,3.62-2.7,3.62-3.57-.14-2.61-.87-5.64-1.3-9.02-1.11,0-1.4-.48-1.69-.77-.1,2.89-.48,7.48-1.01,7.33h0Zm5.16,1.59c0,1.54,4.53,2.61,5.64,2.27,1.01-.29,2.32-3.42,1.88-4.53-1.4-3.67-2.8-5.89-3.91-8.59-.72-.14-1.35-.34-1.78-.58,.58,4.63,1.93,8.01,1.25,8.1-.68,.14-1.79-4.53-2.36-7.19-.53,1.01-1.11,1.3-1.93,1.93,.39,2.85,.63,5.98,1.21,8.59h0Zm6.56-11c-.87,.14-1.35,.14-1.98,0,.97,1.88,2.41,5.07,4.05,8.49,.34,.53,3.43,1.54,4.58,.87,1.11-.72,1.59-3.81,1.3-4.73-1.59-2.46-4.39-5.93-5.69-7.28-.24,.67-.43,1.35-1.21,2.12,.96,1.78,3.09,5.16,2.61,5.35-.43,.24-2.32-2.65-3.67-4.83h0Zm8.73-7.28c-.34,.68-.58,.63-.82,.92,1.5,.77,3.33,2.12,6.7,3.86,1.35,.68,5.55-.05,6.32-1.01,.87-.82-.53-4.58-1.93-4.87-2.56-.68-8.44-1.3-10.23-1.54-.14,0,.24,.77,.19,1.74,2.07,.58,7.04,1.88,6.85,2.32-.14,.39-4.78-.68-7.09-1.4h0Zm-4.53,2.07c-.48,.05-.34-.09-1.21-.05,0,.87-.14,1.45-.14,1.74,2.17,2.61,4.92,6.56,5.93,7.86,.53,.63,4.58,.53,5.31,0,.72-.72,.48-4.87-.39-5.64-2.94-2.51-4.15-2.94-6.75-4.53-.14-.1-.58,.15-1.35,.19,1.21,1.69,5.5,5.5,4.97,5.79-.58,.19-4.78-4-6.37-5.35h0Zm-8.83,34.25c1.74,0,5.55-2.61,5.26-4.2-.72-4.05-1.64-7.62-2.22-10.08-1.3-.19-1.83-.43-3.04-.87,.1,4.49,.53,9.65,0,9.6-.53-.14-1.4-5.35-1.64-10.18-.77,.39-1.98,1.45-2.46,2.22-.29,2.61-.34,7.38-.29,10.03,0,.87,2.46,3.47,4.39,3.47h0Zm7.19-3.33c.63,2.41,3.91,3.57,5.98,3.04,2.12-.43,3.91-3.67,3.18-5.55-2.12-5.4-3.57-8.2-5.16-12.45-1.3,.05-2.65-.14-3.57-.43,1.93,6.22,4.05,11.87,3.38,12.11-.77,.19-3.14-7.62-4.44-11.72-.43,1.59-1.64,3.14-2.22,3.86,.68,3.38,2.27,8.78,2.85,11.14h0Zm10.47-2.65c1.11,2.46,6.61,2.46,7.86,1.64,1.3-.82,2.32-4.87,1.35-6.32-3.14-4.53-6.85-8.25-9.45-12.16-1.21-.1-1.98-.1-3.33-.58,1.64,3.62,7.82,12.64,7.09,13.03-.58,.48-5.74-7.67-7.77-11.43-.29,1.54-.68,2.41-1.21,3.18,2.22,5.36,3.04,7.14,5.45,12.64h0Zm10.52-5.5c1.69,1.78,7.57,1.88,8.83,.72,1.3-1.16,.92-5.45-.48-6.61-4.82-4.15-11.82-8.68-16.79-12.16,.29,.87,.53,2.07,.48,2.75,2.65,3.67,10.76,9.99,10.37,10.56-.39,.19-7.48-5.69-10.56-8.83-.29,.53-.48,1.45-1.35,1.74,3.28,4.44,8.3,10.37,9.5,11.82h0Zm8.1-7.67c2.22,1.64,7.72,1.25,8.68,.34,.92-.87,.24-4.63-3.57-6.51-3.71-1.83-12.45-4.97-15.1-6.32-.67,.63-1.11,.43-1.88,.67,4.34,2.32,12.4,7.24,11.63,7.72-3.52-1.83-9.12-5.11-12.64-7.28-.67,0-1.69,.14-2.8,.14,4.92,3.47,10.95,7.48,15.68,11.24h0Zm3.28-12.4c-.24,.58-9.41-2.03-12.78-3.04,.05,.53,.14,1.54,.14,1.93,2.65,1.74,12.01,4.78,15.39,6.27,4.25,1.74,8.64-.29,9.17-1.25,.63-1.01-1.74-5.69-7.14-6.7-5.55-1.54-11.63-2.65-18.77-3.09,.39,.63,.63,1.01,1.06,1.5,3.28,.87,13.17,3.57,12.93,4.39h0Zm-46.65-49.83c-2.07-.1-2.65,.58-1.11,.87,2.07,.43,4,.82,5.45,3.76,.34,.68,1.11,.68,1.64,.05,1.4-3.62-3.96-4.53-5.98-4.68h0Zm-2.07-12.11v-1.3c0-.29-2.27,.19-3.18,.24,1.3,.34,1.93,.39,3.18,1.06h0Zm-27.5,6.9c2.03,2.46,9.94-1.59,11.38-4.97l-2.17,.05c-1.64,1.83-3.86,3.86-9.21,4.92h0Zm-3.71,15.53c2.08-4.82,10.37-13.41,11.43-15.97-1.25-.43-5.16,5.31-4.87,4.73,.77-1.25,.48-2.03,1.83-3.47-3.47,.87-6.56,8.01-8.39,14.71h0Zm2.12,17.56l-.43,3.23h1.3c-.58-.82-.34-2.61-.87-3.23h0Zm10.66-.48c-.39,.05,.48,2.27,.48,3.57,.67,0,.92,.1,1.59,.1-.1-1.21-1.54-2.36-2.08-3.67h0Zm-4.49,.48c-.87,0,.29,1.88,.29,3.23h1.45c.1-1.5-1.3-2.07-1.74-3.23h0Zm-9.7-4.82c-.87,0,.53,6.71,.53,8.06h1.78c-.14-1.83-2.22-5.07-2.32-8.06h0Zm7.14,2.7c-.87,0-.14,4-.14,5.35h2.03c.24-1.45-1.78-3.47-1.88-5.35h0Zm-1.83,0c-.82-1.59-.63-4.44-1.16-5.55-.67,2.89,.19,8.39,1.11,10.9h.82v-8.39c-.77,.14-.19,1.78-.77,3.04h0Zm-4.87-6.37c1.93-5.45,4.25-11.92,7.38-16.55-1.88,1.3-8.92,10.13-7.38,16.55h0Zm.68,3.86c.14,1.54,.39,3.47,1.64,5.4,.29-3.18,.29-10.18,.96-15.05-2.51,4.53-2.85,8.15-2.6,9.65h0Zm3.28-7.72c0,1.16,.43,5.07,.92,6.27,1.21-6.9,3.96-9.7,4.15-14.13-1.88,1.11-3.18,5.89-3.71,7.04,.05-2.75,1.78-5.98,1.5-8.63-2.32,2.41-2.85,5.79-2.85,9.46h0Zm2.32,5.98c0,1.83,1.4,5.36,2.12,5.6-.19-3.18,1.79-7.81,.77-11.77-.43,1.78-.77,3.57-1.3,4.87-.72-1.01,.82-6.42,.82-6.95-1.78,1.3-2.41,6.51-2.41,8.25h0Zm9.94,2.99c.19,.43,1.4,3.04,4.39,3.04,1.59,0,3.57-.96,4.1-2.65-4.29,1.59-7.57-3.28-8.68-5.6,0,.48,.19,1.83,.19,2.22,.43,1.74,4.2,3.96,3.91,4.29-.29,.34-2.61-1.21-4-2.85,0,.39,.1,.97,.1,1.54h0Zm-6.71,0c-.14,3.33,1.74,3.42,2.17,6.61h1.5c-.1-4.87-2.8-5.5-2.94-9.89-.63,0-.72,2.12-.72,3.28h0Zm5.31,0c-1.06-1.45-1.83-4.68-2.51-7.67-1.78,6.56,0,8.83,2.75,11.19,2.7,2.36,1.5,3.09,1.69,3.09h6.51c-5.93-2.12-7.43-5.02-8.44-6.61h0Zm49.35-57.36c.29,1.25,.1,1.83-.82,2.41,.19-1.16,.19-2.07-.43-2.8,0,.53-.67,2.8-.67,3.42-.1-2.7-.92-3.04-1.74-4.05,.34,1.01,.58,2.46,.19,3.96-.43-1.4-1.69-3.91-2.03-3.57,1.93,6.03-1.45,7.48-2.22,10.76-.96,4.2,4.63,6.13,3.18,10.08-.29,.77,.39,.77,1.16,.24,3.18-4.39-1.16-4.78-1.16-7.67,0-.63,.14-.87,.14-1.3,.48-1.35,.48,.29,1.5,.87,.96,.58,2.75,1.11,4.25,.87,.72-.14,.67-.58,.05-.58-6.66-.48-4.24-5.79-.92-9.26,1.4-1.79,.43-3.14-.48-3.38h0Zm-14.33-7.86c4.25,2.51,8.39,3.43,12.98,4.29,1.16,.24,1.64-.14,.39-.53-4.58-1.16-6.13-7.38-11.43-7.48-.14,0-.67,.39-.87,.43-.39,.14,1.78,.43,1.21,.72l-2.46,.14c-.39,0-.43,.53-.63,.53,1.01-.14,1.11,.34,1.49,.77-.58,0-2.46-.24-2.8,.05-.19,.1-1.54,.58-1.06,.58,.58,0,2.32,.1,3.18,.48h0Zm-10.32,38.4c-1.59-.58-4.34-.19-5.45,0-1.16,.29-1.54,1.4-.82,1.25,1.01-.19,6.17-.29,10.76,4,2.12,1.83,5.84,.1,7.91-2.22,.72-.43,.29-1.16,.1-1.06-4.49,1.11-8.83-.72-12.49-1.98h0Zm-.77,79.65c.53,.67,1.25,1.64,2.6,1.69,1.45,0,2.99-.77,3.38-1.69,.19-.48,1.06-.87,.82,.1-.24,1.01-2.41,2.84-4.2,2.75-1.74-.05-2.65-1.45-3.23-2.7-.34-.82,.1-.82,.63-.14h0Zm-6.85-13.36c.53-.24,1.16,1.4,2.56,1.4,1.79,0,2.12-1.98,2.7-2.03,.58,0-.19,1.45-.43,1.74-.43,.53-1.3,1.3-2.41,1.3-1.01,.1-2.94-2.12-2.41-2.41h0Zm-5.84,2.65c.58,0,3.67-.77,4.15-2.32,.1-2.75,.14-6.32,0-9.84-.72,.24-1.45,.39-1.83,.58-.72,2.8-1.59,6.56-1.93,6.56-.87-.14,.39-5.31,.77-7.09-.39-.39-1.35-1.4-1.54-2.17-.67,.29-2.22,5.69-2.22,7.38v3.13c.72,1.01,1.74,2.08,2.8,1.79,1.16-.34,1.93-.63,2.03-.72,.48-1.01,.63-2.22,.96-2.27,.39-.1,.19,2.32-.48,2.85-.72,.58-1.88,1.16-2.56,1.06-.77,0-2.03-.53-2.75-1.25v.96c0,.82,1.93,1.35,2.6,1.35h0Zm23.78,11.24c.34-.24,.82,.19,1.4,.58,.67,.39,1.78,.58,2.85,.29,1.16-.43,1.3-1.11,1.54-1.59,.24-.68,.19-1.5,.63-1.5,.34-.1,.48,.43,.34,1.21-.1,.77-1.11,2.65-2.46,2.94-1.54,.34-2.89-.19-3.67-.92-.63-.53-1.01-.77-.63-1.01h0Zm10.71-2.89c.43-.29,.96-.1,1.74,.24,.77,.29,1.93,.34,2.89-.24,1.06-.58,1.4-1.64,1.4-2.56,0-.72-.19-1.16,0-1.45,.29-.24,.67,.1,.82,.87,.14,.92-.1,3.14-1.21,4-1.11,.87-2.8,.63-3.71,.34-.87-.29-2.27-.92-1.93-1.2h0Zm23.44-21.32c.39-.34,1.06-.1,1.74-.05,.72,.1,3.52-.29,4.05-1.01,.53-.72-.14-1.88-.68-2.36-.43-.39-1.25-.96-.96-1.2,.34-.24,1.5,.29,2.03,.96,.53,.63,1.59,2.36,.72,3.33-.87,.92-4.68,1.3-5.6,1.16-.82-.24-1.5-.43-1.3-.82h0Zm-5.5,7.72c.34-.34,1.01-.1,1.59,.1,.72,.1,3.18,.1,3.76-.58,.58-.72,.1-1.54-.05-2.03-.24-.53-.77-1.54-.53-1.69,.39-.19,.92,.48,1.3,1.3,.43,.87,1.21,2.51,0,3.38-1.06,.92-4,.67-4.87,.39-.82-.29-1.59-.53-1.2-.87h0Zm-7.24,7.86c.29-.34,.92-.14,1.64,.05,.58,.19,3.04,.19,3.62-.58,.58-.68,.43-2.32,.24-2.75-.19-.53-.72-1.54-.43-1.69,.34-.24,.92,.43,1.25,1.3,.43,.82,.92,3.33-.24,4.15-1.16,.92-4.05,.63-4.92,.39-.82-.29-1.59-.53-1.16-.87h0Zm-22.82-9.46c.39-.43,1.69,.53,2.99,0,1.4-.72,.77-2.56,1.35-2.89,.58-.34,.48,3.09-.68,3.71-1.88,.53-4.05-.43-3.67-.82h0Zm-7.86,3.14c.53-.48,2.22,1.11,3.71,.68,1.35-.39,.92-2.46,1.5-2.56,.63-.1,.19,3.14-1.16,3.62-1.4,.43-4.63-1.3-4.05-1.74h0Zm14.62-7.53c.63-.43,1.88,.48,2.99-.34,1.16-.82,.19-3.28,.63-3.42,.43-.19,1.45,3.13,.19,4.15-1.06,1.01-4.44,.1-3.81-.39h0Zm1.4-21.66c-.14-1.21-2.32-3.42-3.67-3.38-1.83,.14-3.71,.53-5.6,1.11-.77,.24-1.06-.58-.1-.92,1.98-.58,3.96-1.01,5.64-1.45,2.07-.58,3.18-5.31,2.7-6.18-.48-.82-3.81-1.83-5.4-1.11-1.64,.72-2.85,2.27-5.02,4.53-.68,.68-1.16,.05-.43-.77,1.93-2.46,7.48-6.85,9.12-9.74,1.69-1.88,1.21-8.97,.34-9.74-3.91,4.58-13.36,11.82-15.82,17.22-.34,.87-.58,3.81,.14,5.31,.48,1.06,8.06,3.81,3.28,10.61-5.16,7.28-14.33,4.39-14.81-.14-.92,0-2.7,.05-3.52,.05v3.47c0,.19,.87,.24,.72,.58-.19,.92-.72,1.21-.72,2.07v9.07c.96-.97,2.12-7.72,2.8-9.6,.05-.34,1.16-.72,.97,.58-.14,.68-.82,2.85-1.45,5.21-.34,1.26,1.54,3.18,2.36,3.38,1.78,.34,4.29-1.21,4.44-2.89,.19-1.4,.19-1.69,.24-4,0-1.21,.87-.68,.87,0,0,.96-.19,2.36,0,4.05,.14,1.3,2.41,3.18,3.72,2.89,1.21-.24,2.94-2.12,2.75-3.18-.24-1.4-.63-2.51-1.21-4.24-.19-.48,.58-.97,.96-.34,.34,1.11,1.16,3.52,1.45,4.29,.43,.97,4.1,1.26,4.78,.82,1.25-.77,2.17-4.15,1.35-4.82-1.21-1.21-2.56-2.61-3.09-3.23-.39-.39,.24-.72,.58-.48,.82,.77,1.59,1.74,3.57,3.09,.53,.34,4.68-.19,5.31-1.11,.58-.92-.48-4.92-1.93-5.4-1.4-.39-3.23-.63-4.39-.87-.58-.1-.67-.97,.1-.87,1.01,.24,2.89,.53,4.58,.63,2.75,.14,4.53-3.18,4.39-4.49h0Zm13.56,6.42c.19-1.83-1.98-3.81-3.33-3.81h-9.74c-.34,.68-.96,1.5-1.69,1.88,3.18,0,9.7,.53,9.41,1.06-.34,.53-8.01-.39-11.38,.05,.68,.77,.87,1.21,1.3,2.17,3.14,.29,7.19,1.16,10.61,1.5,1.21,.1,4.68-.96,4.82-2.85h0Zm1.69-10.08c-.48-1.5-3.57-2.8-5.16-2.36-2.7,.67-6.8,1.98-10.85,2.94,.68,.19,.96,1.01,1.5,1.74,3.09-.29,8.88-1.25,9.07-.67,.14,.72-5.6,1.25-8.63,1.69-.1,.29-.14,1.54-.34,2.07,3.91,0,7.43,0,10.61-.53,2.41-.48,4.29-3.28,3.81-4.87h0Zm-16.06-22.82c.19,1.5,.19,2.8,0,4.39,3.04-2.41,4.73-6.32,5.6-6.37,.87-.05-2.94,5.35-5.69,8.06-.19,1.64-.72,2.22-1.11,3.04,4-2.8,6.9-5.21,9.26-8.06,3.04-3.67,2.7-8.73,.72-12.74-2.56,5.11-3.42,7.04-8.78,11.67h0Zm14.18,2.8c-1.06-1.35-6.46,1.3-7.53,1.83-3.04,1.98-7.77,5.6-11.38,8.78,.77-.29,1.98,0,2.75,.14,.1,.14,8.83-6.37,9.26-5.84,.53,.63-8.1,6.37-8.06,6.37,.58,.1,1.3,1.01,1.64,1.54,2.17-.87,5.74-2.41,8.97-4.73,3.23-2.22,5.35-6.56,4.34-8.1h0Zm2.56,10.37c-.87-1.69-4.34-2.12-5.98-1.4-1.54,.63-7.09,3.86-9.6,4.78,.14,.48-.29,1.59-.34,1.98,1.06,0,8.39-3.96,9.07-3.33,.58,.48-5.07,2.89-9.41,4.68-1.06,1.4-.58,1.01-1.74,2.32,.29,.24,.24,.14,.72,.43,2.46-.82,8.92-2.56,12.45-3.52,3.62-1.01,5.6-4.39,4.82-5.93h0Zm-52.73-30.68h-2.32c-1.69,2.75-4.39,3.96-4.92,6.75,2.94-1.64,3.71-2.27,7.24-6.75h0Zm-5.16,6.99c-.92,.77-2.75,4.15-4.01,4.87,.63-1.78,2.27-3.62,1.98-4.2-1.54,.53-5.31,3.76-4.78,10.57-.63,.68,7.57-8.92,6.8-11.24h0Zm-3.28,13.89c.53-3.18,1.25-5.98,2.61-9.26-6.56,5.4-3.76,15.77-3.14,19.25,.1-.1,2.08-12.25,2.65-11.82-1.45,8.1,2.03,15.53,1.74,13.94-.43-5.4-.96-13.7,1.93-18.38-3.95,1.16-5.79,7.53-5.79,6.27h0Zm9.6-16.69c-5.98,2.99-5.64,5.6-7.67,12.25,3.18-2.99,9.75-7.09,12.11-10.47-2.51,1.93-6.51,4.25-7.96,4.68,.58-1.93,1.06-3.91,3.52-6.46h0Zm-5.6,2.46c1.35-2.99,5.55-5.5,8.01-7.96-2.99,.92-8.44,.87-11.05-.24,4.63-1.01,18.62-2.17,22.09,2.12l1.83-3.47c1.25-2.36-3.43-.68-6.9-.68-9.6,.05-16.26,.68-19.25-3.47h27.64c1.4,0,.87,.53,.87,1.06-.58,.43-1.25,1.5-1.45,2.46-.19,1.21-1.74,3.52-3.14,5.21-4.29,3.96-7.28,4.73-7.91,4.53,1.5-1.93,2.65-3.33,2.89-4.78-3.81,3.76-6.13,5.4-9.99,7.72,0-1.78,5.31-7.53,6.95-9.17-3.43,1.45-8.35,5.31-10.61,6.66h0Zm22.77-10.18c-3.57,7.57-8.06,9.17-12.25,11.1-2.89,2.22-10.03,5.74-10.03,15.58,3.47-11.58,10.37-12.93,16.35-17.8,4.34-3.47,6.66-6.32,8.3-9.41,.1-.29,.39-1.3,0-1.54-1.06-.63-1.54,.29-2.36,2.07h0Zm-2.99,7.43c-2.94,2.94-6.76,4.63-10.13,7.28,0,.29,.68,1.06,1.35,.39,5.84-4.44,12.35-7.04,15.05-6.99,2.8,.14,4.05,.77,5.55,2.56,1.54-1.4,1.93-4.68,1.3-6.85-.72-2.22-6.08-6.46-7.53-3.38-.67,1.54-3.67,5.16-5.6,6.99h0Zm35.07,43.56c.63,.87,1.25,1.69,1.25,2.36,4.34,0,14.33,.58,14.47,1.35,.24,.63-8.97-.19-14.67,.19-.58,.68-1.5,1.21-1.88,1.64,2.94,.29,11.63,1.78,16.6,3.04,5.02,1.21,9.99-2.99,9.84-4.92-.14-1.93-3.33-3.86-9.07-3.81-4.05,0-9.36,.24-16.55,.14h0Zm2.75-7.33s.1,1.54-.19,2.36c3.57-.53,14.33-1.93,14.57-1.45,.29,.68-10.81,2.03-15.24,2.8-1.06,1.01-1.93,1.88-2.94,2.12,1.83,.53,15.92,.43,19.39-.19,3.47-.77,9.41-5.55,8.92-7.48-.43-2.12-5.6-1.93-9.55-1.64-3.96,.43-10.81,2.27-14.95,3.47h0Zm14.18-50.8c.87-6.8-2.17-10.9-3.81-10.18-1.49,.82-3.76,7.04-5.06,8.97-1.3,1.93-7.09,13.56-12.06,18.57,.63,1.3,1.11,2.32,.92,4.15,5.93-6.08,11.29-17.66,12.4-17.8,.96-.19-6.9,14.47-12.25,19.97-.39,2.41-1.3,4.25-2.32,5.98,9.89-6.95,21.27-22.87,22.19-29.67h0Zm-.82,30.2c.24,.53-9.94,6.46-14.13,9.36,.72,.39,.92,.68,1.3,1.54,6.42-2.46,14.71-6.42,17.75-8.78,3.86-3.09,5.07-8.54,3.72-9.6-1.3-.92-4.49,.82-5.74,1.25-7.28,3.23-16.31,9.12-21.56,14.57,.53-.19,2.07-.14,3.18,.24,5.98-3.23,14.91-9.12,15.49-8.59h0Zm-16.6,17.7c.63,.14,1.59,.53,2.41,1.54,4.39-.48,17.17-4.29,19.44-5.31,2.94-1.3,8.92-6.8,7.19-8.3-1.78-1.5-7.96-1.25-12.01,.82-3.47,1.59-9.07,3.47-12.88,5.36-.19,1.35-.82,2.56-1.54,3.23,4.29-1.21,16.16-5.84,16.79-5.45,.53,.34-12.2,5.45-17.51,6.75-.68,.68-1.25,.97-1.88,1.35h0Zm1.64-17.27c.1,.92-.39,2.17-.72,3.57,11.34-7.57,17.85-12.54,20.16-15.05,3.33-3.71,3.09-11.82,1.11-12.49-1.93-.68-3.96,3.57-7.33,6.85-3.33,3.28-7.91,7.62-10.18,9.6-2.65,2.22-4.1,3.33-8.44,6.9,1.45-.39,3.42-1.01,4.54-.29,5.21-2.75,13.41-11.05,13.99-10.52,.39,.39-8.54,8.39-13.12,11.43h0ZM99.97,36.52c.82,.05,1.5,.05,1.64-.19,.1-.1-.77-1.3-1.06-1.3-.19-.05-.14-.05-.58-.05-.43-.05-.34-.05-.58,.05-.24,0-1.11,1.21-.97,1.3,.05,.19,.77,.19,1.54,.19h0Zm-32.9,7.62c-2.46,0-4.73,.19-6.9,.72-.29,.1-.39-.43-.05-.63v-1.3c-.39,.1-.48-.48,0-.63-.82-2.27-2.32-5.4-2.36-6.99-.19-2.41,1.54-4.29,4.92-4.82,.63-.53,1.78-.48,2.03,.29,.1,.43,.77,.34,.77-.05,0-.29,.43-.82,.43-.82-.58-.48-.87-1.3-.87-2.07,0-.58,.24-1.69,1.5-2.03l.1-1.21-1.59,.19v-1.25l1.59,.19-.1-1.59h1.16l-.1,1.59,1.59-.19v1.25l-1.59-.19,.05,1.21c1.25,.34,1.54,1.45,1.54,2.03,0,.77-.34,1.59-.92,2.07,0,0,.48,.53,.48,.82,0,.39,.67,.48,.77,.05,.1-.77,1.4-.82,2.03-.29,3.33,.53,5.16,2.32,4.87,4.82-.14,1.69-1.54,4.73-2.36,6.99,.68,.19,.39,.82,0,.72v1.16c.53,.05,.39,.77,0,.68-2.17-.43-4.44-.72-6.99-.72h0Zm-34.4,120.84c1.54,0,2.75,1.21,2.75,2.75s-1.21,2.7-2.75,2.7c-1.45,0-2.65-1.2-2.65-2.7s1.21-2.75,2.65-2.75h0ZM15.07,124.61c1.25,0,2.36,1.01,2.36,2.41,0,1.35-1.11,2.41-2.36,2.41-1.35,0-2.46-1.06-2.46-2.41s1.11-2.41,2.46-2.41h0Zm-5.16-8.49c-.24-.05,1.64-1.78,1.74-1.78,.34-.53,1.45-.1,1.64-.24,.72-.77,0-2.12-.77-2.56-.29-.14-.82,.72-1.16,.72-.77-.24-3.14-1.3-3.62-1.3-.24,.43-1.16,2.7-1.59,3.43-.24,.29-1.25-.05-1.35,.29-.19,.87,.19,2.32,1.35,2.32,.24,0,.63-1.01,1.25-.92,.1,0,2.61-.14,2.51,.05h0Zm25.04,56.73c1.5-.48,2.12-3.62,1.01-3.23-.34,.05-.19,1.01-1.5,1.54-1.35,.58-2.07-.1-2.51,.1-1.16,.58,1.64,2.07,2.99,1.59h0Zm-3.47-8.15c1.21-.39,1.69-3.09,.82-2.7-.29,.05-.14,.77-1.3,1.35-1.11,.39-1.78-.1-2.03,.05-1.11,.48,1.3,1.74,2.51,1.3h0Zm-14.67-32.9c1.21-.43,1.79-3.09,.87-2.7-.24,.1-.24,.87-1.35,1.26-1.11,.39-1.74-.05-2.12,.14-.92,.43,1.35,1.69,2.61,1.3h0Zm28.7,64.64c-.72,.29-1.98,.43-2.75,.05-.43-.14-.68,.58-.48,.82,.29,.34,4.44,3.52,4.78,3.33,.39-.24,.58-.24,1.01-.58,.43-.14,.34-2.89,.19-5.21-.24-.58-1.25-.58-1.11-.19-.19,.96-.82,1.45-1.64,1.78h0Zm-6.71-156.88c-.19-.39,.1-.72,.53-.39,.72,.63,1.45,1.83,1.5,3.42,0,.53-.77,.34-.72-.19-.05-1.69-1.16-2.51-1.3-2.85h0ZM10.39,124.41c.29,0,.63,.34,.63,.68s-.34,.63-.63,.63c-.34,0-.63-.29-.63-.63s.29-.68,.63-.68h0Zm5.64-2.7c.39,0,.72,.34,.72,.72,0,.34-.34,.58-.72,.58-.29,0-.58-.24-.58-.58,0-.39,.29-.72,.58-.72h0Zm-.39,2.07c-.39,.29-1.01-.43-2.22,.1-1.21,.48-1.01,1.54-1.25,1.59-.19,.1-.48-1.59-.48-2.07l2.51-1.21c.77,.58,.97,1.01,1.45,1.59h0Zm-9.5-1.45c2.22-.97,3.67,.24,4.92,.63-.24-.63-1.16-1.35-1.83-2.03-1.21,.43-2.46-.97-2.65-2.12l-2.22-.43c-.58,1.16,.14,3.14,1.78,3.96h0Zm11.05-4.82c-2.32,.97-2.36,2.85-2.94,4-.29-.58-.19-1.78-.19-2.7,1.11-.63,.92-2.46,.24-3.33l1.16-1.93c1.16,.43,2.12,2.17,1.74,3.96h0Zm56.88,59.53c0,.82-.1,.72-.43,1.26,.05,.29,.58,.34,.82,.1,.43-.53,.63-1.06,.43-1.74,0-.24-.77-1.26-.82,.38h0Zm-3.47,2.08c-.14,0-1.01,.48-.24,.63,1.35,0,2.51,0,4.82,.29,.68-.19,2.07-1.11-1.3-.82-.63,.1-1.79-.19-3.28-.1h0ZM42.57,26.48c-6.51,1.64-10.81,.97-11.24,5.16-.39,4,6.75,8.39,3.09,9.94-1.25,.43-4.2-.1-4.25,.43,0,.24,.29,.29,.82,.43,2.56,.43,3.67,.05,3.91,0,2.85-.92,1.4-3.76,.29-5.4-.58-.82-2.51-3.23-2.75-4.68-.58-4.58,9.26-3.76,13.31-5.69,4-1.93,7.19-3.14,8.15-.68,1.06,2.41-3.18,9.84-3.18,12.49,0,2.03,.87,3.96,2.85,5.16,.63,.34,5.55,1.45,5.55,.87-.05-.53-3.57-.87-4.44-1.25-1.16-.53-2.75-1.59-2.85-4.78,.19-2.17,1.5-4.29,2.27-6.13,1.01-2.41,1.93-5.07,1.11-6.95-.68-1.54-2.17-2.22-4.58-1.83-2.46,.43-1.45,1.16-8.06,2.89h0Zm8.64,6.03c-1.35,2.51-2.36,5.11-.77,9.31-.1,.39-.53,.19-.87-.19-4.78-6.27,2.89-12.35-.87-15.1,.39-.19,.68-.53,1.74,.67,.19,.14,0-2.17,.19-1.69,.1,.24,.82,1.21,.87,1.78,0,.53,.43-.14,.53-1.69,1.3,.82,.53,4.49-.82,6.9h0Zm40.62,2.99c-4.34,5.02-12.4,8.73-15.05,8.93h-.63c-.39,0-.34-.34,0-.43,6.85-2.51,11.34-5.89,13.17-7.82,.77-.48,2.22-1.11,2.51-.68h0Zm-.82,3.04c-1.69,1.25-3.18,1.78-4.58,2.32-.05-.05-.72,.05-.34-.1,2.75-1.59,5.26-2.89,6.9-5.35,.63-.48,1.74-.87,1.79-.53-.05,.77-2.17,2.46-3.76,3.67h0Zm2.75,.82c-3.43,2.22-9.6,4.34-12.4,5.21l-.92,.05c-.34-.19-.1-.43,.19-.48,4.92-1.74,13.12-5.31,15.24-9.12,.68-.43,2.75-.48,2.65-.05-.05,.68-1.4,2.07-4.78,4.39h0Zm-1.35,169.66c-2.75-.48-2.89-5.4-2.17-9.55,.96-6.03,5.55-14.57,7.04-23.69,1.78,6.03-6.95,20.94-4.87,33.24h0Zm-8.64-3.76c-.82-.87-3.04-1.64-5.74-1.74-2.8-.14-2.17-3.52-1.88-4.82,.92,.77,1.16,1.98,3.47,2.12,1.88,.05,5.02-2.03,5.06-5.84l-1.35-.09c2.8-7.48,10.32-10.76,12.88-19.93,.34,3.09-3.04,12.16-4.05,14.76-2.65,6.9-2.99,8.97-3.18,13.36-.29,4.44,.92,7.91,6.08,7.04-1.98,6.08-12.11,5.69-13.99-1.4,.72,0,2.32,.19,3.33,.72,.87-1.4,.24-3.23-.63-4.2h0Zm-1.69-9.89c-.87-.19-1.98-.58-2.17-2.12-.29-2.12,3.57-5.64,6.8-8.39,2.99-2.61,5.69-4.82,6.99-6.22-.53,3.33-10.56,10.9-11.63,16.74h0Zm2.7-10.32l7.62-6.17c1.5-1.74,4.34-4.44,2.8-7.43-.72,3.09-3.14,6.95-9.07,9.84,0,.48,1.11,.53,1.69,.53-2.17,1.74-8.49,4.53-10.32,6.32-2.94,2.61-5.5,5.98-5.64,10.18-.19,4.63,.87,7.38,5.21,8.93-4.97,0-6.17-4.2-6.17-8.93,0-4.63,3.67-8.88,5.6-10.47,3.96-3.09,6.71-3.71,9.5-5.64-.77-1.25-7.57,1.45-12.49,5.93-1.4,1.3-4.05,2.41-5.02,2.27-2.61-.34-3.23-2.22-2.8-4.39-1.78,.14-2.61,1.83-2.85,3.33-.24,1.4,.24,4.44,3.28,5.84-5.35,.58-7.14,7.86-2.61,10.66,.43,.29,0,1.59,.39,2.03,1.4-.82,1.35-6.95,4.58-6.95-.58,3.47,.82,7.48,3.09,9.12,2.17,1.69,6.37,.82,8.78-2.41,1.11,.24,3.09,.63,3.57,.53-.39-3.76-4.49-3.57-7.09-4.1-2.61-1.11-1.74-4.87-.92-7.04,.92,1.69,1.74,2.89,3.86,2.99,2.22,.05,3.81-2.65,3.96-3.67-2.7,.19-4.39-.19-4.82-3.18-.29-3.04,4.82-6.8,5.89-8.1h0Zm.29-5.45c1.35-.24,2.75-.87,3.38-.87-1.25,1.3-4.68,2.61-6.46,2.61,.53-1.59,1.74-1.59,3.09-1.74h0Zm6.9-4.05c-1.74,2.32-4.97,2.03-7.43,3.23,.19-2.41,7.62-3.33,7.77-10.08,1.06,1.83,2.17,3.91-.34,6.85h0Zm1.3-10.76c.53,1.54,1.4,2.85,1.21,6.18-1.35-5.31-4.63-3.96-3.71-8.93,1.21,1.21,1.98,1.3,2.51,2.75h0Zm-46.41,27.26c.39,4.05-3.81,3.67-3.86,3.38,0-.05,1.59-.24,2.27-2.07,.53-1.54-.1-4.24-.48-4.2-.29,.05-.48,2.22-2.36,1.45,.43-.53,.96-3.47,.43-4.05-.14-.29-.48,.92-1.83,.92,.43-.63,.34-1.59,0-2.41,1.21,0,1.69-1.74,1.69-2.36,.92,.97,4,7.86,4.15,9.36h0Zm-3.43,2.17c-1.98,.14-4.58-1.83-5.69-2.56,.24,.05,.19-.53,.58-.29,3.14,1.54,2.8,.92,3.76,0,2.17-.58,2.8,1.45,1.35,2.85h0Zm-3.28-2.94c-1.01,.1-2.03-1.78-6.17-1.83-1.59-1.21-.87-2.94,.43-2.7,.39,.29,.87,.39,1.16,.72,2.12,3.04,3.28,1.06,4.15,1.06,.92-.19,1.54,0,1.54,.97,0,.87-.19,1.64-1.11,1.78h0Zm-2.17-3.18c-1.88,0,.34-1.83-5.4-2.7-1.45-.39-.63-5.21,1.01-4.44,.58,.19,.58,.48,.87,1.69-1.3,.19-.58,.92-.48,1.83,2.17,.34,1.98,1.54,4.2-.29,.68,0,1.88,.43,1.88,1.45,0,.92-.14,2.46-2.07,2.46h0Zm1.3-12.35c0,.87-2.17,3.47-2.03,4.49,.14,1.11,.72,1.88,.87,2.56,.05,.19-1.35,1.35-1.59,1.01-2.07-1.74-4.34-8.88-2.99-9.55,1.64,.48,3.14,0,3.96-1.54,1.35,.48,1.79,3.04,1.79,3.04h0Zm36.08,.19c.43,1.11,2.41,2.7,2.17,3.81-.14,1.21-1.83,.87-3.14,.87-4.49-.43-7.81-.1-8.68,0-1.54,.14-.19-1.59-.82-1.64-.58-.05-1.21,2.07-1.21,2.07l-.92-1.88-.72,2.17s-.53-1.74-1.06-1.59c-.58,.1-.24,1.79-.68,2.03-.43,.34-.72-1.64-1.25-1.35-.58,.43-.39,2.12-.82,2.36-.43,.19-.43-1.78-.82-1.69-.43,.24-.43,2.51-.92,2.56-.48,0-.39-1.88-.77-1.88-.43,0-.58,2.46-.97,2.46-.29,0-.58-1.64-1.16-1.3,.43,2.8-4,5.16-5.79,6.47-.96-1.21-1.5-2.36-1.98-3.86,1.93,0,5.64-.58,5.5-1.45-.05-.77-1.64-.43-1.74,.1-1.69,.72-5.02,.87-5.36-1.06,.72,.34,4.1,.19,4.05-.34-.14-.58-2.85,.43-4.44-2.03,.39-1.59,.58-1.88,.19-3.14l-1.54-.43c0,.58-2.07,1.35-1.64,1.98,1.25,.87,1.45,1.69,.63,3.04-.92,.19-2.36,.77-2.7,0-.39-.77-.43-1.88-.34-2.6,.14-.82,1.74-3.13,2.51-4.34,.72-1.25,3.47-.14,4.73,3.14,.82,2.07,3.86,3.38,6.42,2.94,5.02-.97,11.14-3.43,13.56-5.74,.43,.14,.58,.43,.87,1.01,1.5-.48,3.18-1.64,3.96-3.43,.72,1.35,.87,1.35,1.88,2.46,1.16-.58,.82-1.64,1.25-2.7,1.21,.68,1.21,1.98,1.74,2.99h0Zm6.95-3.91c-.77,1.16-2.32,1.78-3.43,1.69l.29,1.2c-6.13-.14-8.1-8.01-5.11-12.83,1.4-2.41,6.85-4.24,9.94-1.64-4.2,.39-8.92,3.18-8.92,5.5,.1,3.52,2.94,5.93,7.24,6.08h0Zm10.23-13.22c0,.53,.48,3.18,.48,3.71-.68-.53-4-3.67-4-6.61,.19,0,.67,0,1.01,.05,.53,1.54,.72,3.33,1.25,3.47,.24,0-.29-3.23-.19-3.62,.29,0,1.06-.1,1.45,0,0,.82-.05,1.54,0,2.99h0Zm-2.94,5.21c-3.18-3.18-6.03-5.5-6.66-8.06,.34,0,1.06,0,1.59-.05,.72,1.74,3.04,3.67,3.28,3.76,.77,.43-1.3-1.74-2.22-3.71h1.79c1.74,2.22,2.75,5.21,2.22,8.06h0Zm-13.94-25.04c.14,2.17-2.85,4.87-5.31,5.55,2.22-4.1,3.28-10.08,.53-13.99,1.11,.58,1.93,.77,2.56,.77,.24,1.69,.63,5.21,.77,6.61,.1-.05,.58-4.53,.43-6.66,1.11-.72,1.06-.48,1.06-.1l-.05,7.82h0Zm.39,10.57c-3.81,.97-7.04,4.01-10.85,.39,5.11-.39,7.72-2.85,7.62-5.31,1.06-.87,2.46-1.98,2.94-3.28v2.17c0,1.4-1.59,3.57-2.32,4.34,1.11,0,2.32-.68,2.36-1.98-.1,1.83-.05,2.56,.24,3.67h0Zm7.77,9.89c-4.39-1.98-6.66-1.25-11.72,1.93-.24-2.27,2.89-5.07,6.13-6.95l1.21,.72c-1.25,.34-3.96,2.8-3.67,3.04,1.5-.29,3.14-2.07,4.58-2.7,.43,.05,1.45,.34,1.83,.29,.14,1.01,1.45,3.33,1.64,3.67h0Zm-11.92,9.17c.43,2.7,1.16,4.58,.48,5.74-2.51-1.16-3.14-12.59,1.4-12.98-1.35,1.69-2.32,4.68-1.88,7.24h0Zm-6.18,.63c.19,2.07-1.06,3.04-2.17,3.23,.14-1.4,.82-3.71,.58-5.21-.34-1.59-1.06-2.7-.14-3.91,.39,.63,.68,3.18,1.01,3.18,.05,0,.63-.87,.67-.68,.24,.24-.14,1.3,.05,3.38h0Zm3.86,2.36c.05,1.25-.82,2.51-2.61,3.71-.87-2.12-.24-6.42-.43-8.59-.19-2.17,1.35-2.7,1.74-2.75-.58,1.69-.58,3.28-.34,3.38,.34,.1,.53-3.62,2.36-4.2-1.21,2.51-.82,7.24-.72,8.44h0Zm1.3-9.94c-.92,1.01-4.05,1.11-5.6,3.62-1.01-3.57,.72-5.16,2.12-6.61,.48-.19,1.78-.43,2.03-.19-1.4,.96-1.98,3.23-1.74,3.04,.87-.68,1.93-2.56,2.89-3.04,.53-.14,1.11-.34,1.88-.29-.92,.92-1.16,2.17-1.59,3.47h0Zm1.35-6.56c.29,.39,2.94-.72,4.58-2.46l.48,.97c-.14,.58-2.03,2.03-2.75,2.51-2.56,1.3-4.63,2.27-9.6,1.25,4.87-1.16,7.91-6.37,11.05-6.99l.29,1.21c0,1.3-4.2,3.38-4.05,3.52h0Zm-8.25,2.75c-1.59,1.01-1.64,3.38-1.4,3.43,.29,.1,1.06-2.36,2.22-3.14,.53-.1,1.21,.19,1.54,.43-.82,.96-4.15,4.05-4.15,7.33-1.74-1.54-1.69-5.5-1.4-7.28,.97-.48,1.98-.68,3.18-.77h0Zm-3.57-.34c.05-2.32,3.23-6.9,7.48-5.31-.63,1.26-4.25,2.17-3.96,2.65,.29,.24,3.33-1.06,5.16-2.56,.68,.19,1.83-.24,2.8-.48-.05,.39-4,5.26-11.48,5.69h0Zm-.19,5.93c.53,1.74,.87,2.46,1.98,3.23,.39,.29,.48-1.26,.87-.82,.92,3.91-.48,7.33-2.89,8.15-.53-1.21,1.06-4.44-.05-6.18-1.06-1.78-1.74-3.86-1.98-6.61-.29-1.79-.14-4.01,1.78-4.58-.05,1.54-.29,4.15,.29,6.8h0Zm-2.17,1.59c-.29,2.27-2.51,3.43-2.61,3.57-.1,.34,1.83,.14,3.09-2.36,.19,.82,1.16,1.74,.87,2.22-1.21,1.93-5.89,2.99-7.19,.63,2.07-.34,3.33-2.56,3.33-4.39s-.43-2.99-.53-6.03c0-3.04,4.05-7.62,9.21-7.14-2.61,.87-3.76,3.96-4.29,4.1-1.59,.53-2.36,2.07-2.65,3.04-.53,2.46,.29,4.97,.77,6.37h0ZM11.55,117.71l-1.3,.63c-1.21-1.64-3.23-.1-3.33-.92-.05-.77,1.98-1.3,3.52-.48,.24-1.69,1.93-2.7,2.51-2.22,.43,.43-1.98,1.25-1.4,2.99h0Zm1.01,4.2c-.63,.34-1.45,.14-1.74-.43l-1.06-2.17,2.85-1.45,.82,2.36c.19,.58-.14,1.4-.87,1.69h0Zm18.38,38.59c1.35,1.59-1.78,2.99-2.32,1.01-2.07-6.42-12.69-28.8-11.58-29.28,1.01-.48,9.79,22.14,13.89,28.27h0Zm37.97-67.01c1.78,2.7,4.39,2.41,6.75,2.36v5.84h-3.76c-2.89-.19-4.2-5.79-2.99-8.2h0Zm.72,1.98c-1.3,.34-.63,4.05,1.93,4.25,.68-.34-.48-.97-1.06-2.12-.77-1.25-.53-2.07-.87-2.12h0Zm-14.28-10.71c.87-.92-3.28-5.35-4.05-4.49-.68,.92,3.18,5.5,4.05,4.49h0Zm9.46,40.57c.48-.24,.39-4.29,.19-8.01,.39-.34,.53-.39,1.06-1.26,.48,.63,.92,1.21,1.54,1.45-.1,2.85,.68,7.57,.58,10.37-.05,1.54-2.51,3.57-3.76,3.47-1.21-.05-3.62-2.65-3.62-3.57,.14-2.61,.92-5.64,1.25-9.02,1.16,.05,1.45-.48,1.74-.77,.1,2.85,.53,7.48,1.01,7.33h0Zm-5.16,1.59c-.05,1.54-4.49,2.65-5.6,2.27-1.11-.29-2.41-3.47-1.98-4.53,1.45-3.62,2.89-5.89,3.96-8.59,.72-.1,1.4-.34,1.79-.53-.58,4.58-1.88,7.96-1.25,8.06,.68,.14,1.78-4.49,2.41-7.19,.48,1.01,1.06,1.35,1.83,1.93-.34,2.84-.63,5.98-1.16,8.59h0Zm-6.56-10.95c.87,.1,1.4,.14,1.93-.05-.92,1.93-2.36,5.11-4.1,8.49-.24,.53-3.28,1.59-4.49,.87-1.06-.72-1.59-3.81-1.25-4.73,1.59-2.46,4.34-5.89,5.64-7.29,.29,.72,.48,1.35,1.25,2.12-.97,1.78-3.14,5.16-2.65,5.4,.48,.24,2.36-2.7,3.67-4.83h0Zm-8.68-7.33c.34,.68,.58,.63,.77,.97-1.5,.72-3.33,2.07-6.71,3.81-1.35,.68-5.5-.05-6.32-1.01-.82-.77,.53-4.58,1.93-4.87,2.61-.68,8.49-1.3,10.23-1.5,.14,0-.24,.72-.24,1.69-1.93,.63-6.99,1.93-6.8,2.32,.19,.39,4.87-.63,7.14-1.4h0Zm4.53,2.08c.43,.05,.29-.05,1.21-.05,0,.87,.1,1.45,.14,1.74-2.22,2.61-4.92,6.56-5.98,7.82-.53,.72-4.63,.63-5.35,0-.68-.68-.43-4.82,.43-5.55,2.94-2.56,4.15-2.99,6.8-4.58,.14-.05,.53,.15,1.3,.24-1.21,1.69-5.5,5.45-4.92,5.74,.53,.24,4.78-4,6.37-5.35h0Zm8.88,34.3c-1.83,0-5.64-2.61-5.31-4.24,.72-4.05,1.59-7.57,2.17-10.08,1.35-.19,1.83-.43,3.14-.87-.19,4.49-.63,9.7-.05,9.6,.48-.14,1.35-5.31,1.59-10.18,.77,.43,1.93,1.45,2.51,2.22,.24,2.61,.29,7.38,.29,10.03,0,.87-2.56,3.52-4.34,3.52h0Zm-7.28-3.38c-.58,2.41-3.91,3.52-5.93,3.04-2.17-.43-3.91-3.67-3.18-5.5,2.07-5.45,3.57-8.25,5.11-12.49,1.25,.1,2.65-.14,3.57-.43-1.93,6.27-4.05,11.87-3.33,12.11,.72,.14,3.14-7.62,4.44-11.68,.39,1.59,1.59,3.09,2.17,3.81-.68,3.42-2.27,8.78-2.85,11.14h0Zm-10.42-2.65c-1.16,2.51-6.66,2.51-7.91,1.64-1.25-.82-2.36-4.87-1.3-6.27,3.09-4.58,6.8-8.3,9.46-12.2,1.16-.05,1.93-.05,3.28-.53-1.54,3.57-7.77,12.64-7.09,12.98,.58,.43,5.74-7.67,7.77-11.38,.29,1.54,.68,2.41,1.25,3.13-2.22,5.35-3.09,7.19-5.45,12.64h0Zm-10.57-5.5c-1.69,1.83-7.53,1.83-8.83,.67-1.25-1.11-.87-5.36,.48-6.51,4.82-4.2,11.82-8.68,16.79-12.2-.29,.87-.43,2.07-.43,2.75-2.65,3.67-10.76,9.99-10.37,10.51,.39,.29,7.48-5.64,10.52-8.73,.29,.53,.48,1.4,1.4,1.69-3.33,4.49-8.35,10.32-9.55,11.82h0Zm-5.74-9.31c-4.2,3.18-3.52,2.36-5.26,2.89-.1-1.06-.14-1.98-1.64-2.65,.68-.82,.82-1.93,.05-3.38,3.76-2.94,11.82-6.37,14.52-7.72,.68,.63,1.01,.48,1.88,.67-4.34,2.32-12.45,7.28-11.67,7.72,3.52-1.78,9.12-5.11,12.69-7.33,.63,0,1.69,.24,2.75,.24-4.87,3.43-8.54,5.74-13.31,9.55h0Zm-4.58-9.94c.19,.58,8.35-2.85,11.77-3.86-.05,.58-.19,1.54-.19,1.98-2.65,1.69-9.89,5.07-13.02,6.9,.82-1.74,.82-5.45-2.22-6.95-.29-.1-.92,.92-.92,.68-.34-.82-.43-1.64-1.83-2.22,5.5-1.59,12.25-2.75,19.34-3.23-.39,.68-.58,1.01-1.01,1.54-3.33,.82-12.16,4.44-11.91,5.16h0Zm45.64-50.65c2.03-.1,2.61,.63,1.06,.92-2.07,.43-4,.82-5.45,3.76-.34,.68-1.06,.68-1.64,0-1.4-3.62,3.96-4.49,6.03-4.68h0Zm-.1-11.1l-.97-2.12c0-.1-.29-.24,.58-.19,.14,1.21,.96,1.59,1.01,1.88,.1,.1-.34,.29-.63,.43h0Zm2.17-1.01l-.05-1.3c0-.24,2.22,.19,3.23,.24-1.35,.34-1.98,.39-3.18,1.06h0Zm27.45,6.95c-2.03,2.41-9.94-1.64-11.39-5.02l2.22,.05c1.59,1.88,3.81,3.86,9.17,4.97h0Zm3.62,15.44c-2.03-4.78-10.32-13.31-11.38-15.92,1.3-.39,5.21,5.36,4.87,4.78-.72-1.35-.48-2.07-1.83-3.47,3.47,.87,6.56,7.96,8.35,14.62h0Zm-2.12,17.61l.53,3.23h-1.3c.53-.87,.24-2.6,.77-3.23h0Zm-10.52-.43c.34,0-.48,2.27-.48,3.57h-1.59c.1-1.21,1.5-2.32,2.07-3.57h0Zm4.44,.43c.77,0-.29,1.88-.29,3.23-.72,0-.87,0-1.5,0-.05-1.5,1.3-2.07,1.79-3.23h0Zm9.65-4.87c.87,0-.48,6.75-.48,8.1-.67,0-1.16,0-1.83,0,.14-1.83,2.17-5.07,2.32-8.1h0Zm-7.09,2.8c.82,0,.14,3.96,.14,5.31-.68,0-1.4,0-2.07,0-.29-1.45,1.74-3.52,1.93-5.31h0Zm1.74-.05c.87-1.54,.68-4.39,1.25-5.55,.68,2.94-.19,8.39-1.16,10.9h-.82l-.05-8.39c.77,.19,.24,1.83,.77,3.04h0Zm4.97-6.37c-1.93-5.4-4.29-11.91-7.38-16.5,1.88,1.3,8.88,10.03,7.38,16.5h0Zm-.63,3.91c-.19,1.5-.48,3.42-1.69,5.35-.29-3.14-.29-10.18-.97-15,2.51,4.53,2.85,8.1,2.65,9.65h0Zm-3.33-7.72c0,1.11-.48,4.97-1.01,6.27-1.11-6.99-3.96-9.7-4.05-14.18,1.83,1.11,3.14,5.93,3.71,7.04-.05-2.75-1.83-5.98-1.59-8.63,2.36,2.41,2.94,5.84,2.94,9.5h0Zm-2.41,5.98c0,1.79-1.4,5.31-2.12,5.6,.24-3.18-1.74-7.81-.67-11.82,.39,1.83,.77,3.57,1.3,4.87,.68-1.01-.87-6.42-.87-6.95,1.78,1.3,2.36,6.51,2.36,8.3h0Zm-9.84,2.94c-.15,.43-1.45,3.04-4.39,3.04-1.59,0-3.57-.96-4.15-2.65,4.34,1.59,7.62-3.23,8.78-5.6v.05c0,.48-.19,1.78-.24,2.17-.43,1.74-4.2,4-3.96,4.29,.34,.34,2.65-1.16,4.05-2.85,0,.39-.1,1.01-.1,1.54h0Zm6.66,.05c.14,3.33-1.69,3.38-2.17,6.56h-1.45c.1-4.82,2.75-5.5,2.85-9.89,.68,0,.77,2.17,.77,3.33h0Zm-5.21,0c1.01-1.54,1.69-4.73,2.36-7.77,1.88,6.61,.05,8.88-2.65,11.29-2.61,2.32-1.5,3.04-1.69,3.04h-6.51c5.98-2.07,7.48-5.02,8.49-6.56h0ZM34.95,30.73c-.34,1.25-.14,1.78,.82,2.46-.19-1.21-.19-2.07,.43-2.85,0,.48,.67,2.75,.67,3.47,.05-2.7,.92-3.09,1.74-4.1-.39,1.01-.63,2.46-.24,3.96,.48-1.45,1.74-3.91,2.07-3.52-1.98,5.98,1.4,7.48,2.17,10.76,1.01,4.2-4.63,6.08-3.18,10.03,.24,.82-.34,.77-1.16,.24-3.18-4.39,1.16-4.78,1.16-7.62,0-.68-.1-.92-.14-1.3-.43-1.4-.43,.24-1.45,.82-.97,.58-2.8,1.16-4.24,.92-.72-.19-.68-.58-.05-.63,6.61-.48,4.25-5.79,.87-9.26-1.4-1.79-.43-3.14,.53-3.38h0Zm14.28-7.86c-4.25,2.56-8.39,3.43-13.02,4.34-1.06,.19-1.59-.14-.29-.53,4.53-1.25,6.08-7.38,11.43-7.53,.1,0,.68,.34,.82,.48,.43,.1-1.83,.39-1.21,.72l2.46,.1c.39,0,.48,.48,.63,.48-.96-.05-1.11,.39-1.45,.82,.53,0,2.32-.24,2.75,.05,.14,.1,1.59,.63,1.06,.63-.58,0-2.32,0-3.18,.43h0Zm10.37,38.4c1.54-.58,4.29-.19,5.45,.05,1.16,.24,1.5,1.4,.82,1.25-1.06-.19-6.17-.29-10.85,3.96-2.07,1.88-5.79,.14-7.86-2.22-.72-.43-.29-1.11-.05-1.11,4.39,1.16,8.78-.63,12.49-1.93h0Zm.72,79.7c-.48,.58-1.21,1.54-2.56,1.64-1.5,.05-3.04-.82-3.47-1.69-.19-.43-1.01-.92-.77,.14,.24,1.01,2.41,2.8,4.25,2.7,1.64-.05,2.65-1.4,3.18-2.7,.34-.82-.14-.82-.63-.1h0Zm6.8-13.41c-.48-.19-1.11,1.45-2.51,1.45-1.78-.05-2.12-2.03-2.7-2.03-.58-.05,.24,1.4,.48,1.74,.39,.48,1.3,1.26,2.36,1.3,1.06,.05,2.89-2.17,2.36-2.46h0Zm5.93,2.65c-.58,0-3.67-.72-4.15-2.27-.14-2.75-.14-6.37-.05-9.89,.77,.24,1.45,.38,1.83,.58,.72,2.85,1.54,6.56,1.98,6.56,.82-.1-.43-5.31-.82-7.04,.39-.43,1.4-1.45,1.59-2.17,.68,.24,2.17,5.64,2.17,7.33l.05,3.09c-.77,1.01-1.78,2.17-2.8,1.88-1.21-.34-1.98-.63-1.98-.72-.58-1.01-.63-2.27-1.06-2.32-.39-.14-.19,2.32,.48,2.85,.72,.63,1.93,1.16,2.56,1.11,.77-.05,2.03-.53,2.8-1.25v.87c0,.87-2.03,1.4-2.6,1.4h0Zm-23.78,11.29c-.34-.29-.87,.14-1.5,.58-.63,.34-1.69,.58-2.8,.24-1.11-.43-1.3-1.11-1.54-1.64-.24-.58-.19-1.4-.63-1.5-.29,0-.48,.43-.34,1.26,.1,.77,1.16,2.65,2.51,2.99,1.54,.29,2.8-.19,3.67-.97,.63-.53,.97-.77,.63-.97h0Zm-10.76-2.89c-.39-.29-.96-.14-1.69,.14-.77,.29-1.93,.43-2.94-.14-1.11-.58-1.45-1.69-1.45-2.61,0-.68,.24-1.11,0-1.45-.24-.19-.63,.1-.77,.87-.1,.96,.1,3.18,1.25,4.05,1.06,.82,2.7,.63,3.67,.34,.92-.34,2.32-.92,1.93-1.2h0Zm-10.71-5.79c-.24-.29-.92-.1-1.59,.05-.63,.19-3.09,.19-3.67-.58-.58-.68-.43-2.27-.19-2.8,.14-.48,.77-1.49,.43-1.64-.34-.19-.92,.43-1.3,1.35-.39,.77-.87,3.28,.29,4.1,1.11,.87,4,.67,4.87,.43,.87-.34,1.59-.58,1.16-.92h0Zm22.82-9.41c-.34-.43-1.69,.48-2.99-.05-1.4-.68-.77-2.56-1.3-2.85-.58-.39-.53,3.04,.53,3.71,1.98,.53,4.1-.48,3.76-.82h0Zm7.86,3.14c-.53-.53-2.27,1.11-3.71,.68-1.4-.43-.92-2.46-1.54-2.61-.63-.1-.19,3.14,1.21,3.62,1.45,.43,4.63-1.3,4.05-1.69h0Zm-14.57-7.53c-.68-.43-1.93,.48-3.04-.39-1.16-.87-.14-3.28-.63-3.42-.39-.14-1.4,3.14-.19,4.2,1.06,.97,4.44,.1,3.86-.39h0Zm-5.93-6.66c-.34-.72-2.89,.24-3.81-1.3-.58-.72,.72-2.41,.34-2.7-.34-.43-2.07,2.08-1.5,3.28,.53,1.21,5.31,1.5,4.97,.72h0Zm-4.1-6.95c.39-.68-2.65-.58-2.89-2.56-.05-1.4,1.4-1.64,1.16-2.07-.34-.53-2.36,1.06-2.17,2.46,.24,1.78,3.57,2.8,3.91,2.17h0Zm-2.12-8.06c.43-.68-2.75-1.45-2.36-3.33,.34-1.45,3.04-1.25,2.89-1.83-.14-.58-3.57,.14-4,1.93-.48,1.78,3.09,3.91,3.47,3.23h0Zm-.68-8.73c.68-.53-2.7-2.65-2.12-4,.34-1.21,2.85-.63,2.99-1.06,.19-.34-3.18-.96-3.96,.72-.82,1.59,2.46,4.82,3.09,4.34h0Zm11.38,8.68c.14-1.21,2.32-3.47,3.71-3.33,1.83,.1,3.71,.48,5.6,1.11,.82,.24,1.01-.63,.05-.96-2.03-.53-3.91-1.01-5.64-1.45-2.12-.58-3.14-5.31-2.7-6.13,.43-.82,3.86-1.83,5.45-1.11,1.64,.68,2.85,2.17,4.97,4.49,.72,.67,1.11,.1,.48-.72-1.98-2.46-7.53-6.85-9.12-9.79-1.74-1.88-1.21-8.97-.39-9.7,3.91,4.58,13.36,11.77,15.87,17.17,.34,.87,.53,3.86-.14,5.31-.48,1.11-8.06,3.81-3.33,10.61,5.16,7.33,14.38,4.39,14.81-.14,.97,0,2.75,.05,3.52,.05v3.42c0,.24-.87,.29-.72,.63,.19,.97,.77,1.25,.77,2.07v9.02c-1.06-.92-2.17-7.62-2.8-9.5-.05-.34-1.21-.77-.96,.58,.1,.68,.82,2.8,1.4,5.16,.34,1.26-1.54,3.23-2.36,3.38-1.83,.29-4.34-1.16-4.44-2.94-.14-1.4-.14-1.64-.19-3.95-.05-1.16-.92-.63-.92,0,0,1.01,.24,2.36,0,4.1-.1,1.3-2.41,3.18-3.67,2.89-1.25-.29-2.99-2.17-2.75-3.23,.24-1.4,.63-2.51,1.21-4.25,.14-.48-.63-.92-.97-.29-.39,1.06-1.16,3.52-1.45,4.24-.48,1.01-4.15,1.26-4.82,.87-1.25-.82-2.17-4.2-1.35-4.87,1.21-1.21,2.56-2.56,3.09-3.18,.34-.43-.24-.77-.58-.48-.77,.72-1.54,1.64-3.57,3.04-.53,.39-4.68-.19-5.26-1.06-.63-.97,.48-5.02,1.88-5.45,1.4-.39,3.18-.58,4.34-.87,.58-.05,.72-.92,0-.87-1.06,.24-2.99,.53-4.63,.63-2.8,.19-4.53-3.18-4.39-4.49h0Zm-13.51,6.42c-.24-1.88,1.98-3.81,3.33-3.81h9.7c.34,.68,1.01,1.5,1.69,1.88-3.14,0-9.7,.53-9.41,1.06,.34,.58,8.01-.39,11.38,.05-.68,.77-.87,1.21-1.25,2.17-3.14,.34-7.19,1.16-10.66,1.45-1.25,.14-4.63-.97-4.78-2.8h0Zm-1.74-10.03c.48-1.54,3.57-2.85,5.16-2.36,2.7,.67,6.75,1.98,10.85,2.89-.67,.19-.96,1.01-1.45,1.74-3.14-.24-8.88-1.25-9.12-.63-.19,.67,5.6,1.25,8.68,1.64,.1,.29,.1,1.54,.29,2.07-3.86,0-7.38,0-10.66-.53-2.36-.48-4.29-3.23-3.76-4.82h0Zm16.11-22.87c-.24,1.54-.24,2.85,0,4.39-3.09-2.36-4.73-6.32-5.64-6.37-.82,0,2.94,5.4,5.69,8.06,.24,1.64,.72,2.17,1.16,3.04-4-2.75-6.9-5.21-9.26-8.01-3.09-3.67-2.8-8.73-.82-12.74,2.61,5.07,3.47,6.99,8.88,11.63h0Zm-14.23,2.85c1.06-1.4,6.46,1.25,7.57,1.78,2.99,1.98,7.77,5.6,11.34,8.83-.77-.34-1.98,0-2.7,.1-.14,.14-8.88-6.37-9.36-5.79-.48,.63,8.15,6.37,8.1,6.37-.58,0-1.3,1.01-1.64,1.54-2.17-.92-5.74-2.46-8.97-4.73-3.28-2.27-5.31-6.61-4.34-8.1h0Zm-2.51,10.32c.77-1.64,4.39-2.12,5.98-1.4,1.5,.67,7.04,3.91,9.55,4.82-.14,.43,.29,1.59,.34,1.98-1.01-.05-8.39-4-9.12-3.33-.48,.48,5.11,2.85,9.46,4.68,1.11,1.35,.63,1.01,1.79,2.32-.34,.19-.29,.1-.72,.34-2.46-.77-8.97-2.46-12.49-3.47-3.57-1.01-5.55-4.34-4.78-5.93h0Zm52.73-30.73s1.69,0,2.27,0c1.74,2.75,4.39,4.05,4.87,6.8-2.89-1.64-3.62-2.27-7.14-6.8h0Zm5.07,7.04c.92,.77,2.8,4.1,3.91,4.82-.48-1.74-2.17-3.57-1.88-4.1,1.54,.43,5.31,3.67,4.78,10.57,.68,.63-7.53-9.02-6.8-11.29h0Zm3.28,13.85c-.48-3.14-1.25-5.89-2.61-9.21,6.56,5.4,3.76,15.82,3.14,19.2-.1,0-2.07-12.16-2.65-11.77,1.4,8.1-1.93,15.53-1.74,13.94,.48-5.4,.97-13.7-1.83-18.43,3.86,1.25,5.69,7.62,5.69,6.27h0Zm-9.5-16.64c5.93,3.04,5.64,5.64,7.53,12.25-3.04-2.99-9.6-7.04-12.01-10.52,2.56,1.98,6.51,4.34,8.01,4.73-.63-1.93-1.11-3.91-3.52-6.46h0Zm5.55,2.41c-1.35-2.94-5.5-5.4-7.96-7.91,2.99,.92,8.35,.82,10.95-.24-4.53-1.01-18.57-2.17-22.05,2.12l-1.78-3.47c-1.25-2.36,3.38-.68,6.8-.68,9.65,.05,16.31,.72,19.2-3.42l-27.59-.05c-1.35,0-.82,.53-.82,1.06,.63,.43,1.3,1.54,1.4,2.46,.29,1.21,1.83,3.47,3.18,5.21,4.34,3.91,7.28,4.73,7.91,4.53-1.4-1.93-2.65-3.28-2.89-4.78,3.81,3.81,6.18,5.4,10.03,7.72,0-1.78-5.35-7.53-6.99-9.12,3.47,1.4,8.3,5.26,10.61,6.56h0Zm-22.72-10.13c3.52,7.57,8.06,9.12,12.25,11.1,2.89,2.17,10.03,5.74,10.03,15.58-3.52-11.58-10.42-12.88-16.4-17.8-4.34-3.47-6.66-6.32-8.25-9.41-.14-.24-.43-1.3-.05-1.5,1.11-.68,1.59,.29,2.41,2.03h0Zm2.94,7.43c2.94,2.94,6.75,4.68,10.13,7.28,0,.29-.63,1.06-1.35,.39-5.84-4.39-12.3-7.04-15.05-6.95-2.8,.05-4.05,.77-5.55,2.56-1.5-1.5-1.93-4.68-1.25-6.9,.68-2.17,6.03-6.42,7.48-3.38,.72,1.54,3.67,5.16,5.6,6.99h0ZM28.92,100.82c-.67,.87-1.3,1.64-1.3,2.32-4.34,0-14.33,.63-14.47,1.35-.24,.63,8.97-.19,14.67,.19,.58,.72,1.5,1.21,1.88,1.69-2.99,.24-11.63,1.74-16.6,2.99-5.02,1.21-9.94-2.99-9.84-4.92,.1-1.88,3.33-3.86,9.07-3.81,4,0,9.41,.24,16.6,.19h0Zm-2.8-7.43s-.1,1.59,.24,2.41c-3.57-.48-14.38-1.98-14.67-1.45-.24,.68,10.85,2.03,15.29,2.75,1.06,1.06,1.98,1.93,2.89,2.17-1.78,.58-15.87,.43-19.34-.19-3.43-.72-9.41-5.5-8.97-7.48,.48-2.07,5.69-1.93,9.55-1.59,4,.43,10.9,2.27,15,3.38h0ZM11.98,42.65c-.92-6.8,2.17-10.9,3.76-10.13,1.5,.77,3.76,6.95,5.07,8.97,1.3,1.93,7.04,13.56,12.11,18.52-.63,1.3-1.16,2.27-.97,4.15-5.93-6.08-11.34-17.7-12.35-17.85-1.01-.1,6.85,14.52,12.21,19.97,.39,2.51,1.25,4.25,2.36,6.03-9.94-6.95-21.27-22.87-22.19-29.67h0Zm.82,30.2c-.29,.58,9.84,6.42,14.09,9.36-.77,.39-.92,.68-1.3,1.54-6.37-2.51-14.71-6.42-17.71-8.78-3.96-3.04-5.07-8.49-3.76-9.6,1.35-.87,4.49,.82,5.79,1.3,7.28,3.18,16.31,9.07,21.47,14.52-.43-.14-2.07-.14-3.09,.29-6.03-3.23-14.91-9.12-15.49-8.64h0Zm16.5,17.66c-.58,.24-1.5,.63-2.32,1.59-4.44-.48-17.22-4.29-19.49-5.36-2.89-1.25-8.92-6.75-7.19-8.3,1.88-1.45,7.96-1.21,12.01,.82,3.43,1.64,9.02,3.57,12.88,5.4,.19,1.3,.82,2.51,1.5,3.28-4.25-1.25-16.06-5.84-16.69-5.5-.53,.39,12.16,5.5,17.51,6.75,.63,.68,1.21,.97,1.78,1.3h0Zm-1.59-17.22c-.1,.96,.43,2.17,.68,3.62-11.24-7.57-17.8-12.59-20.12-15.1-3.28-3.67-3.04-11.82-1.11-12.49,1.93-.68,3.96,3.62,7.38,6.85,3.33,3.28,7.91,7.67,10.13,9.6,2.7,2.22,4.15,3.38,8.39,6.9-1.4-.39-3.33-.96-4.49-.29-5.16-2.75-13.41-11-13.94-10.47-.39,.34,8.49,8.35,13.07,11.38h0ZM99.97,33.43c-3.76,0-7.28,.43-10.61,1.16-.34,.14-.63-.68-.05-.87v-1.93c-.63,.05-.72-.87,0-1.06-1.21-3.43-3.42-8.3-3.62-10.71-.24-3.62,2.41-6.51,7.48-7.33,1.01-.72,2.85-.58,3.14,.53,.14,.63,1.11,.43,1.11-.1,0-.48,.82-1.21,.82-1.21-.96-.82-1.45-2.03-1.45-3.28,0-.82,.39-2.51,2.32-2.99l.19-1.88-2.36,.24v-1.83l2.36,.24-.19-2.41h1.78l-.19,2.41,2.41-.24v1.83l-2.41-.24,.19,1.88c1.83,.48,2.22,2.17,2.22,2.99,0,1.25-.48,2.46-1.4,3.28,0,0,.72,.72,.72,1.21,0,.53,1.01,.72,1.16,.1,.34-1.11,2.12-1.25,3.14-.53,5.11,.82,7.91,3.62,7.43,7.33-.19,2.61-2.32,7.28-3.52,10.71,.87,.29,.53,1.21-.05,1.06v1.83c.77,.19,.58,1.16,0,.97-3.28-.58-6.9-1.16-10.61-1.16h0Zm-2.6-11.82c-.24-1.11-.92-5.11-1.11-6.9-.24-1.83-1.54-1.35-1.25,.1,.19,1.5,.92,5.02,1.4,6.61,.43,1.74,1.16,1.4,.97,.19h0Zm.96-2.17c-.14-1.21-.34-3.04-.29-4.25,.05-1.11-1.16-.92-.92,0,.14,.87,.53,3.04,.68,4.29,.29,1.16,.72,1.11,.53-.05h0Zm3.38,0c.1-1.21,.29-3.04,.19-4.25-.05-1.11,1.21-.92,1.01,0-.19,.87-.58,3.04-.72,4.29-.34,1.16-.67,1.11-.48-.05h0Zm-6.56,6.56c-.34,.34,.19,1.25,1.16,2.12,.87,.92,1.83,1.35,2.12,1.06,.24-.24-.19-1.25-1.06-2.12-.92-.92-1.93-1.3-2.22-1.06h0Zm9.7,0c.24,.34-.19,1.25-1.16,2.12-.82,.92-1.83,1.35-2.07,1.06-.29-.24,.19-1.25,1.06-2.12,.92-.92,1.83-1.3,2.17-1.06h0Zm-11.43,2.99c0,.24,.68,.53,1.35,.58,.77,.05,1.4-.1,1.4-.39,.05-.19-.53-.58-1.25-.58-.72-.14-1.4,.1-1.5,.39h0Zm13.07,0c0,.24-.53,.53-1.3,.58-.72,.05-1.3-.1-1.3-.39-.1-.19,.48-.58,1.3-.58,.67-.14,1.25,.1,1.3,.39h0Zm-9.55-4.92c-.19,.19-.14,.77,.19,1.45,.24,.68,.72,1.16,1.01,1.01,.29-.1,.19-.72-.1-1.45-.29-.68-.82-1.06-1.11-1.01h0Zm6.08,0c.19,.19,.19,.77-.1,1.45-.29,.68-.72,1.16-1.06,1.01-.14-.1-.14-.72,.14-1.45,.34-.68,.72-1.06,1.01-1.01h0Zm-.19-2.46c.19-1.11,.77-5.11,.96-6.9,.19-1.83,1.59-1.35,1.3,.1-.24,1.5-.92,5.02-1.4,6.61-.43,1.74-1.06,1.4-.87,.19h0Zm-2.85,1.16c.44,0,.87,1.5,.87,3.33s-.43,3.18-.87,3.18c-.48,0-.87-1.4-.87-3.18s.39-3.33,.87-3.33h0Zm0-2.61c.29,0,.44,.19,.44,.48,0,.24-.14,.43-.44,.43-.19,0-.39-.19-.39-.43,0-.29,.19-.48,.39-.48h0Zm0-1.64c.29,0,.53,.14,.53,.48,0,.29-.24,.48-.53,.48-.29,0-.48-.19-.48-.48,0-.34,.19-.48,.48-.48h0Zm0-1.74c.29,0,.58,.19,.58,.58,0,.34-.29,.48-.58,.48s-.53-.14-.53-.48c0-.39,.24-.58,.53-.58h0Zm0-1.88c.29,0,.58,.29,.58,.68,0,.39-.29,.58-.58,.58-.34,0-.63-.19-.63-.58,0-.39,.29-.68,.63-.68h0Zm0-1.78c.34,0,.63,.29,.63,.77,0,.39-.29,.67-.63,.67-.39,0-.72-.29-.72-.67,0-.48,.34-.77,.72-.77h0Zm12.35,8.63c.39,.1,.48-1.83,.48-2.03,0-.14-1.64-1.21-1.88-1.11-.19,.05,1.11,2.94,1.4,3.14h0Zm-.53,2.65c.24-.1,.53-1.78,.53-1.98-.05-.24-1.78-1.06-2.03-.92-.14,.05,1.21,2.94,1.5,2.89h0Zm-1.06,2.41c.19-.1,.96-1.64,.92-1.83-.1-.24-1.79-1.06-2.03-.96-.14,.05,.92,2.89,1.11,2.8h0Zm-1.11,2.36c.14-.05,1.01-1.64,.96-1.78-.05-.24-1.78-1.06-2.03-.92-.19,.05,.87,2.8,1.06,2.7h0Zm3.18-10.32c.14-.19-.05-1.4-.1-1.59-.05-.14-1.69-1.74-1.88-1.59-.19,.05,1.74,3.23,1.98,3.18h0Zm-2.8,1.64c.19-.05,.39-1.88,.34-2.12,0-.29-1.64-1.01-1.83-.92-.19,.05,1.25,3.18,1.5,3.04h0Zm-.77,2.7c.19-.1,.72-1.69,.67-1.93-.05-.24-1.79-1.01-2.03-.87-.19,.05,1.16,2.85,1.35,2.8h0Zm-.87,2.51c.19-.1,.96-1.69,.87-1.83,0-.29-1.74-1.11-1.98-1.01-.19,.1,.92,2.94,1.11,2.85h0Zm-1.16,2.36c.29-.05,.96-1.59,.96-1.78-.05-.34-1.83-1.06-1.98-1.01-.24,.14,.82,2.94,1.01,2.8h0Zm3.04-10.66c.39,.19,.19-1.74,.14-2.03-.05-.24-1.79-1.3-2.03-1.16-.19,.05,1.16,2.94,1.88,3.18h0Zm-2.75,2.07c.48,.24,.34-1.88,.43-2.22,.05-.34-2.03-1.25-2.03-.97-.05,.29,1.11,2.99,1.59,3.18h0Zm-.58,2.65c.14-.14,.63-1.69,.58-1.93,0-.24-1.88-1.11-2.07-1.01-.24,.1,1.25,2.99,1.49,2.94h0Zm-.92,2.41c.19,0,.92-1.59,.92-1.78,0-.34-1.83-1.06-2.03-.97-.19,.1,.82,2.89,1.11,2.75h0Zm-2.03,.68c.19,0,1.21,0,1.21-.24s-.97-.92-1.21-.72c-.19,.05-.24,1.16,0,.96h0Zm3.76-8.92c.43,0,.29-2.07,.14-2.32-.14-.29-1.69-.63-1.93-.58-.24,0,1.54,2.89,1.79,2.89h0Zm-20.17,5.45c-.34,.1-.48-1.83-.39-2.03,0-.14,1.54-1.21,1.83-1.11,.14,.05-1.11,2.94-1.45,3.14h0Zm.53,2.65c-.19-.1-.53-1.78-.53-1.98,.1-.24,1.78-1.06,2.03-.92,.24,.05-1.3,2.94-1.5,2.89h0Zm1.06,2.41c-.14-.1-.96-1.64-.92-1.83,.05-.24,1.78-1.06,2.03-.96,.19,.05-.92,2.89-1.11,2.8h0Zm1.11,2.36c-.19-.05-.97-1.64-.97-1.78,.05-.24,1.88-1.06,2.03-.92,.24,.05-.82,2.8-1.06,2.7h0Zm-3.09-10.32c-.19-.19,.05-1.4,.05-1.59,.05-.14,1.59-1.74,1.78-1.59,.24,.05-1.69,3.23-1.83,3.18h0Zm2.7,1.64c-.19-.05-.39-1.88-.39-2.12,.1-.29,1.69-1.01,1.88-.92,.24,.05-1.25,3.18-1.5,3.04h0Zm.77,2.7c-.14-.1-.72-1.69-.63-1.93,0-.24,1.78-1.01,2.03-.87,.1,.05-1.16,2.85-1.4,2.8h0Zm.92,2.51c-.24-.1-1.01-1.69-.92-1.83,0-.29,1.83-1.11,2.03-1.01,.14,.1-.92,2.94-1.11,2.85h0Zm1.11,2.36c-.14-.05-.96-1.59-.92-1.78,.05-.34,1.78-1.06,2.03-1.01,.1,.14-.92,2.94-1.11,2.8h0Zm-3.04-10.66c-.39,.19-.14-1.74-.14-2.03,.1-.24,1.78-1.3,2.03-1.16,.19,.05-1.16,2.94-1.88,3.18h0Zm2.85,2.07c-.58,.24-.43-1.88-.53-2.22-.05-.34,2.03-1.25,2.03-.97,.05,.29-1.11,2.99-1.5,3.18h0Zm.53,2.65c-.19-.14-.68-1.69-.63-1.93,.1-.24,1.88-1.11,2.07-1.01,.24,.1-1.25,2.99-1.45,2.94h0Zm.87,2.41c-.14,0-.92-1.59-.87-1.78,.05-.34,1.74-1.06,2.03-.97,.14,.1-.87,2.89-1.16,2.75h0Zm2.03,.68c-.14,0-1.21,0-1.21-.24,.05-.24,.96-.92,1.21-.72,.19,.05,.24,1.16,0,.96h0Zm-3.76-8.92c-.39,0-.29-2.07-.1-2.32,.1-.29,1.69-.63,1.83-.58,.29,0-1.4,2.89-1.74,2.89h0Zm62.62,156.16c-.19,0-.43,.19-.43,.39,0,.34,.24,.48,.43,.48,.29,0,.53-.14,.53-.48,0-.19-.24-.39-.53-.39h0Zm11.82-12.06c.24,0,.53,.14,.53,.43s-.29,.48-.53,.48-.48-.19-.48-.48,.24-.43,.48-.43h0Zm11.19,13.17c.24,0,.48,.14,.48,.43,0,.24-.24,.48-.48,.48s-.39-.24-.39-.48c0-.29,.14-.43,.39-.43h0Zm-20.45-1.69c-.34,0-.63,.19-.63,.63,0,.34,.29,.68,.63,.68s.68-.34,.68-.68c0-.43-.34-.63-.67-.63h0Zm9.26-9.75c.29,0,.72,.29,.72,.72,0,.34-.43,.63-.72,.63s-.58-.29-.58-.63c0-.43,.29-.72,.58-.72h0Zm8.88,10.81c.29,0,.67,.24,.67,.68,0,.34-.39,.63-.68,.63s-.63-.29-.63-.63c0-.43,.34-.68,.63-.68h0Zm-15.78-1.35c-.43,0-.87,.38-.87,.87,0,.53,.43,.87,.87,.87,.48,0,.87-.34,.87-.87,0-.48-.39-.87-.87-.87h0Zm6.95-6.9c.53,0,.87,.39,.87,.92,0,.43-.34,.92-.87,.92-.43,0-.77-.48-.77-.92,0-.53,.34-.92,.77-.92h0Zm6.27,7.33c.39,0,.82,.38,.82,.92,0,.43-.43,.87-.82,.87-.53,0-.82-.43-.82-.87,0-.53,.29-.92,.82-.92h0Zm-9.89-.72c-.48,0-1.01,.43-1.01,1.06,0,.58,.53,1.01,1.01,1.01,.58,0,1.06-.43,1.06-1.01,0-.63-.48-1.06-1.06-1.06h0Zm3.52-3.38c.58,0,1.06,.39,1.06,1.01,0,.63-.48,1.11-1.06,1.11-.53,0-.96-.48-.96-1.11s.43-1.01,.97-1.01h0Zm3.42,3.57c.48,0,.96,.39,.96,1.06,0,.63-.48,1.06-.96,1.06-.58,0-1.01-.43-1.01-1.06,0-.67,.43-1.06,1.01-1.06h0Zm-3.47-.43c.67,0,1.25,.53,1.25,1.2,0,.72-.58,1.3-1.25,1.3-.58,0-1.11-.58-1.11-1.3,0-.67,.53-1.2,1.11-1.2h0Zm1.74,14.42l-1.74,.77c-.68,.43-2.65,.82-2.65,.82,.05,1.11,2.17,1.06,3.04,.58,0,0,.58-1.49,3.09-2.03l2.32-1.01c.48-1.79,.58-2.03-1.21-2.27-2.22,.82,.77,2.8-2.85,3.14h0Zm2.22-24.46c2.89,.67,8.06,6.03,7.96,9.5-3.04-.72-5.4-1.3-7.96-1.4-.14-2.75,0-5.5,0-8.1h0Zm-1.88-.34c.29,0,.19,0,.58,.05-.14,5.02-.05,5.6,.05,9.26,3.38,.05,6.42,.68,9.21,1.45,.14,.29,.19,.58,.19,.77-2.94-.82-6.85-1.64-10.03-1.69,0-3.86-.14-7.19,0-9.84h0Zm9.6,15.15c-2.56-.58-6.27-1.16-11.67-1.49-4.77-.34-10.52,.19-12.3,.34-.05,.29,.14,.63,.14,.87,1.25-.14,6.61-.77,12.01-.43,5.07,.24,8.59,.72,11.53,1.5,.05-.24,.19-.39,.29-.77h0Zm-13.17-15.34c-.34,0-.29,0-.68,.05,.19,5.07,.1,5.79-.05,9.45-3.28-.1-6.27,0-10.08,.39-.05,.19-.1,.53-.1,.68,2.51-.14,7.72-.63,10.85-.43,0-3.76,.19-7.57,.05-10.13h0Zm-1.83,.34c-3.28,.39-7.82,4.49-8.63,8.39,2.94-.1,5.4-.39,8.59-.14,0-3.81,.14-5.64,.05-8.25h0Zm-1.88,22.91c-3.14-1.16-6.22-4.92-6.66-7.48,4.49-.97,17.13-.92,23.06,1.06,0,.24-.39,.92-1.01,1.79-.1,.19-1.25,.14-1.01-.58,.19-.63-2.56-.72-2.85-.1,.67,.72,2.27,1.49,2.85,2.12-.43,.48-1.69,1.78-1.69,1.78-.48-.58-1.11-1.25-2.08-1.64-.34-1.25-1.25-2.27-2.12-1.98-.14,.43,.48,1.49,.19,2.32-.72,.63-.68,2.27-1.11,3.14-.48,.24-1.06,.05-1.25,.24-.82-1.06,.97-3.81-1.88-4.58-.53-1.25-1.06-1.78-1.83-2.07-.48,1.01,.1,1.83-.14,2.51-2.32,.1-1.83,3.62-2.46,3.47h0Zm-35.12-6.18c.05,.82,.24,.82,.53,1.4-.1,.29-.58,.34-.77,.05-.58-.48-.77-1.11-.67-1.74,.05-.24,.87-1.3,.92,.29h0Zm3.18,2.03c.14,0,1.01,.39,.24,.58-1.35,0-2.51,0-4.87,.24-.67-.1-2.07-1.11,1.25-.82,.72,.1,1.88-.24,3.38,0h0Zm37.24-21.71l1.16,.05-.39-1.98,2.27,.19v-1.79l-2.32,.43,.43-2.27-1.16,.05-1.01-.05,.43,2.27-2.27-.43v1.79l2.17-.19-.34,1.98,1.01-.05h0Zm-6.32,29.33c.68-.38,2.12-2.07,2.46-2.46,.34-.19,.19-1.3,.29-2.22,.14-.92,1.25-1.49,2.12-1.49,.87-.1,1.3,3.23,.72,3.52-.72,.29-1.35,.48-2.12,.97-.58,.1-2.89,3.04-3.47,3.33-1.69,1.2-2.56,1.49-5.16,0-4-2.32-7.09-4.29-9.84-4.63-1.4,.19-1.11-1.88-1.54-1.88-.48,0-.29,1.83-.77,1.79-.53-.05-.53-2.36-.92-2.51-.43-.19-.39,1.83-.77,1.64-.43-.24-.29-1.93-.82-2.27-.58-.39-.82,1.59-1.3,1.35-.43-.38-.1-1.98-.68-2.12-.58-.19-1.01,1.59-1.01,1.59l-.77-2.12-.92,1.79s-.58-2.07-1.21-2.03c-.68,.05,.43,1.69-1.21,1.59-.87-.05-3.18-.63-7.72-.05-1.25,0-1.98-.19-2.99-.63-.19-1.06,1.35-2.07,1.93-3.14,.53-1.01,.19-3.23,1.35-3.91,.53,1.11,.48,1.88,1.45,3.14,1.11-1.11,1.59-1.69,2.12-3.14,1.01,1.45,2.27,3.67,3.86,3.91,.39-.58,.14-1.01,.53-1.06,2.46,2.27,8.83,4.68,13.7,5.6,2.56,.58,4.58,.82,6.37-.72,.72-.72,.53-2.32,.82-1.45,.05,.53,1.4,1.98,2.41,3.04-.14,.39-2.41,1.45-2.17,1.59,1.3,1.11,2.94-1.06,5.5,.72,.82,.58-3.81,.97-3.81,1.3,0,.72,1.93,2.17,3.57,.96h0ZM109.33,31.94c.24,0,.43,.24,.43,.48,0,.34-.19,.58-.43,.58-.29,0-.53-.24-.53-.58,0-.24,.24-.48,.53-.48h0Zm-2.03-.34c.29,0,.53,.19,.53,.58,0,.24-.24,.48-.53,.48-.34,0-.58-.24-.58-.48,0-.39,.24-.58,.58-.58h0Zm-2.12-.39c.34,0,.58,.24,.58,.63,0,.34-.24,.58-.58,.58s-.68-.24-.68-.58c0-.39,.34-.63,.68-.63h0Zm-2.32-.48c.39,0,.72,.29,.72,.72s-.34,.72-.72,.72c-.43,0-.82-.29-.82-.72s.39-.72,.82-.72h0Zm-12.3,1.21c-.24,0-.48,.24-.48,.48,0,.34,.24,.58,.48,.58,.29,0,.53-.24,.53-.58,0-.24-.24-.48-.53-.48h0Zm2.03-.34c-.24,0-.53,.19-.53,.58,0,.24,.29,.48,.53,.48,.39,0,.58-.24,.58-.48,0-.39-.19-.58-.58-.58h0Zm2.12-.39c-.29,0-.63,.24-.63,.63,0,.34,.34,.58,.63,.58,.43,0,.63-.24,.63-.58,0-.39-.19-.63-.63-.63h0Zm2.41-.48c-.53,0-.82,.29-.82,.72s.29,.72,.82,.72c.29,0,.68-.29,.68-.72s-.39-.72-.68-.72h0Zm2.85-.39c-.53,0-.92,.39-.92,.87,0,.53,.39,.96,.92,.96,.44,0,.92-.43,.92-.96,0-.48-.48-.87-.92-.87h0Zm0-23.83c1.16,0,2.22,1.01,2.22,2.27s-1.06,2.89-2.22,2.89c-1.25,0-2.22-1.69-2.22-2.89s.97-2.27,2.22-2.27h0Zm26.73,36.61c-.19,0-.34,.19-.34,.34,0,.24,.14,.34,.34,.34,.14,0,.34-.1,.34-.34,0-.14-.19-.34-.34-.34h0Zm1.3-.24c-.19,0-.34,.14-.34,.39,0,.19,.14,.39,.34,.39,.24,0,.43-.19,.43-.39,0-.24-.19-.39-.43-.39h0Zm1.4-.24c-.19,0-.39,.24-.39,.43,0,.24,.19,.39,.39,.39,.29,0,.43-.14,.43-.39,0-.19-.14-.43-.43-.43h0Zm1.5-.34c-.24,0-.48,.19-.48,.53,0,.24,.24,.48,.48,.48,.29,0,.53-.24,.53-.48,0-.34-.24-.53-.53-.53h0Zm8.1,.82c.14,0,.29,.19,.29,.34,0,.24-.14,.34-.29,.34-.14,0-.34-.1-.34-.34,0-.14,.19-.34,.34-.34h0Zm-1.3-.24c.14,0,.34,.14,.34,.39,0,.19-.19,.39-.34,.39-.24,0-.43-.19-.43-.39,0-.24,.19-.39,.43-.39h0Zm-1.4-.24c.19,0,.39,.24,.39,.43,0,.24-.19,.39-.39,.39-.29,0-.43-.14-.43-.39,0-.19,.14-.43,.43-.43h0Zm-1.54-.34c.29,0,.43,.19,.43,.53,0,.24-.14,.48-.43,.48s-.43-.24-.43-.48c0-.34,.14-.53,.43-.53h0Zm-1.93-.24c.29,0,.63,.24,.63,.58,0,.39-.34,.68-.63,.68-.34,0-.53-.29-.53-.68,0-.34,.19-.58,.53-.58h0Zm0-15.58c-.82,0-1.45,.63-1.45,1.45,0,.87,.63,1.88,1.45,1.88,.87,0,1.5-1.01,1.5-1.88,0-.82-.63-1.45-1.5-1.45h0Zm1.74,9.84c.19-.68,.58-3.28,.63-4.53,.19-1.21,1.11-.82,.92,.1-.14,1.01-.63,3.28-.92,4.39-.29,1.06-.77,.92-.63,.05h0Zm-.68-1.4c.1-.82,.19-1.93,.14-2.75,0-.77,.87-.63,.72,0-.14,.58-.39,1.98-.48,2.8-.24,.72-.48,.68-.39-.05h0Zm-2.17,0c-.05-.82-.19-1.93-.14-2.75,0-.77-.82-.63-.72,0,.19,.58,.39,1.98,.58,2.8,.14,.72,.39,.68,.29-.05h0Zm4.29,4.34c.19,.14-.19,.82-.82,1.4-.53,.58-1.16,.87-1.3,.68-.19-.24,.1-.82,.68-1.4,.58-.53,1.21-.87,1.45-.68h0Zm-6.32,0c-.24,.14,.1,.82,.68,1.4,.53,.58,1.21,.87,1.4,.68,.19-.24-.1-.82-.68-1.4-.67-.53-1.25-.87-1.4-.68h0Zm7.38,1.88c0,.29-.39,.43-.82,.43-.53,.05-.96-.05-.96-.24s.39-.43,.87-.43c.43,0,.87,.14,.92,.24h0Zm-8.54,0c0,.29,.34,.43,.82,.43,.53,.05,.92-.05,.92-.24s-.39-.43-.82-.43c-.48,0-.92,.14-.92,.24h0Zm6.27-3.14c.14,.1,.14,.48-.05,.92-.24,.48-.53,.72-.72,.63-.14,0-.14-.48,0-.92,.29-.43,.58-.68,.77-.63h0Zm-4,0c-.1,.1-.1,.48,.05,.92,.29,.48,.58,.72,.72,.63,.19,0,.14-.48-.1-.92-.24-.43-.43-.68-.67-.63h0Zm.19-1.69c-.19-.68-.58-3.28-.72-4.53-.1-1.21-.97-.82-.82,.1,.19,1.01,.58,3.28,.92,4.39,.29,1.06,.77,.92,.63,.05h0Zm1.83,.77c-.34,0-.53,1.01-.53,2.22s.19,2.17,.53,2.17c.29,0,.53-.96,.53-2.17s-.24-2.22-.53-2.22h0Zm0-1.69c-.19,0-.34,.1-.34,.29s.14,.34,.34,.34c.14,0,.29-.14,.29-.34s-.14-.29-.29-.29h0Zm0-1.06c-.19,0-.34,.1-.34,.29s.14,.39,.34,.39,.29-.19,.29-.39-.1-.29-.29-.29h0Zm0-1.16c-.24,0-.39,.1-.39,.39,0,.14,.14,.29,.39,.29,.19,0,.29-.14,.29-.29,0-.29-.1-.39-.29-.39h0Zm0-1.25c-.24,0-.39,.24-.39,.43,0,.29,.14,.43,.39,.43s.39-.14,.39-.43c0-.19-.14-.43-.39-.43h0Zm0-1.16c-.29,0-.43,.24-.43,.48,0,.29,.14,.48,.43,.48s.43-.19,.43-.48c0-.24-.14-.48-.43-.48h0Zm-8.15,5.64c-.19,.05-.29-1.21-.29-1.35,.05-.05,1.11-.72,1.25-.68,.14,.05-.72,1.93-.97,2.03h0Zm.43,1.74c-.19-.05-.43-1.11-.39-1.21,0-.19,1.21-.72,1.25-.63,.14,0-.77,1.93-.87,1.83h0Zm.68,1.64c-.14-.1-.68-1.11-.63-1.25,.05-.14,1.16-.63,1.35-.58,.05,.05-.58,1.88-.72,1.83h0Zm.72,1.54c-.14,0-.63-1.06-.58-1.11,0-.19,1.16-.82,1.3-.68,.1,0-.63,1.88-.72,1.78h0Zm-2.07-6.8c-.14-.1,.05-.87,.05-1.01,.05-.19,1.06-1.16,1.16-1.11,.19,.1-1.06,2.17-1.21,2.12h0Zm1.78,1.11c-.1,0-.29-1.3-.29-1.4,0-.14,1.21-.63,1.3-.58,.14,.05-.87,2.03-1.01,1.98h0Zm.53,1.74c-.14-.05-.43-1.06-.43-1.16,0-.24,1.21-.77,1.3-.67,.14,.1-.77,1.93-.87,1.83h0Zm.58,1.59c-.1,0-.63-1.01-.58-1.16,0-.19,1.16-.72,1.3-.63,.1,.1-.58,1.88-.72,1.78h0Zm.72,1.59c-.14,0-.68-1.01-.58-1.16,.05-.14,1.11-.72,1.3-.58,.1,0-.58,1.88-.72,1.74h0Zm-1.98-6.95c-.24,.1-.15-1.21-.15-1.3,0-.14,1.3-.87,1.35-.82,.1,.05-.77,1.93-1.2,2.12h0Zm1.83,1.4c-.34,.05-.24-1.3-.29-1.5-.05-.24,1.35-.87,1.35-.72,0,.24-.77,2.03-1.06,2.22h0Zm.34,1.74c-.1-.14-.43-1.11-.39-1.3,.05-.14,1.25-.77,1.35-.67,.14,.05-.77,1.98-.96,1.98h0Zm.63,1.54c-.1,0-.63-1.06-.63-1.21,.05-.14,1.21-.77,1.35-.63,.14,.05-.53,1.93-.72,1.83h0Zm1.35,.43c-.19-.05-.87,0-.82-.19,.05-.14,.63-.53,.82-.43,.14,0,.14,.72,0,.63h0Zm-2.51-5.84c-.24,0-.14-1.4-.1-1.54,.14-.24,1.16-.39,1.25-.34,.19,0-.96,1.88-1.16,1.88h0Zm13.27,3.52c.24,.05,.29-1.21,.29-1.35,0-.05-1.06-.72-1.21-.68-.14,.05,.68,1.93,.92,2.03h0Zm-.34,1.74c.1-.05,.34-1.11,.29-1.21,0-.19-1.16-.72-1.3-.63-.1,0,.82,1.93,1.01,1.83h0Zm-.72,1.64c.14-.1,.63-1.11,.58-1.25-.05-.14-1.16-.63-1.35-.58-.1,.05,.63,1.88,.77,1.83h0Zm-.77,1.54c.14,0,.63-1.06,.63-1.11,0-.19-1.11-.82-1.35-.68-.05,0,.63,1.88,.72,1.78h0Zm2.12-6.8c.1-.1-.05-.87-.05-1.01-.05-.19-1.11-1.16-1.16-1.11-.19,.1,1.01,2.17,1.21,2.12h0Zm-1.83,1.11c.14,0,.24-1.3,.24-1.4,0-.14-1.11-.63-1.25-.58-.1,.05,.87,2.03,1.01,1.98h0Zm-.48,1.74c.1-.05,.43-1.06,.43-1.16-.05-.24-1.21-.77-1.3-.67-.19,.1,.72,1.93,.87,1.83h0Zm-.58,1.59s.63-1.01,.58-1.16c0-.19-1.21-.72-1.3-.63-.14,.1,.63,1.88,.72,1.78h0Zm-.72,1.59c.1,0,.63-1.01,.63-1.16-.1-.14-1.25-.72-1.35-.58-.14,0,.53,1.88,.72,1.74h0Zm1.98-6.95c.24,.1,.05-1.21,.05-1.3,0-.14-1.21-.87-1.3-.82-.1,.05,.77,1.93,1.25,2.12h0Zm-1.88,1.4c.34,.05,.29-1.3,.34-1.5,0-.24-1.35-.87-1.35-.72-.05,.24,.72,2.03,1.01,2.22h0Zm-.34,1.74c.1-.14,.43-1.11,.39-1.3-.05-.14-1.3-.77-1.35-.67-.1,.05,.77,1.98,.96,1.98h0Zm-.63,1.54c.14,0,.63-1.06,.63-1.21s-1.16-.77-1.3-.63c-.14,.05,.48,1.93,.68,1.83h0Zm-1.3,.43c.19-.05,.87,0,.82-.19-.05-.14-.63-.53-.82-.43-.14,0-.19,.72,0,.63h0Zm2.51-5.84c.29,0,.1-1.4,.1-1.54-.19-.24-1.16-.39-1.3-.34-.19,0,.96,1.88,1.21,1.88h0Zm-64.74,10.23c.19,0,.34,.14,.34,.34s-.14,.29-.34,.29c-.14,0-.39-.1-.39-.29s.24-.34,.39-.34h0Zm-1.35-.24c.19,0,.34,.14,.34,.34s-.14,.34-.34,.34-.34-.14-.34-.34,.14-.34,.34-.34h0Zm-1.4-.29c.29,0,.43,.24,.43,.43,0,.24-.14,.43-.43,.43-.24,0-.39-.19-.39-.43,0-.19,.14-.43,.39-.43h0Zm-1.5-.34c.29,0,.53,.24,.53,.53,0,.24-.24,.48-.53,.48-.24,0-.53-.24-.53-.48,0-.29,.29-.53,.53-.53h0Zm-8.01,.87c-.19,0-.34,.14-.34,.34s.14,.29,.34,.29c.1,0,.29-.1,.29-.29s-.19-.34-.29-.34h0Zm1.3-.24c-.19,0-.43,.14-.43,.34,0,.19,.24,.34,.43,.34s.29-.14,.29-.34-.1-.34-.29-.34h0Zm1.4-.29c-.24,0-.43,.24-.43,.43,0,.24,.19,.43,.43,.43,.19,0,.39-.19,.39-.43,0-.19-.19-.43-.39-.43h0Zm1.5-.34c-.29,0-.48,.24-.48,.53,0,.24,.19,.48,.48,.48s.48-.24,.48-.48c0-.29-.19-.53-.48-.53h0Zm1.88-.24c-.24,0-.58,.24-.58,.58s.34,.68,.58,.68c.39,0,.58-.34,.58-.68s-.19-.58-.58-.58h0Zm0-15.58c.82,0,1.45,.63,1.45,1.45s-.63,1.93-1.45,1.93c-.77,0-1.4-1.11-1.4-1.93s.63-1.45,1.4-1.45h0Zm-1.69,9.89c-.14-.68-.53-3.33-.68-4.53-.19-1.21-1.01-.87-.87,.1,.1,.92,.63,3.23,.97,4.34,.24,1.11,.72,.87,.58,.1h0Zm.68-1.45c-.14-.77-.24-1.93-.19-2.7,.05-.82-.82-.67-.68-.05,.1,.63,.43,1.98,.48,2.8,.24,.77,.43,.72,.39-.05h0Zm2.22,0c0-.77,.1-1.93,.05-2.7,0-.82,.87-.67,.72-.05-.14,.63-.34,1.98-.53,2.8-.19,.77-.39,.72-.24-.05h0Zm-4.39,4.34c-.19,.19,.24,.82,.82,1.35,.58,.67,1.21,.92,1.4,.72,.19-.19-.19-.77-.72-1.4-.58-.53-1.21-.92-1.5-.68h0Zm6.37,0c.24,.19-.1,.82-.63,1.35-.63,.67-1.3,.92-1.4,.72-.29-.19,.05-.77,.67-1.4,.63-.53,1.21-.92,1.35-.68h0Zm-7.43,1.88c0,.29,.39,.43,.87,.48,.53,0,.92-.1,.92-.29s-.29-.39-.82-.39c-.48-.05-.92,.1-.96,.19h0Zm8.59,0c0,.29-.39,.43-.87,.48-.43,0-.92-.1-.92-.29,0-.19,.43-.39,.87-.39,.43-.05,.92,.1,.92,.19h0Zm-6.32-3.14c-.1,.1-.05,.53,.14,.97,.14,.48,.43,.72,.68,.63,.19-.1,.14-.48-.05-1.01-.19-.39-.58-.63-.77-.58h0Zm4,0c.14,.1,.14,.53-.05,.97-.19,.48-.53,.72-.72,.63-.1-.1-.05-.48,.14-1.01,.24-.39,.43-.63,.63-.58h0Zm-.14-1.64c.14-.68,.58-3.33,.67-4.53,.1-1.21,1.01-.87,.87,.1-.19,.92-.63,3.23-.87,4.34-.34,1.11-.77,.87-.67,.1h0Zm-1.88,.72c.39,0,.58,1.01,.58,2.22s-.19,2.17-.58,2.17c-.24,0-.53-.97-.53-2.17s.29-2.22,.53-2.22h0Zm.05-1.69c.19,0,.34,.14,.34,.29,0,.19-.14,.34-.34,.34-.14,0-.24-.14-.24-.34,0-.14,.1-.29,.24-.29h0Zm0-1.06c.19,0,.34,.14,.34,.29,0,.19-.14,.39-.34,.39s-.29-.19-.29-.39c0-.14,.1-.29,.29-.29h0Zm0-1.11c.24,0,.39,.1,.39,.34,0,.19-.14,.34-.39,.34-.19,0-.29-.14-.29-.34,0-.24,.1-.34,.29-.34h0Zm-.05-1.25c.29,0,.43,.24,.43,.43,0,.24-.14,.43-.43,.43-.19,0-.39-.19-.39-.43,0-.19,.19-.43,.39-.43h0Zm0-1.21c.29,0,.43,.24,.43,.53,0,.24-.14,.43-.43,.43-.19,0-.43-.19-.43-.43,0-.29,.24-.53,.43-.53h0Zm8.2,5.6c.19,.14,.24-1.16,.24-1.3-.05,0-1.06-.72-1.21-.68-.1,.05,.72,1.98,.96,1.98h0Zm-.39,1.78c.14-.05,.39-1.11,.34-1.21-.05-.19-1.16-.68-1.35-.63-.1,.05,.87,1.93,1.01,1.83h0Zm-.68,1.64c.1-.1,.63-1.11,.58-1.25-.05-.14-1.21-.63-1.3-.58-.14,.05,.58,1.88,.72,1.83h0Zm-.72,1.54c.1,0,.58-1.01,.58-1.16,0-.19-1.21-.72-1.35-.58-.1,0,.58,1.83,.77,1.74h0Zm1.98-6.75c.14-.1,0-.92,0-1.01,0-.19-1.06-1.16-1.21-1.11-.14,0,1.11,2.12,1.21,2.12h0Zm-1.83,1.11c.19-.1,.43-1.3,.34-1.45,0-.14-1.11-.63-1.25-.58-.1,.05,.87,2.07,.92,2.03h0Zm-.43,1.69c.1,0,.43-1.06,.43-1.16-.05-.24-1.21-.77-1.4-.68,0,.05,.82,1.88,.97,1.83h0Zm-.58,1.64c.1,0,.63-1.06,.58-1.25,0-.1-1.16-.68-1.3-.53-.14,.05,.58,1.88,.72,1.78h0Zm-.72,1.59c.1-.05,.63-1.01,.58-1.16-.05-.19-1.16-.72-1.35-.58-.1,0,.58,1.88,.77,1.74h0Zm1.98-6.95c.24,.1,.19-1.21,.19-1.4-.1-.1-1.25-.82-1.4-.77-.14,.05,.77,1.88,1.21,2.17h0Zm-1.83,1.35c.29,.05,.19-1.25,.19-1.45,.1-.29-1.25-.87-1.25-.72-.05,.24,.72,1.98,1.06,2.17h0Zm-.39,1.74c.1-.14,.43-1.16,.43-1.3-.05-.19-1.21-.77-1.4-.68-.14,.05,.87,1.98,.97,1.98h0Zm-.63,1.59c.14-.05,.63-1.11,.63-1.25s-1.16-.72-1.35-.58c-.05,0,.63,1.88,.72,1.83h0Zm-1.35,.39c.19,0,.87,0,.82-.19,0-.14-.63-.53-.82-.43-.05,0-.05,.77,0,.63h0Zm2.56-5.89c.24,0,.14-1.35,0-1.5,0-.19-1.06-.39-1.21-.34-.1,.05,1.01,1.83,1.21,1.83h0Zm-13.27,3.52c-.29,.14-.29-1.16-.29-1.3,0,0,1.11-.72,1.21-.68,.05,.05-.77,1.98-.92,1.98h0Zm.34,1.78c-.19-.05-.34-1.11-.24-1.21,0-.19,1.11-.68,1.25-.63,.1,.05-.87,1.93-1.01,1.83h0Zm.63,1.64c-.05-.1-.53-1.11-.53-1.25,.05-.14,1.21-.63,1.35-.58,.1,.05-.58,1.88-.82,1.83h0Zm.82,1.54c-.1,0-.63-1.01-.58-1.16,0-.19,1.11-.72,1.3-.58,.14,0-.58,1.83-.72,1.74h0Zm-2.08-6.75c-.1-.1,0-.92,0-1.01,.05-.19,1.11-1.16,1.25-1.11,.19,0-1.11,2.12-1.25,2.12h0Zm1.79,1.11c-.05-.1-.24-1.3-.14-1.45,0-.14,.96-.63,1.16-.58,.14,.05-.82,2.07-1.01,2.03h0Zm.53,1.69c-.1,0-.48-1.06-.48-1.16,.1-.24,1.25-.77,1.35-.68,.14,.05-.72,1.88-.87,1.83h0Zm.63,1.64c-.14,0-.63-1.06-.63-1.25,0-.1,1.16-.68,1.35-.53,.05,.05-.63,1.88-.72,1.78h0Zm.72,1.59c-.14-.05-.63-1.01-.63-1.16,.05-.19,1.21-.72,1.35-.58,.05,0-.63,1.88-.72,1.74h0Zm-1.98-6.95c-.24,.1-.14-1.21-.14-1.4,.1-.1,1.21-.82,1.35-.77,.14,.05-.77,1.88-1.21,2.17h0Zm1.78,1.35c-.29,.05-.29-1.25-.29-1.45,0-.29,1.3-.87,1.3-.72,.05,.24-.72,1.98-1.01,2.17h0Zm.39,1.74c-.14-.14-.43-1.16-.39-1.3,0-.19,1.21-.77,1.35-.68,.15,.05-.82,1.98-.96,1.98h0Zm.58,1.59s-.58-1.11-.58-1.25c.05-.14,1.16-.72,1.3-.58,.1,0-.53,1.88-.72,1.83h0Zm1.35,.39c-.1,0-.82,0-.77-.19,0-.14,.68-.53,.77-.43,.05,0,.14,.77,0,.63h0Zm-2.56-5.89c-.19,0-.14-1.35-.05-1.5,.14-.19,1.21-.39,1.25-.34,.19,.05-.97,1.83-1.21,1.83h0Zm81.96,22.19c.53,.29,1.79,.92,1.45,2.32-.48-.34-1.4-.58-2.12-.53v-1.25c.19-.29,.39-.48,.67-.53h0Zm-8.63-2.46l.96-2.12c.05-.14,.29-.24-.53-.19-.19,1.21-1.01,1.54-1.06,1.83-.05,.14,.34,.34,.63,.48h0Zm-79.12,2.41c-.53,.29-1.74,.97-1.45,2.36,.53-.34,1.45-.58,2.12-.58v-1.25c-.14-.24-.34-.43-.67-.53h0Zm75.01,54.22c.92,.24,0,3.09-.43,3.09-.48-.05-.19-3.04,.43-3.09h0Zm11.63-1.3c.72-.43,2.8,2.61,2.12,3.04-.72,.29-2.85-2.56-2.12-3.04h0Zm-5.4,1.74c.68-.1,.92,3.09,.29,3.14-.67,.05-1.06-3.09-.29-3.14h0Zm-1.88,4.92c.53-.29,.92,1.01,2.32,1.01,1.83,0,1.59-1.54,2.12-1.54,.53-.05,.14,1.11-.14,1.5-.39,.48-.82,1.2-1.88,1.2-1.11,.1-2.89-1.88-2.41-2.17h0Zm-7.48-.48c.34-.34,.53,1.5,1.69,1.59,1.79,.34,1.93-1.3,2.51-1.01,.63,.19-.05,1.01-.67,1.49-.43,.34-1.35,.63-2.07,.48-1.69-.39-1.74-2.27-1.45-2.56h0Zm14.95-.77c.24-.14,1.88,.72,3.14-.14,1.3-.87,.63-2.27,1.21-2.61,.58-.29,.48,2.89-.63,3.57-1.88,.53-4.2-.29-3.71-.82h0Zm6.75-4.92c.43-.72,2.22-.14,3.04-1.25,.72-1.06-1.06-2.36-.39-2.99,.63-.63,2.03,2.7,1.3,3.67-.82,.96-4.39,1.16-3.96,.58h0Zm-5.07-23.54c-.92-.92,3.33-5.35,4.1-4.49,.63,.92-3.18,5.5-4.1,4.49h0Zm2.51,7.48c-.53-.96,3.47-2.94,3.91-2.17,.39,.77-3.38,2.94-3.91,2.17h0Zm1.01,5.64c-.19-.96,4.1-1.16,4.2-.19,0,.82-4.1,1.16-4.2,.19h0Zm5.89-6.61c-.53-.29,.92-2.22,.14-3.57-.39-1.01-2.8-.87-2.75-1.4,.19-.58,3.14-.19,3.86,.68,.63,.82-.72,4.58-1.25,4.29h0Zm-.1,9.36c-.58-.39,1.4-1.25,1.35-3.04-.1-1.45-1.74-2.17-1.59-2.8,.24-.53,2.89,1.21,2.85,2.65-.05,1.64-2.03,3.62-2.6,3.18h0Zm-2.51-18.91s-.39-.72,.39-1.3c2.27-1.78,1.93-4.97,1.83-7.04-.05-.87,.43-1.21,.92-.82,.43,5.16-.19,6.56-3.14,9.17h0Zm11.43-8.64c-.92-.14,.05-1.06,.96-2.46,1.93-2.8,1.35-5.69,1.06-7.38-.14-.58,.39-1.69,.67-1.25,.87,1.98,1.54,6.46-2.7,11.1h0Zm-.87,39.22c.29-.72,2.89,.29,3.86-1.26,.48-.77-.77-2.41-.39-2.75,.39-.34,2.03,2.12,1.5,3.28-.48,1.26-5.26,1.5-4.97,.72h0Zm4.1-6.95c-.34-.58,2.61-.53,2.85-2.56,.14-1.4-1.3-1.59-1.11-2.03,.34-.53,2.41,1.01,2.22,2.46-.29,1.74-3.57,2.75-3.96,2.12h0Zm2.12-8.01c-.43-.63,2.8-1.45,2.36-3.33-.29-1.45-3.09-1.25-2.85-1.88,.15-.53,3.52,.19,4,1.98,.43,1.74-3.14,3.91-3.52,3.23h0Zm-1.78-16.74c-.58-.58,3.09-4.78,2.41-5.55-.82-.82-1.11-.05-1.45-.43-.29-.39,1.16-1.35,2.36,.05,1.25,1.45-2.8,6.46-3.33,5.93h0Zm2.51,8.01c-.72-.53,2.61-2.61,2.12-4-.43-1.25-2.89-.63-3.04-1.11-.19-.34,3.18-.92,4,.72,.82,1.69-2.51,4.82-3.09,4.39h0Zm19.3,18.81c.05-.14,1.11-.14,2.51-.34,1.59-.24,2.99-1.35,2.99-2.56-.1-1.78-2.94-2.22-4.05-2.41-.05-1.21,5.6-.19,5.64,2.32,.1,1.98-2.89,3.52-4.63,3.71-1.3,.14-2.32-.05-2.46-.72h0Zm.43-31.5c-1.01-.72,1.35-1.93,2.7-2.99,2.27-1.93,2.7-4.87,2.12-5.35-.82-.87-3.38,1.69-6.03,2.07-.67-.87,1.3-1.3,2.85-2.17,1.59-.87,3.42-1.45,4.15-1.06,1.35,.87,.96,6.51-5.79,9.5h0Zm-.96-12.45c-.82-.82,1.69-1.74,2.89-3.52,2.7-3.91,1.88-6.8,1.3-6.9-1.54-.05-2.17,2.22-5.6,4.78-.87-.43,1.11-1.64,2.32-3.28,1.26-1.69,2.75-3.09,3.52-3.09,1.93,.1,2.12,8.68-4.44,12.01h0Zm4,21.9c3.42-2.17,6.37-4.2,5.26-5.74-.87-1.16-2.8-.63-5.89-.05-.92-1.06,5.11-2.46,7-.43,1.98,1.98-5.6,8.06-6.37,6.22h0Zm-2.61,11.1c1.74-.39,2.99-1.21,4-1.69,.97-.53,2.36-1.79,2.12-2.65-.24-.87-2.8-.87-4.68-.87,0-1.3,5.11-.87,5.89,.34,.82,1.21-1.25,3.18-2.36,3.91-1.06,.68-5.02,2.36-4.97,.97h0Zm-5.11-48c-1.06-.72,1.01-1.74,1.69-4.82,1.11-4.63,0-7.57-1.3-7.48-1.54,.1-.19,1.83-3.42,5.35-.96-.19,.05-.29,1.35-3.91,1.06-2.65,1.45-2.65,2.27-2.65,2.22-.34,4.82,7.86-.58,13.51h0ZM99.97,217.28c-1.5-.92-2.7-1.98-3.81-3.52l.29-.77c.97,1.3,1.83,2.41,3.52,3.18,1.74-.77,2.56-1.78,3.57-3.14l.24,.77c-1.06,1.54-2.32,2.61-3.81,3.47h0Zm36.13-27.88c-.82,2.8-2.99,4.05-3.67,4.2-.48,.19-.29,.53-.05,.77,2.75,.19,4-2.99,3.71-4.97h0Zm-13.46,6.08c-1.35,4.39-3.91,2.46-4.29,2.75,1.69,2.17,4.58-.1,4.78-2.27,.05-.34-.34-.43-.48-.48h0Zm-17.32,5.84h-.53c.39,2.46,.39,4.24,.05,6.7h.53c.58-1.59,.58-4.15-.05-6.7h0Zm9.94,.87c-.1,4.68-2.03,6.37-4,8.39-.34,.34-.92,.53-1.35,.43-.43-.14,.67-.53,1.06-1.11,2.27-2.56,3.14-4.15,3.14-8.01,.1-6.85-6.61-15.63-5.89-15.87,.05,0,.29,.14,.53,.48,5.55,8.97,6.7,11.67,6.51,15.68h0Zm15.58-4.15c-.05-.24,.05-.63,.63-.63,2.51,.05,6.32,2.46,4.34,6.95-.05-3.76-1.4-5.79-4.97-6.32h0Zm-66.96-8.68c.82,2.8,2.99,4.1,3.71,4.24,.43,.19,.29,.48,.05,.68-2.8,.24-4-2.94-3.76-4.92h0Zm13.51,6.13c1.35,4.34,3.81,2.41,4.29,2.7-1.69,2.22-4.63-.1-4.87-2.27,0-.34,.34-.43,.58-.43h0Zm17.22,5.79h.58c-.43,2.41-.43,4.24-.05,6.75h-.58c-.58-1.69-.58-4.15,.05-6.75h0Zm-9.94,.92c.1,4.63,1.98,6.37,4,8.34,.34,.34,.92,.53,1.35,.43,.48-.14-.68-.53-1.01-1.11-2.32-2.56-3.14-4.1-3.18-8.01-.14-6.85,6.66-15.58,5.89-15.82-.05,0-.29,.14-.53,.48-5.6,8.97-6.56,11.63-6.51,15.68h0Zm-15.58-4.15c.1-.29,0-.63-.58-.63-2.51,.05-6.32,2.41-4.34,6.9,.05-3.81,1.45-5.74,4.92-6.27h0Zm-.19-88.91c-.96,.29,0,3.14,.43,3.09,.43-.05,.24-3.04-.43-3.09h0Zm-15.97-5.11c-.39-.87-3.57,.87-3.09,1.69,.48,.58,3.67-.97,3.09-1.69h0Zm4.29,3.81c-.72-.43-2.75,2.61-2.07,3.04,.72,.34,2.85-2.51,2.07-3.04h0Zm5.45,1.74c-.68-.1-.92,3.09-.29,3.14,.68,.05,1.01-3.09,.29-3.14h0Zm1.78,4.97c-.53-.29-.82,1.01-2.27,1.01-1.78,0-1.54-1.54-2.07-1.59-.58-.1-.19,1.11,.1,1.5,.43,.53,.87,1.2,1.93,1.25,1.06,.05,2.89-1.98,2.32-2.17h0Zm7.53-.53c-.34-.34-.43,1.5-1.69,1.59-1.78,.34-1.93-1.35-2.51-1.06-.67,.29,.1,1.06,.68,1.59,.48,.29,1.35,.58,2.07,.43,1.69-.34,1.69-2.22,1.45-2.56h0Zm-15-.77c-.19-.14-1.78,.72-3.09-.1-1.3-.92-.63-2.32-1.21-2.65-.63-.34-.48,2.89,.63,3.57,1.93,.58,4.25-.24,3.67-.82h0Zm-6.71-4.97c-.43-.63-2.22-.05-3.04-1.21-.72-1.01,1.06-2.36,.39-2.99-.63-.63-2.03,2.7-1.3,3.67,.82,1.01,4.39,1.21,3.96,.53h0Zm2.6-16.02c.48-.92-3.52-2.94-3.96-2.17-.39,.77,3.38,2.99,3.96,2.17h0Zm-1.06,5.64c.19-.96-4.05-1.11-4.15-.19-.05,.87,4.1,1.16,4.15,.19h0Zm-5.84-6.56c.53-.39-.92-2.22-.24-3.62,.43-.97,2.89-.82,2.75-1.4-.14-.58-3.09-.14-3.76,.67-.68,.82,.67,4.58,1.25,4.34h0Zm.05,9.36c.68-.43-1.45-1.3-1.3-3.09,.05-1.4,1.69-2.17,1.54-2.75-.24-.58-2.85,1.16-2.85,2.6,.05,1.64,2.03,3.67,2.61,3.23h0Zm2.46-18.91s.43-.82-.34-1.4c-2.27-1.78-1.93-4.87-1.83-7.04,0-.77-.43-1.21-.92-.77-.43,5.16,.19,6.61,3.09,9.21h0Zm-14.91-1.16c.63-.53-3.14-4.73-2.41-5.55,.72-.77,1.11,0,1.45-.39,.29-.39-1.25-1.4-2.41,0-1.21,1.5,2.8,6.42,3.38,5.93h0Zm3.52-7.48c.96-.24-.05-1.16-.92-2.51-1.93-2.85-1.4-5.69-1.11-7.43,.19-.48-.34-1.64-.63-1.25-.87,2.07-1.5,6.56,2.65,11.19h0ZM8.8,113.12l.29-.72,.96,.72-.48,1.5-1.83-.39,.34-1.35,.72,.24h0Zm2.94-5.64c-.05-.19-1.06-.19-2.51-.39-1.59-.24-2.99-1.35-2.94-2.56,.1-1.78,2.89-2.17,3.96-2.46,.14-1.16-5.5-.1-5.6,2.36-.1,1.98,2.89,3.57,4.58,3.76,1.35,.14,2.41-.1,2.51-.72h0Zm-.39-31.6c1.01-.63-1.35-1.83-2.65-2.89-2.32-1.93-2.8-4.92-2.22-5.45,.87-.82,3.43,1.78,6.03,2.12,.63-.82-1.3-1.25-2.85-2.12-1.59-.87-3.42-1.5-4.15-1.06-1.35,.82-.92,6.42,5.84,9.41h0Zm-3.09,9.5c-3.38-2.17-6.37-4.2-5.21-5.74,.87-1.11,2.8-.63,5.84-.1,.92-.96-5.11-2.41-6.99-.39-1.93,2.03,5.64,8.01,6.37,6.22h0Zm2.61,11.14c-1.74-.43-2.94-1.21-3.96-1.74-1.01-.53-2.41-1.74-2.12-2.6,.19-.87,2.75-.87,4.63-.87,.05-1.35-5.11-.87-5.89,.34-.77,1.16,1.25,3.18,2.36,3.86,1.06,.68,5.02,2.36,4.97,1.01h0Zm1.35-33.05c.87-.77-1.59-1.74-2.85-3.57-2.65-3.91-1.88-6.8-1.3-6.85,1.54-.05,2.17,2.22,5.55,4.82,.97-.48-.96-1.69-2.27-3.38-1.25-1.59-2.65-3.04-3.47-3.04-1.98,.1-2.17,8.68,4.34,12.01h0Zm3.76-15c1.11-.72-1.01-1.74-1.69-4.82-1.01-4.68,0-7.57,1.35-7.43,1.54,.1,.1,1.78,3.38,5.31,1.01-.19-.1-.29-1.35-3.91-1.06-2.61-1.4-2.61-2.22-2.61-2.17-.39-4.87,7.86,.53,13.46h0Z"/></svg>